<?xml version="1.0" encoding="UTF-8"?>
<svg xmlns="http://www.w3.org/2000/svg"
     xmlns:xlink="http://www.w3.org/1999/xlink"
     xmlns:gadfly="http://www.gadflyjl.org/ns"
     version="1.2"
     width="152.4mm" height="127mm" viewBox="0 0 152.4 127"
     stroke="none"
     fill="#000000"
     stroke-width="0.3"
     font-size="3.88"
>
<g class="plotroot xscalable yscalable" id="img-1413cbc3-1">
  <g font-size="3.88" font-family="'PT Sans','Helvetica Neue','Helvetica',sans-serif" fill="#564A55" stroke="#000000" stroke-opacity="0.000" id="img-1413cbc3-2">
    <text x="78.87" y="115.39" text-anchor="middle" dy="0.6em">x</text>
  </g>
  <g class="guide xlabels" font-size="2.82" font-family="'PT Sans Caption','Helvetica Neue','Helvetica',sans-serif" fill="#6C606B" id="img-1413cbc3-3">
    <text x="12.35" y="108.72" text-anchor="middle" dy="0.6em">-0.2</text>
    <text x="45.61" y="108.72" text-anchor="middle" dy="0.6em">0.0</text>
    <text x="78.87" y="108.72" text-anchor="middle" dy="0.6em">0.2</text>
    <text x="112.14" y="108.72" text-anchor="middle" dy="0.6em">0.4</text>
    <text x="145.4" y="108.72" text-anchor="middle" dy="0.6em">0.6</text>
  </g>
<g clip-path="url(#img-1413cbc3-4)">
  <g id="img-1413cbc3-5">
    <g pointer-events="visible" opacity="1" fill="#000000" fill-opacity="0.000" stroke="#000000" stroke-opacity="0.000" class="guide background" id="img-1413cbc3-6">
      <rect x="10.35" y="5" width="137.05" height="102.72"/>
    </g>
    <g class="guide ygridlines xfixed" stroke-dasharray="0.5,0.5" stroke-width="0.2" stroke="#D0D0E0" id="img-1413cbc3-7">
      <path fill="none" d="M10.35,105.71 L 147.4 105.71"/>
      <path fill="none" d="M10.35,85.97 L 147.4 85.97"/>
      <path fill="none" d="M10.35,66.23 L 147.4 66.23"/>
      <path fill="none" d="M10.35,46.49 L 147.4 46.49"/>
      <path fill="none" d="M10.35,26.74 L 147.4 26.74"/>
      <path fill="none" d="M10.35,7 L 147.4 7"/>
    </g>
    <g class="guide xgridlines yfixed" stroke-dasharray="0.5,0.5" stroke-width="0.2" stroke="#D0D0E0" id="img-1413cbc3-8">
      <path fill="none" d="M12.35,5 L 12.35 107.72"/>
      <path fill="none" d="M45.61,5 L 45.61 107.72"/>
      <path fill="none" d="M78.87,5 L 78.87 107.72"/>
      <path fill="none" d="M112.14,5 L 112.14 107.72"/>
      <path fill="none" d="M145.4,5 L 145.4 107.72"/>
    </g>
    <g class="plotpanel" id="img-1413cbc3-9">
      <g stroke-width="0.3" fill="#000000" fill-opacity="0.000" class="geometry" stroke-dasharray="none" stroke="#00BFFF" id="img-1413cbc3-10">
        <path fill="none" d="M42.79,105.71 L 43.13 105.68 43.48 105.54 43.83 105.02 44.17 103.41 44.52 99.43 44.87 91.5 45.22 78.84 45.56 62.7 45.91 46.48 46.26 34 46.6 27.32 46.95 25.98 47.3 28.05 47.64 31.58 47.99 35.49 48.34 39.43 48.69 43.42 49.03 47.44 49.38 51.3 49.73 54.78 50.07 57.8 50.42 60.46 50.77 62.95 51.11 65.41 51.46 67.82 51.81 70.07 52.15 72.13 52.5 74 52.85 75.7 53.2 77.25 53.54 78.67 53.89 79.98 54.24 81.24 54.58 82.44 54.93 83.54 55.28 84.49 55.62 85.28 55.97 86.03 56.32 86.86 56.67 87.85 57.01 88.95 57.36 90.07 57.71 91.06 58.05 91.89 58.4 92.54 58.75 93.08 59.09 93.58 59.44 94.14 59.79 94.77 60.13 95.42 60.48 96.02 60.83 96.56 61.18 97.05 61.52 97.53 61.87 98.03 62.22 98.52 62.56 98.97 62.91 99.33 63.26 99.59 63.6 99.76 63.95 99.89 64.3 100.06 64.64 100.27 64.99 100.48 65.34 100.61 65.69 100.67 66.03 100.73 66.38 100.84 66.73 101.02 67.07 101.22 67.42 101.4 67.77 101.54 68.11 101.66 68.46 101.8 68.81 101.95 69.16 102.09 69.5 102.23 69.85 102.36 70.2 102.5 70.54 102.66 70.89 102.81 71.24 102.94 71.58 103.05 71.93 103.12 72.28 103.18 72.62 103.24 72.97 103.3 73.32 103.38 73.67 103.48 74.01 103.6 74.36 103.71 74.71 103.82 75.05 103.89 75.4 103.93 75.75 103.95 76.09 103.95 76.44 103.96 76.79 103.97 77.13 104.01 77.48 104.07 77.83 104.17 78.18 104.28 78.52 104.37 78.87 104.41 79.22 104.4 79.56 104.36 79.91 104.33 80.26 104.33 80.6 104.38 80.95 104.45 81.3 104.53 81.65 104.59 81.99 104.64 82.34 104.67 82.69 104.7 83.03 104.74 83.38 104.78 83.73 104.83 84.07 104.88 84.42 104.92 84.77 104.96 85.11 104.96 85.46 104.94 85.81 104.9 86.16 104.85 86.5 104.82 86.85 104.81 87.2 104.84 87.54 104.9 87.89 104.96 88.24 105.01 88.58 105.03 88.93 105.03 89.28 105.02 89.63 105.02 89.97 105.05 90.32 105.08 90.67 105.11 91.01 105.15 91.36 105.18 91.71 105.21 92.05 105.22 92.4 105.22 92.75 105.22 93.09 105.23 93.44 105.24 93.79 105.26 94.14 105.27 94.48 105.28 94.83 105.29 95.18 105.3 95.52 105.32 95.87 105.35 96.22 105.37 96.56 105.38 96.91 105.37 97.26 105.35 97.6 105.32 97.95 105.32 98.3 105.32 98.65 105.34 98.99 105.36 99.34 105.37 99.69 105.39 100.03 105.4 100.38 105.41 100.73 105.41 101.07 105.42 101.42 105.41 101.77 105.4 102.12 105.4 102.46 105.4 102.81 105.42 103.16 105.43 103.5 105.44 103.85 105.45 104.2 105.46 104.54 105.47 104.89 105.49 105.24 105.51 105.58 105.52 105.93 105.51 106.28 105.48 106.63 105.46 106.97 105.45 107.32 105.46 107.67 105.47 108.01 105.47 108.36 105.47 108.71 105.48 109.05 105.5 109.4 105.53 109.75 105.55 110.1 105.55 110.44 105.54 110.79 105.52 111.14 105.51 111.48 105.51 111.83 105.51 112.18 105.52 112.52 105.54 112.87 105.56 113.22 105.57 113.56 105.58 113.91 105.56 114.26 105.53 114.61 105.5 114.95 105.48 115.3 105.48 115.65 105.49 115.99 105.51 116.34 105.54 116.69 105.57 117.03 105.58 117.38 105.58 117.73 105.57 118.07 105.57 118.42 105.57 118.77 105.58 119.12 105.59 119.46 105.59 119.81 105.59 120.16 105.59 120.5 105.6 120.85 105.6 121.2 105.6 121.54 105.6 121.89 105.6 122.24 105.6 122.59 105.61 122.93 105.62 123.28 105.62 123.63 105.63 123.97 105.64 124.32 105.64 124.67 105.64 125.01 105.62 125.36 105.61 125.71 105.61 126.05 105.61 126.4 105.61 126.75 105.61 127.1 105.62 127.44 105.63 127.79 105.64 128.14 105.65 128.48 105.67 128.83 105.68 129.18 105.7 129.52 105.71 129.87 105.71 130.22 105.71 130.57 105.71 130.91 105.71 131.26 105.71"/>
      </g>
      <g stroke-width="0.3" fill="#000000" fill-opacity="0.000" class="geometry" stroke-dasharray="none" stroke="#00BFFF" id="img-1413cbc3-11">
        <path fill="none" d="M42.55,105.71 L 42.9 105.69 43.25 105.6 43.6 105.26 43.94 104.22 44.29 101.62 44.64 96.27 44.99 87.16 45.34 74.42 45.69 59.85 46.04 46.39 46.39 36.67 46.73 31.75 47.08 31 47.43 32.89 47.78 36.02 48.13 39.56 48.48 43.17 48.83 46.76 49.18 50.25 49.53 53.52 49.87 56.47 50.22 59.11 50.57 61.55 50.92 63.93 51.27 66.29 51.62 68.56 51.97 70.68 52.32 72.6 52.66 74.36 53.01 75.97 53.36 77.47 53.71 78.87 54.06 80.18 54.41 81.42 54.76 82.55 55.11 83.55 55.46 84.39 55.8 85.14 56.15 85.91 56.5 86.8 56.85 87.83 57.2 88.93 57.55 89.96 57.9 90.86 58.25 91.61 58.59 92.24 58.94 92.81 59.29 93.39 59.64 94.01 59.99 94.65 60.34 95.28 60.69 95.87 61.04 96.43 61.39 96.95 61.73 97.46 62.08 97.94 62.43 98.37 62.78 98.75 63.13 99.04 63.48 99.27 63.83 99.45 64.18 99.64 64.52 99.84 64.87 100.03 65.22 100.18 65.57 100.26 65.92 100.31 66.27 100.39 66.62 100.54 66.97 100.73 67.31 100.93 67.66 101.12 68.01 101.28 68.36 101.43 68.71 101.58 69.06 101.72 69.41 101.86 69.76 102 70.11 102.14 70.45 102.3 70.8 102.46 71.15 102.59 71.5 102.7 71.85 102.79 72.2 102.86 72.55 102.93 72.9 103.01 73.24 103.1 73.59 103.2 73.94 103.33 74.29 103.46 74.64 103.59 74.99 103.68 75.34 103.73 75.69 103.75 76.04 103.75 76.38 103.74 76.73 103.74 77.08 103.78 77.43 103.86 77.78 103.97 78.13 104.1 78.48 104.21 78.83 104.27 79.17 104.28 79.52 104.25 79.87 104.23 80.22 104.23 80.57 104.26 80.92 104.32 81.27 104.39 81.62 104.45 81.97 104.49 82.31 104.53 82.66 104.57 83.01 104.61 83.36 104.65 83.71 104.7 84.06 104.76 84.41 104.81 84.76 104.85 85.1 104.87 85.45 104.86 85.8 104.82 86.15 104.78 86.5 104.74 86.85 104.74 87.2 104.76 87.55 104.81 87.9 104.88 88.24 104.93 88.59 104.95 88.94 104.94 89.29 104.93 89.64 104.93 89.99 104.95 90.34 104.99 90.69 105.03 91.03 105.07 91.38 105.1 91.73 105.13 92.08 105.15 92.43 105.16 92.78 105.16 93.13 105.17 93.48 105.18 93.82 105.2 94.17 105.22 94.52 105.23 94.87 105.24 95.22 105.26 95.57 105.28 95.92 105.3 96.27 105.32 96.62 105.32 96.96 105.31 97.31 105.29 97.66 105.27 98.01 105.27 98.36 105.28 98.71 105.3 99.06 105.32 99.41 105.34 99.75 105.35 100.1 105.36 100.45 105.37 100.8 105.37 101.15 105.37 101.5 105.36 101.85 105.36 102.2 105.36 102.55 105.36 102.89 105.37 103.24 105.39 103.59 105.4 103.94 105.41 104.29 105.42 104.64 105.44 104.99 105.46 105.34 105.48 105.68 105.48 106.03 105.46 106.38 105.44 106.73 105.42 107.08 105.42 107.43 105.42 107.78 105.43 108.13 105.44 108.48 105.44 108.82 105.46 109.17 105.48 109.52 105.5 109.87 105.52 110.22 105.52 110.57 105.5 110.92 105.49 111.27 105.48 111.61 105.48 111.96 105.49 112.31 105.5 112.66 105.52 113.01 105.54 113.36 105.55 113.71 105.54 114.06 105.52 114.41 105.5 114.75 105.47 115.1 105.46 115.45 105.47 115.8 105.48 116.15 105.51 116.5 105.53 116.85 105.55 117.2 105.55 117.54 105.55 117.89 105.55 118.24 105.55 118.59 105.56 118.94 105.56 119.29 105.57 119.64 105.57 119.99 105.58 120.33 105.58 120.68 105.58 121.03 105.58 121.38 105.58 121.73 105.58 122.08 105.59 122.43 105.59 122.78 105.6 123.13 105.6 123.47 105.61 123.82 105.62 124.17 105.63 124.52 105.63 124.87 105.62 125.22 105.61 125.57 105.6 125.92 105.6 126.26 105.6 126.61 105.61 126.96 105.62 127.31 105.63 127.66 105.63 128.01 105.64 128.36 105.66 128.71 105.67 129.06 105.69 129.4 105.7 129.75 105.71 130.1 105.71 130.45 105.71 130.8 105.71 131.15 105.71 131.5 105.71"/>
      </g>
      <g stroke-width="0.3" fill="#000000" fill-opacity="0.000" class="geometry" stroke-dasharray="none" stroke="#00BFFF" id="img-1413cbc3-12">
        <path fill="none" d="M42.28,105.71 L 42.63 105.69 42.98 105.63 43.34 105.39 43.69 104.7 44.04 103.01 44.39 99.46 44.74 93.14 45.09 83.65 45.44 71.64 45.79 58.92 46.14 47.82 46.49 40.12 46.84 36.35 47.2 35.87 47.55 37.49 47.9 40.16 48.25 43.23 48.6 46.43 48.95 49.61 49.3 52.7 49.65 55.58 50 58.24 50.35 60.72 50.7 63.09 51.06 65.39 51.41 67.58 51.76 69.6 52.11 71.42 52.46 73.05 52.81 74.56 53.16 76.01 53.51 77.43 53.86 78.83 54.21 80.16 54.56 81.39 54.92 82.48 55.27 83.42 55.62 84.26 55.97 85.06 56.32 85.93 56.67 86.91 57.02 87.96 57.37 89.01 57.72 89.95 58.07 90.72 58.42 91.35 58.78 91.89 59.13 92.44 59.48 93.05 59.83 93.74 60.18 94.45 60.53 95.13 60.88 95.74 61.23 96.28 61.58 96.76 61.93 97.2 62.28 97.61 62.64 97.98 62.99 98.29 63.34 98.57 63.69 98.81 64.04 99.06 64.39 99.31 64.74 99.56 65.09 99.76 65.44 99.89 65.79 99.97 66.14 100.04 66.5 100.14 66.85 100.28 67.2 100.46 67.55 100.66 67.9 100.85 68.25 101.04 68.6 101.22 68.95 101.38 69.3 101.51 69.65 101.63 70 101.76 70.36 101.9 70.71 102.05 71.06 102.21 71.41 102.36 71.76 102.49 72.11 102.59 72.46 102.68 72.81 102.75 73.16 102.83 73.51 102.92 73.86 103.04 74.22 103.19 74.57 103.33 74.92 103.44 75.27 103.5 75.62 103.52 75.97 103.51 76.32 103.49 76.67 103.48 77.02 103.51 77.37 103.58 77.72 103.69 78.08 103.83 78.43 103.96 78.78 104.05 79.13 104.1 79.48 104.11 79.83 104.1 80.18 104.1 80.53 104.13 80.88 104.17 81.23 104.23 81.58 104.28 81.93 104.33 82.29 104.36 82.64 104.4 82.99 104.44 83.34 104.5 83.69 104.57 84.04 104.64 84.39 104.7 84.74 104.74 85.09 104.75 85.44 104.73 85.79 104.7 86.15 104.66 86.5 104.64 86.85 104.63 87.2 104.65 87.55 104.7 87.9 104.75 88.25 104.8 88.6 104.83 88.95 104.84 89.3 104.85 89.65 104.85 90.01 104.87 90.36 104.89 90.71 104.93 91.06 104.97 91.41 105.01 91.76 105.04 92.11 105.07 92.46 105.08 92.81 105.08 93.16 105.09 93.51 105.11 93.87 105.13 94.22 105.15 94.57 105.16 94.92 105.17 95.27 105.19 95.62 105.21 95.97 105.23 96.32 105.25 96.67 105.26 97.02 105.26 97.37 105.24 97.73 105.23 98.08 105.22 98.43 105.23 98.78 105.24 99.13 105.26 99.48 105.28 99.83 105.29 100.18 105.3 100.53 105.3 100.88 105.3 101.23 105.3 101.59 105.3 101.94 105.3 102.29 105.3 102.64 105.32 102.99 105.33 103.34 105.35 103.69 105.37 104.04 105.38 104.39 105.4 104.74 105.42 105.09 105.44 105.45 105.45 105.8 105.44 106.15 105.42 106.5 105.39 106.85 105.38 107.2 105.38 107.55 105.39 107.9 105.4 108.25 105.41 108.6 105.42 108.95 105.44 109.31 105.46 109.66 105.47 110.01 105.48 110.36 105.47 110.71 105.46 111.06 105.45 111.41 105.44 111.76 105.45 112.11 105.46 112.46 105.47 112.81 105.49 113.17 105.51 113.52 105.51 113.87 105.5 114.22 105.47 114.57 105.45 114.92 105.43 115.27 105.42 115.62 105.44 115.97 105.46 116.32 105.48 116.67 105.51 117.03 105.52 117.38 105.52 117.73 105.52 118.08 105.52 118.43 105.53 118.78 105.53 119.13 105.54 119.48 105.55 119.83 105.55 120.18 105.55 120.53 105.56 120.89 105.56 121.24 105.56 121.59 105.56 121.94 105.56 122.29 105.57 122.64 105.57 122.99 105.58 123.34 105.59 123.69 105.6 124.04 105.61 124.39 105.62 124.74 105.62 125.1 105.61 125.45 105.6 125.8 105.6 126.15 105.59 126.5 105.6 126.85 105.6 127.2 105.61 127.55 105.62 127.9 105.63 128.25 105.64 128.6 105.66 128.96 105.68 129.31 105.69 129.66 105.7 130.01 105.71 130.36 105.71 130.71 105.71 131.06 105.71 131.41 105.71 131.76 105.71"/>
      </g>
      <g stroke-width="0.3" fill="#000000" fill-opacity="0.000" class="geometry" stroke-dasharray="none" stroke="#00BFFF" id="img-1413cbc3-13">
        <path fill="none" d="M41.91,105.71 L 42.26 105.7 42.62 105.65 42.97 105.5 43.33 105.09 43.68 104.1 44.03 102.01 44.39 98.16 44.74 91.99 45.09 83.42 45.45 73.1 45.8 62.39 46.16 52.95 46.51 46.04 46.86 42.15 47.22 40.97 47.57 41.75 47.92 43.7 48.28 46.24 48.63 49 48.99 51.79 49.34 54.5 49.69 57.07 50.05 59.5 50.4 61.8 50.76 64.02 51.11 66.16 51.46 68.2 51.82 70.1 52.17 71.84 52.52 73.42 52.88 74.9 53.23 76.3 53.59 77.65 53.94 78.94 54.29 80.15 54.65 81.26 55 82.24 55.36 83.1 55.71 83.89 56.06 84.69 56.42 85.55 56.77 86.51 57.12 87.53 57.48 88.53 57.83 89.45 58.19 90.24 58.54 90.92 58.89 91.54 59.25 92.15 59.6 92.79 59.96 93.46 60.31 94.14 60.66 94.79 61.02 95.4 61.37 95.95 61.72 96.45 62.08 96.9 62.43 97.3 62.79 97.64 63.14 97.92 63.49 98.15 63.85 98.36 64.2 98.58 64.55 98.81 64.91 99.04 65.26 99.24 65.62 99.4 65.97 99.53 66.32 99.67 66.68 99.84 67.03 100.02 67.39 100.2 67.74 100.38 68.09 100.54 68.45 100.7 68.8 100.84 69.15 100.97 69.51 101.09 69.86 101.21 70.22 101.35 70.57 101.51 70.92 101.69 71.28 101.89 71.63 102.06 71.99 102.21 72.34 102.34 72.69 102.44 73.05 102.54 73.4 102.65 73.75 102.78 74.11 102.91 74.46 103.04 74.82 103.14 75.17 103.19 75.52 103.21 75.88 103.19 76.23 103.16 76.59 103.15 76.94 103.17 77.29 103.23 77.65 103.33 78 103.46 78.35 103.6 78.71 103.72 79.06 103.8 79.42 103.84 79.77 103.86 80.12 103.86 80.48 103.89 80.83 103.93 81.18 103.98 81.54 104.04 81.89 104.09 82.25 104.15 82.6 104.2 82.95 104.26 83.31 104.33 83.66 104.4 84.02 104.47 84.37 104.53 84.72 104.57 85.08 104.58 85.43 104.57 85.78 104.55 86.14 104.52 86.49 104.5 86.85 104.5 87.2 104.53 87.55 104.57 87.91 104.62 88.26 104.67 88.62 104.7 88.97 104.72 89.32 104.74 89.68 104.76 90.03 104.78 90.38 104.82 90.74 104.86 91.09 104.91 91.45 104.94 91.8 104.97 92.15 104.98 92.51 105 92.86 105.01 93.22 105.04 93.57 105.07 93.92 105.09 94.28 105.11 94.63 105.12 94.98 105.13 95.34 105.14 95.69 105.15 96.05 105.16 96.4 105.17 96.75 105.17 97.11 105.16 97.46 105.14 97.81 105.13 98.17 105.12 98.52 105.13 98.88 105.15 99.23 105.17 99.58 105.2 99.94 105.21 100.29 105.22 100.65 105.23 101 105.22 101.35 105.22 101.71 105.21 102.06 105.21 102.41 105.22 102.77 105.24 103.12 105.26 103.48 105.28 103.83 105.3 104.18 105.33 104.54 105.36 104.89 105.38 105.25 105.4 105.6 105.4 105.95 105.39 106.31 105.37 106.66 105.35 107.01 105.33 107.37 105.33 107.72 105.33 108.08 105.34 108.43 105.35 108.78 105.37 109.14 105.39 109.49 105.41 109.85 105.42 110.2 105.42 110.55 105.41 110.91 105.4 111.26 105.39 111.61 105.39 111.97 105.4 112.32 105.41 112.68 105.43 113.03 105.45 113.38 105.45 113.74 105.45 114.09 105.43 114.44 105.41 114.8 105.39 115.15 105.38 115.51 105.39 115.86 105.42 116.21 105.44 116.57 105.46 116.92 105.48 117.28 105.48 117.63 105.48 117.98 105.48 118.34 105.48 118.69 105.49 119.04 105.5 119.4 105.51 119.75 105.51 120.11 105.52 120.46 105.52 120.81 105.52 121.17 105.53 121.52 105.53 121.88 105.53 122.23 105.54 122.58 105.54 122.94 105.55 123.29 105.56 123.64 105.58 124 105.59 124.35 105.59 124.71 105.59 125.06 105.59 125.41 105.58 125.77 105.57 126.12 105.57 126.47 105.57 126.83 105.58 127.18 105.59 127.54 105.6 127.89 105.61 128.24 105.63 128.6 105.65 128.95 105.67 129.31 105.68 129.66 105.7 130.01 105.71 130.37 105.71 130.72 105.71 131.07 105.71 131.43 105.71 131.78 105.71 132.14 105.71"/>
      </g>
      <g stroke-width="0.3" fill="#000000" fill-opacity="0.000" class="geometry" stroke-dasharray="none" stroke="#00BFFF" id="img-1413cbc3-14">
        <path fill="none" d="M41.36,105.71 L 41.72 105.7 42.08 105.68 42.44 105.6 42.8 105.39 43.15 104.91 43.51 103.89 43.87 101.98 44.23 98.74 44.59 93.82 44.95 87.13 45.3 78.99 45.66 70.16 46.02 61.68 46.38 54.54 46.74 49.42 47.09 46.54 47.45 45.69 47.81 46.39 48.17 48.12 48.53 50.44 48.88 53.01 49.24 55.63 49.6 58.17 49.96 60.57 50.32 62.82 50.68 64.92 51.03 66.91 51.39 68.78 51.75 70.53 52.11 72.15 52.47 73.62 52.82 74.95 53.18 76.18 53.54 77.34 53.9 78.44 54.26 79.51 54.61 80.53 54.97 81.5 55.33 82.42 55.69 83.3 56.05 84.18 56.4 85.08 56.76 86.01 57.12 86.96 57.48 87.89 57.84 88.77 58.2 89.58 58.55 90.32 58.91 91 59.27 91.66 59.63 92.33 59.99 93.02 60.34 93.7 60.7 94.36 61.06 94.96 61.42 95.49 61.78 95.95 62.13 96.35 62.49 96.7 62.85 97.01 63.21 97.31 63.57 97.6 63.93 97.89 64.28 98.17 64.64 98.43 65 98.66 65.36 98.83 65.72 98.96 66.07 99.07 66.43 99.16 66.79 99.27 67.15 99.41 67.51 99.55 67.86 99.71 68.22 99.87 68.58 100.03 68.94 100.18 69.3 100.33 69.65 100.49 70.01 100.66 70.37 100.85 70.73 101.06 71.09 101.29 71.45 101.51 71.8 101.72 72.16 101.9 72.52 102.05 72.88 102.19 73.24 102.32 73.59 102.44 73.95 102.57 74.31 102.7 74.67 102.8 75.03 102.88 75.38 102.91 75.74 102.91 76.1 102.88 76.46 102.85 76.82 102.85 77.18 102.87 77.53 102.94 77.89 103.05 78.25 103.18 78.61 103.3 78.97 103.4 79.32 103.48 79.68 103.54 80.04 103.59 80.4 103.63 80.76 103.69 81.11 103.75 81.47 103.81 81.83 103.88 82.19 103.93 82.55 103.99 82.9 104.05 83.26 104.12 83.62 104.2 83.98 104.27 84.34 104.33 84.7 104.37 85.05 104.4 85.41 104.4 85.77 104.39 86.13 104.36 86.49 104.35 86.84 104.34 87.2 104.35 87.56 104.37 87.92 104.41 88.28 104.45 88.63 104.49 88.99 104.52 89.35 104.54 89.71 104.57 90.07 104.6 90.43 104.64 90.78 104.69 91.14 104.73 91.5 104.76 91.86 104.79 92.22 104.8 92.57 104.82 92.93 104.84 93.29 104.86 93.65 104.89 94.01 104.91 94.36 104.93 94.72 104.95 95.08 104.97 95.44 104.99 95.8 105.01 96.15 105.02 96.51 105.03 96.87 105.02 97.23 105.01 97.59 104.99 97.95 104.98 98.3 104.98 98.66 105 99.02 105.03 99.38 105.06 99.74 105.09 100.09 105.12 100.45 105.13 100.81 105.14 101.17 105.14 101.53 105.13 101.88 105.12 102.24 105.12 102.6 105.13 102.96 105.15 103.32 105.18 103.68 105.21 104.03 105.25 104.39 105.29 104.75 105.32 105.11 105.34 105.47 105.35 105.82 105.34 106.18 105.33 106.54 105.31 106.9 105.29 107.26 105.28 107.61 105.28 107.97 105.28 108.33 105.29 108.69 105.31 109.05 105.33 109.4 105.35 109.76 105.36 110.12 105.38 110.48 105.38 110.84 105.38 111.2 105.38 111.55 105.38 111.91 105.38 112.27 105.39 112.63 105.39 112.99 105.4 113.34 105.39 113.7 105.38 114.06 105.36 114.42 105.34 114.78 105.33 115.13 105.33 115.49 105.35 115.85 105.37 116.21 105.4 116.57 105.42 116.93 105.44 117.28 105.45 117.64 105.45 118 105.45 118.36 105.45 118.72 105.46 119.07 105.46 119.43 105.46 119.79 105.46 120.15 105.46 120.51 105.47 120.86 105.47 121.22 105.47 121.58 105.48 121.94 105.48 122.3 105.49 122.65 105.5 123.01 105.51 123.37 105.52 123.73 105.54 124.09 105.55 124.45 105.55 124.8 105.55 125.16 105.55 125.52 105.54 125.88 105.53 126.24 105.53 126.59 105.54 126.95 105.54 127.31 105.56 127.67 105.57 128.03 105.59 128.38 105.62 128.74 105.64 129.1 105.66 129.46 105.68 129.82 105.69 130.18 105.7 130.53 105.71 130.89 105.71 131.25 105.71 131.61 105.71 131.97 105.71 132.32 105.71 132.68 105.71"/>
      </g>
      <g stroke-width="0.3" fill="#000000" fill-opacity="0.000" class="geometry" stroke-dasharray="none" stroke="#00BFFF" id="img-1413cbc3-15">
        <path fill="none" d="M40.67,105.71 L 41.04 105.71 41.4 105.69 41.76 105.65 42.13 105.54 42.49 105.3 42.85 104.83 43.22 103.92 43.58 102.36 43.94 99.88 44.31 96.25 44.67 91.36 45.03 85.32 45.4 78.49 45.76 71.43 46.13 64.81 46.49 59.26 46.85 55.17 47.22 52.71 47.58 51.78 47.94 52.09 48.31 53.29 48.67 55.03 49.03 57.03 49.4 59.12 49.76 61.18 50.12 63.18 50.49 65.1 50.85 66.93 51.21 68.68 51.58 70.31 51.94 71.81 52.31 73.19 52.67 74.43 53.03 75.58 53.4 76.67 53.76 77.72 54.12 78.77 54.49 79.81 54.85 80.83 55.21 81.81 55.58 82.75 55.94 83.64 56.3 84.51 56.67 85.36 57.03 86.21 57.39 87.05 57.76 87.88 58.12 88.67 58.49 89.44 58.85 90.18 59.21 90.92 59.58 91.64 59.94 92.37 60.3 93.08 60.67 93.75 61.03 94.36 61.39 94.91 61.76 95.39 62.12 95.81 62.48 96.17 62.85 96.47 63.21 96.74 63.57 96.99 63.94 97.22 64.3 97.44 64.67 97.65 65.03 97.85 65.39 98.04 65.76 98.21 66.12 98.37 66.48 98.52 66.85 98.67 67.21 98.83 67.57 98.98 67.94 99.14 68.3 99.3 68.66 99.46 69.03 99.62 69.39 99.79 69.76 99.96 70.12 100.16 70.48 100.36 70.85 100.58 71.21 100.8 71.57 101.03 71.94 101.23 72.3 101.43 72.66 101.61 73.03 101.77 73.39 101.92 73.75 102.05 74.12 102.18 74.48 102.28 74.84 102.36 75.21 102.4 75.57 102.42 75.94 102.41 76.3 102.4 76.66 102.39 77.03 102.41 77.39 102.47 77.75 102.56 78.12 102.68 78.48 102.82 78.84 102.96 79.21 103.08 79.57 103.18 79.93 103.26 80.3 103.33 80.66 103.39 81.02 103.44 81.39 103.49 81.75 103.54 82.12 103.58 82.48 103.62 82.84 103.67 83.21 103.74 83.57 103.81 83.93 103.88 84.3 103.95 84.66 104.01 85.02 104.05 85.39 104.07 85.75 104.07 86.11 104.07 86.48 104.07 86.84 104.08 87.2 104.1 87.57 104.14 87.93 104.2 88.3 104.25 88.66 104.31 89.02 104.35 89.39 104.39 89.75 104.43 90.11 104.46 90.48 104.5 90.84 104.53 91.2 104.57 91.57 104.61 91.93 104.64 92.29 104.67 92.66 104.69 93.02 104.71 93.38 104.74 93.75 104.76 94.11 104.77 94.48 104.79 94.84 104.8 95.2 104.81 95.57 104.82 95.93 104.83 96.29 104.84 96.66 104.85 97.02 104.85 97.38 104.85 97.75 104.84 98.11 104.84 98.47 104.85 98.84 104.86 99.2 104.88 99.56 104.91 99.93 104.93 100.29 104.95 100.66 104.97 101.02 104.98 101.38 104.98 101.75 104.99 102.11 105 102.47 105.01 102.84 105.04 103.2 105.07 103.56 105.11 103.93 105.15 104.29 105.19 104.65 105.22 105.02 105.24 105.38 105.25 105.75 105.24 106.11 105.23 106.47 105.22 106.84 105.21 107.2 105.2 107.56 105.2 107.93 105.21 108.29 105.22 108.65 105.23 109.02 105.25 109.38 105.27 109.74 105.28 110.11 105.3 110.47 105.3 110.83 105.31 111.2 105.31 111.56 105.32 111.93 105.32 112.29 105.33 112.65 105.34 113.02 105.35 113.38 105.35 113.74 105.34 114.11 105.33 114.47 105.32 114.83 105.32 115.2 105.32 115.56 105.33 115.92 105.34 116.29 105.36 116.65 105.37 117.01 105.37 117.38 105.38 117.74 105.38 118.11 105.38 118.47 105.38 118.83 105.38 119.2 105.39 119.56 105.4 119.92 105.41 120.29 105.41 120.65 105.42 121.01 105.43 121.38 105.44 121.74 105.46 122.1 105.47 122.47 105.49 122.83 105.5 123.19 105.51 123.56 105.52 123.92 105.53 124.29 105.53 124.65 105.52 125.01 105.52 125.38 105.51 125.74 105.51 126.1 105.51 126.47 105.52 126.83 105.53 127.19 105.55 127.56 105.56 127.92 105.59 128.28 105.61 128.65 105.63 129.01 105.65 129.37 105.67 129.74 105.68 130.1 105.7 130.47 105.7 130.83 105.71 131.19 105.71 131.56 105.71 131.92 105.71 132.28 105.71 132.65 105.71 133.01 105.71 133.37 105.71"/>
      </g>
      <g stroke-width="0.3" fill="#000000" fill-opacity="0.000" class="geometry" stroke-dasharray="none" stroke="#00BFFF" id="img-1413cbc3-16">
        <path fill="none" d="M39.58,105.71 L 39.95 105.71 40.32 105.7 40.7 105.68 41.07 105.63 41.44 105.54 41.81 105.35 42.18 105.01 42.56 104.43 42.93 103.48 43.3 102.02 43.67 99.91 44.04 97.03 44.42 93.33 44.79 88.85 45.16 83.74 45.53 78.28 45.91 72.82 46.28 67.73 46.65 63.38 47.02 60 47.39 57.74 47.77 56.61 48.14 56.49 48.51 57.22 48.88 58.58 49.25 60.34 49.63 62.34 50 64.42 50.37 66.46 50.74 68.4 51.11 70.17 51.49 71.76 51.86 73.16 52.23 74.38 52.6 75.47 52.98 76.46 53.35 77.39 53.72 78.31 54.09 79.22 54.46 80.14 54.84 81.07 55.21 82 55.58 82.89 55.95 83.76 56.32 84.59 56.7 85.39 57.07 86.16 57.44 86.91 57.81 87.65 58.18 88.38 58.56 89.11 58.93 89.82 59.3 90.53 59.67 91.22 60.05 91.88 60.42 92.52 60.79 93.12 61.16 93.67 61.53 94.18 61.91 94.65 62.28 95.08 62.65 95.47 63.02 95.83 63.39 96.16 63.77 96.47 64.14 96.76 64.51 97.02 64.88 97.26 65.25 97.48 65.63 97.68 66 97.85 66.37 98.01 66.74 98.15 67.12 98.29 67.49 98.42 67.86 98.55 68.23 98.68 68.6 98.81 68.98 98.94 69.35 99.09 69.72 99.25 70.09 99.44 70.46 99.64 70.84 99.87 71.21 100.11 71.58 100.36 71.95 100.62 72.32 100.86 72.7 101.09 73.07 101.29 73.44 101.46 73.81 101.61 74.19 101.72 74.56 101.79 74.93 101.84 75.3 101.86 75.67 101.87 76.05 101.88 76.42 101.89 76.79 101.93 77.16 101.99 77.53 102.09 77.91 102.21 78.28 102.35 78.65 102.5 79.02 102.64 79.39 102.76 79.77 102.86 80.14 102.94 80.51 103 80.88 103.04 81.26 103.07 81.63 103.1 82 103.14 82.37 103.19 82.74 103.26 83.12 103.34 83.49 103.44 83.86 103.54 84.23 103.64 84.6 103.72 84.98 103.78 85.35 103.82 85.72 103.83 86.09 103.84 86.46 103.83 86.84 103.83 87.21 103.84 87.58 103.85 87.95 103.88 88.33 103.91 88.7 103.94 89.07 103.98 89.44 104.01 89.81 104.06 90.19 104.1 90.56 104.15 90.93 104.21 91.3 104.27 91.67 104.33 92.05 104.38 92.42 104.43 92.79 104.46 93.16 104.49 93.53 104.5 93.91 104.51 94.28 104.51 94.65 104.52 95.02 104.54 95.4 104.56 95.77 104.58 96.14 104.61 96.51 104.64 96.88 104.66 97.26 104.68 97.63 104.7 98 104.71 98.37 104.72 98.74 104.73 99.12 104.75 99.49 104.76 99.86 104.78 100.23 104.8 100.6 104.82 100.98 104.83 101.35 104.84 101.72 104.85 102.09 104.86 102.47 104.87 102.84 104.89 103.21 104.91 103.58 104.93 103.95 104.96 104.33 105 104.7 105.02 105.07 105.04 105.44 105.06 105.81 105.06 106.19 105.06 106.56 105.05 106.93 105.05 107.3 105.05 107.67 105.05 108.05 105.06 108.42 105.07 108.79 105.09 109.16 105.11 109.54 105.13 109.91 105.14 110.28 105.15 110.65 105.16 111.02 105.16 111.4 105.17 111.77 105.17 112.14 105.17 112.51 105.17 112.88 105.18 113.26 105.18 113.63 105.19 114 105.2 114.37 105.22 114.74 105.24 115.12 105.26 115.49 105.29 115.86 105.32 116.23 105.35 116.61 105.38 116.98 105.4 117.35 105.42 117.72 105.42 118.09 105.42 118.47 105.42 118.84 105.42 119.21 105.41 119.58 105.41 119.95 105.41 120.33 105.41 120.7 105.41 121.07 105.42 121.44 105.42 121.81 105.44 122.19 105.45 122.56 105.46 122.93 105.48 123.3 105.5 123.68 105.51 124.05 105.53 124.42 105.54 124.79 105.55 125.16 105.55 125.54 105.55 125.91 105.56 126.28 105.56 126.65 105.57 127.02 105.57 127.4 105.58 127.77 105.6 128.14 105.61 128.51 105.63 128.88 105.64 129.26 105.66 129.63 105.67 130 105.68 130.37 105.69 130.75 105.7 131.12 105.71 131.49 105.71 131.86 105.71 132.23 105.71 132.61 105.71 132.98 105.71 133.35 105.71 133.72 105.71 134.09 105.71 134.47 105.71"/>
      </g>
      <g stroke-width="0.3" fill="#000000" fill-opacity="0.000" class="geometry" stroke-dasharray="none" stroke="#00BFFF" id="img-1413cbc3-17">
        <path fill="none" d="M38.13,105.71 L 38.51 105.71 38.89 105.71 39.28 105.69 39.66 105.67 40.04 105.63 40.43 105.56 40.81 105.43 41.19 105.22 41.58 104.88 41.96 104.36 42.34 103.58 42.73 102.48 43.11 100.98 43.49 99.02 43.88 96.56 44.26 93.59 44.65 90.18 45.03 86.41 45.41 82.43 45.8 78.43 46.18 74.59 46.56 71.1 46.95 68.14 47.33 65.8 47.71 64.16 48.1 63.22 48.48 62.93 48.86 63.21 49.25 63.94 49.63 65.01 50.01 66.3 50.4 67.7 50.78 69.14 51.16 70.53 51.55 71.86 51.93 73.09 52.32 74.23 52.7 75.28 53.08 76.26 53.47 77.19 53.85 78.06 54.23 78.9 54.62 79.71 55 80.5 55.38 81.27 55.77 82.02 56.15 82.77 56.53 83.53 56.92 84.3 57.3 85.09 57.68 85.9 58.07 86.73 58.45 87.56 58.84 88.4 59.22 89.22 59.6 90.02 59.99 90.78 60.37 91.51 60.75 92.19 61.14 92.83 61.52 93.44 61.9 94.01 62.29 94.55 62.67 95.07 63.05 95.56 63.44 96.02 63.82 96.45 64.2 96.84 64.59 97.19 64.97 97.49 65.35 97.75 65.74 97.95 66.12 98.11 66.51 98.24 66.89 98.34 67.27 98.42 67.66 98.5 68.04 98.58 68.42 98.67 68.81 98.77 69.19 98.9 69.57 99.04 69.96 99.2 70.34 99.38 70.72 99.59 71.11 99.81 71.49 100.04 71.87 100.27 72.26 100.49 72.64 100.71 73.02 100.89 73.41 101.04 73.79 101.16 74.18 101.23 74.56 101.28 74.94 101.3 75.33 101.3 75.71 101.3 76.09 101.31 76.48 101.34 76.86 101.39 77.24 101.48 77.63 101.58 78.01 101.71 78.39 101.85 78.78 101.99 79.16 102.11 79.54 102.23 79.93 102.32 80.31 102.39 80.7 102.45 81.08 102.5 81.46 102.54 81.85 102.58 82.23 102.63 82.61 102.7 83 102.77 83.38 102.86 83.76 102.95 84.15 103.05 84.53 103.14 84.91 103.22 85.3 103.3 85.68 103.36 86.06 103.4 86.45 103.43 86.83 103.45 87.21 103.46 87.6 103.47 87.98 103.47 88.37 103.49 88.75 103.5 89.13 103.53 89.52 103.57 89.9 103.63 90.28 103.7 90.67 103.78 91.05 103.86 91.43 103.95 91.82 104.04 92.2 104.13 92.58 104.21 92.97 104.28 93.35 104.34 93.73 104.4 94.12 104.45 94.5 104.49 94.88 104.53 95.27 104.56 95.65 104.59 96.04 104.61 96.42 104.63 96.8 104.64 97.19 104.66 97.57 104.67 97.95 104.69 98.34 104.71 98.72 104.74 99.1 104.77 99.49 104.82 99.87 104.86 100.25 104.91 100.64 104.95 101.02 104.98 101.4 105.01 101.79 105.02 102.17 105.03 102.56 105.03 102.94 105.03 103.32 105.02 103.71 105.02 104.09 105.03 104.47 105.04 104.86 105.06 105.24 105.08 105.62 105.11 106.01 105.13 106.39 105.15 106.77 105.17 107.16 105.18 107.54 105.19 107.92 105.19 108.31 105.19 108.69 105.18 109.07 105.17 109.46 105.15 109.84 105.13 110.23 105.1 110.61 105.07 110.99 105.04 111.38 105.01 111.76 104.98 112.14 104.95 112.53 104.92 112.91 104.9 113.29 104.89 113.68 104.89 114.06 104.9 114.44 104.92 114.83 104.95 115.21 104.99 115.59 105.04 115.98 105.09 116.36 105.14 116.74 105.19 117.13 105.24 117.51 105.28 117.9 105.32 118.28 105.34 118.66 105.37 119.05 105.39 119.43 105.4 119.81 105.42 120.2 105.43 120.58 105.44 120.96 105.45 121.35 105.46 121.73 105.47 122.11 105.48 122.5 105.49 122.88 105.5 123.26 105.52 123.65 105.53 124.03 105.54 124.42 105.56 124.8 105.57 125.18 105.58 125.57 105.58 125.95 105.58 126.33 105.59 126.72 105.59 127.1 105.59 127.48 105.59 127.87 105.59 128.25 105.6 128.63 105.61 129.02 105.62 129.4 105.63 129.78 105.65 130.17 105.66 130.55 105.67 130.93 105.68 131.32 105.69 131.7 105.7 132.09 105.7 132.47 105.71 132.85 105.71 133.24 105.71 133.62 105.71 134 105.71 134.39 105.71 134.77 105.71 135.15 105.71 135.54 105.71 135.92 105.71"/>
      </g>
      <g stroke-width="0.3" fill="#000000" fill-opacity="0.000" class="geometry" stroke-dasharray="none" stroke="#00BFFF" id="img-1413cbc3-18">
        <path fill="none" d="M35.32,105.71 L 35.72 105.71 36.12 105.71 36.52 105.7 36.92 105.7 37.32 105.68 37.72 105.66 38.12 105.62 38.52 105.57 38.92 105.48 39.32 105.35 39.72 105.17 40.12 104.9 40.52 104.53 40.92 104.04 41.32 103.38 41.72 102.53 42.12 101.47 42.52 100.17 42.92 98.61 43.32 96.79 43.72 94.73 44.12 92.45 44.52 89.99 44.92 87.42 45.32 84.8 45.72 82.22 46.12 79.76 46.52 77.5 46.92 75.51 47.32 73.84 47.72 72.54 48.12 71.62 48.52 71.08 48.92 70.89 49.32 71.02 49.72 71.44 50.12 72.07 50.52 72.87 50.92 73.78 51.32 74.76 51.72 75.76 52.12 76.76 52.52 77.73 52.92 78.67 53.32 79.55 53.72 80.39 54.12 81.18 54.52 81.94 54.92 82.67 55.32 83.38 55.72 84.07 56.12 84.75 56.52 85.42 56.92 86.08 57.32 86.72 57.72 87.35 58.12 87.96 58.52 88.56 58.92 89.14 59.32 89.71 59.72 90.25 60.12 90.78 60.52 91.29 60.92 91.79 61.32 92.27 61.72 92.72 62.12 93.16 62.52 93.57 62.92 93.95 63.32 94.3 63.72 94.63 64.12 94.94 64.52 95.21 64.92 95.47 65.32 95.71 65.72 95.94 66.12 96.15 66.52 96.36 66.92 96.57 67.32 96.77 67.72 96.98 68.12 97.19 68.52 97.4 68.92 97.62 69.32 97.84 69.72 98.06 70.12 98.28 70.52 98.5 70.92 98.72 71.32 98.95 71.72 99.17 72.12 99.4 72.52 99.61 72.92 99.82 73.32 100.02 73.72 100.21 74.12 100.38 74.52 100.53 74.92 100.66 75.32 100.77 75.72 100.86 76.12 100.93 76.52 100.99 76.92 101.04 77.32 101.08 77.72 101.12 78.12 101.17 78.52 101.22 78.92 101.27 79.32 101.34 79.72 101.41 80.12 101.5 80.52 101.59 80.92 101.68 81.32 101.78 81.72 101.87 82.12 101.96 82.52 102.05 82.92 102.13 83.32 102.2 83.72 102.26 84.12 102.32 84.52 102.37 84.92 102.43 85.32 102.48 85.72 102.53 86.12 102.58 86.52 102.63 86.92 102.69 87.32 102.75 87.72 102.81 88.12 102.88 88.52 102.94 88.92 103.01 89.32 103.08 89.72 103.14 90.12 103.2 90.52 103.26 90.92 103.32 91.32 103.37 91.72 103.42 92.12 103.47 92.52 103.51 92.92 103.56 93.32 103.6 93.72 103.64 94.12 103.68 94.52 103.72 94.92 103.76 95.32 103.81 95.72 103.85 96.12 103.89 96.52 103.94 96.92 103.98 97.32 104.02 97.72 104.06 98.12 104.1 98.52 104.14 98.92 104.17 99.32 104.2 99.72 104.23 100.12 104.26 100.52 104.28 100.92 104.31 101.32 104.34 101.72 104.36 102.12 104.4 102.52 104.43 102.92 104.47 103.32 104.5 103.72 104.55 104.12 104.59 104.52 104.64 104.92 104.68 105.32 104.73 105.72 104.77 106.12 104.81 106.52 104.85 106.92 104.88 107.32 104.91 107.72 104.93 108.12 104.94 108.52 104.95 108.92 104.94 109.32 104.94 109.72 104.93 110.12 104.91 110.52 104.9 110.92 104.89 111.32 104.89 111.72 104.88 112.12 104.89 112.52 104.9 112.92 104.91 113.32 104.93 113.72 104.95 114.12 104.98 114.52 105 114.91 105.03 115.31 105.05 115.71 105.06 116.11 105.07 116.51 105.08 116.91 105.08 117.31 105.07 117.71 105.06 118.11 105.04 118.51 105.03 118.91 105.01 119.31 104.99 119.71 104.97 120.11 104.96 120.51 104.95 120.91 104.95 121.31 104.95 121.71 104.97 122.11 104.99 122.51 105.02 122.91 105.06 123.31 105.11 123.71 105.15 124.11 105.2 124.51 105.25 124.91 105.3 125.31 105.35 125.71 105.39 126.11 105.44 126.51 105.47 126.91 105.51 127.31 105.54 127.71 105.56 128.11 105.59 128.51 105.61 128.91 105.63 129.31 105.64 129.71 105.66 130.11 105.67 130.51 105.68 130.91 105.69 131.31 105.69 131.71 105.7 132.11 105.7 132.51 105.71 132.91 105.71 133.31 105.71 133.71 105.71 134.11 105.71 134.51 105.71 134.91 105.71 135.31 105.71 135.71 105.71 136.11 105.71 136.51 105.71 136.91 105.71 137.31 105.71"/>
      </g>
    </g>
  </g>
</g>
  <g class="guide ylabels" font-size="2.82" font-family="'PT Sans Caption','Helvetica Neue','Helvetica',sans-serif" fill="#6C606B" id="img-1413cbc3-19">
    <text x="9.35" y="105.71" text-anchor="end" dy="0.35em">0</text>
    <text x="9.35" y="85.97" text-anchor="end" dy="0.35em">5</text>
    <text x="9.35" y="66.23" text-anchor="end" dy="0.35em">10</text>
    <text x="9.35" y="46.49" text-anchor="end" dy="0.35em">15</text>
    <text x="9.35" y="26.74" text-anchor="end" dy="0.35em">20</text>
    <text x="9.35" y="7" text-anchor="end" dy="0.35em">25</text>
  </g>
</g>
<defs>
  <clipPath id="img-1413cbc3-4">
  <path d="M10.35,5 L 147.4 5 147.4 107.72 10.35 107.72" />
</clipPath>
</defs>
</svg>
