<?xml version="1.0" encoding="UTF-8"?>
<svg xmlns="http://www.w3.org/2000/svg"
     xmlns:xlink="http://www.w3.org/1999/xlink"
     xmlns:gadfly="http://www.gadflyjl.org/ns"
     version="1.2"
     width="152.4mm" height="127mm" viewBox="0 0 152.4 127"
     stroke="none"
     fill="#000000"
     stroke-width="0.3"
     font-size="3.88"
>
<g class="plotroot xscalable yscalable" id="img-abc8bba9-1">
  <g font-size="3.88" font-family="'PT Sans','Helvetica Neue','Helvetica',sans-serif" fill="#564A55" stroke="#000000" stroke-opacity="0.000" id="img-abc8bba9-2">
    <text x="78.87" y="115.39" text-anchor="middle" dy="0.6em">x</text>
  </g>
  <g class="guide xlabels" font-size="2.82" font-family="'PT Sans Caption','Helvetica Neue','Helvetica',sans-serif" fill="#6C606B" id="img-abc8bba9-3">
    <text x="12.35" y="108.71" text-anchor="middle" dy="0.6em">-0.5</text>
    <text x="45.61" y="108.71" text-anchor="middle" dy="0.6em">0.0</text>
    <text x="78.87" y="108.71" text-anchor="middle" dy="0.6em">0.5</text>
    <text x="112.14" y="108.71" text-anchor="middle" dy="0.6em">1.0</text>
    <text x="145.4" y="108.71" text-anchor="middle" dy="0.6em">1.5</text>
  </g>
<g clip-path="url(#img-abc8bba9-4)">
  <g id="img-abc8bba9-5">
    <g pointer-events="visible" opacity="1" fill="#000000" fill-opacity="0.000" stroke="#000000" stroke-opacity="0.000" class="guide background" id="img-abc8bba9-6">
      <rect x="10.35" y="5" width="137.05" height="102.71"/>
    </g>
    <g class="guide ygridlines xfixed" stroke-dasharray="0.5,0.5" stroke-width="0.2" stroke="#D0D0E0" id="img-abc8bba9-7">
      <path fill="none" d="M10.35,105.71 L 147.4 105.71"/>
      <path fill="none" d="M10.35,56.36 L 147.4 56.36"/>
      <path fill="none" d="M10.35,7 L 147.4 7"/>
    </g>
    <g class="guide xgridlines yfixed" stroke-dasharray="0.5,0.5" stroke-width="0.2" stroke="#D0D0E0" id="img-abc8bba9-8">
      <path fill="none" d="M12.35,5 L 12.35 107.71"/>
      <path fill="none" d="M45.61,5 L 45.61 107.71"/>
      <path fill="none" d="M78.87,5 L 78.87 107.71"/>
      <path fill="none" d="M112.14,5 L 112.14 107.71"/>
      <path fill="none" d="M145.4,5 L 145.4 107.71"/>
    </g>
    <g class="plotpanel" id="img-abc8bba9-9">
      <g stroke-width="0.3" fill="#000000" fill-opacity="0.000" class="geometry" stroke-dasharray="none" stroke="#00BFFF" id="img-abc8bba9-10">
        <path fill="none" d="M38.4,105.71 L 38.72 105.71 39.04 105.71 39.36 105.7 39.67 105.69 39.99 105.68 40.31 105.64 40.63 105.59 40.94 105.51 41.26 105.38 41.58 105.19 41.9 104.91 42.21 104.5 42.53 103.94 42.85 103.19 43.17 102.21 43.48 100.98 43.8 99.48 44.12 97.7 44.44 95.66 44.75 93.39 45.07 90.94 45.39 88.4 45.7 85.83 46.02 83.33 46.34 80.99 46.66 78.86 46.97 77.02 47.29 75.48 47.61 74.28 47.93 73.41 48.24 72.83 48.56 72.53 48.88 72.46 49.2 72.58 49.51 72.86 49.83 73.25 50.15 73.74 50.47 74.29 50.78 74.88 51.1 75.51 51.42 76.15 51.74 76.79 52.05 77.43 52.37 78.06 52.69 78.66 53 79.24 53.32 79.78 53.64 80.3 53.96 80.8 54.27 81.27 54.59 81.72 54.91 82.17 55.23 82.6 55.54 83.04 55.86 83.48 56.18 83.92 56.5 84.36 56.81 84.8 57.13 85.24 57.45 85.69 57.77 86.13 58.08 86.57 58.4 87.01 58.72 87.45 59.04 87.89 59.35 88.31 59.67 88.72 59.99 89.12 60.31 89.49 60.62 89.84 60.94 90.17 61.26 90.48 61.57 90.77 61.89 91.04 62.21 91.31 62.53 91.57 62.84 91.83 63.16 92.09 63.48 92.34 63.8 92.6 64.11 92.84 64.43 93.08 64.75 93.31 65.07 93.53 65.38 93.74 65.7 93.93 66.02 94.12 66.34 94.3 66.65 94.48 66.97 94.66 67.29 94.84 67.61 95.03 67.92 95.22 68.24 95.43 68.56 95.63 68.88 95.84 69.19 96.05 69.51 96.25 69.83 96.46 70.14 96.66 70.46 96.86 70.78 97.05 71.1 97.24 71.41 97.43 71.73 97.62 72.05 97.8 72.37 97.98 72.68 98.16 73 98.33 73.32 98.51 73.64 98.68 73.95 98.84 74.27 99 74.59 99.15 74.91 99.3 75.22 99.45 75.54 99.59 75.86 99.72 76.18 99.85 76.49 99.97 76.81 100.09 77.13 100.2 77.45 100.31 77.76 100.41 78.08 100.51 78.4 100.6 78.71 100.68 79.03 100.76 79.35 100.83 79.67 100.9 79.98 100.97 80.3 101.04 80.62 101.12 80.94 101.2 81.25 101.3 81.57 101.39 81.89 101.5 82.21 101.6 82.52 101.71 82.84 101.82 83.16 101.92 83.48 102.02 83.79 102.12 84.11 102.2 84.43 102.28 84.75 102.35 85.06 102.42 85.38 102.48 85.7 102.53 86.01 102.58 86.33 102.62 86.65 102.67 86.97 102.71 87.28 102.75 87.6 102.79 87.92 102.84 88.24 102.89 88.55 102.93 88.87 102.98 89.19 103.04 89.51 103.09 89.82 103.14 90.14 103.2 90.46 103.25 90.78 103.31 91.09 103.36 91.41 103.41 91.73 103.46 92.05 103.5 92.36 103.54 92.68 103.57 93 103.6 93.32 103.63 93.63 103.65 93.95 103.67 94.27 103.69 94.58 103.71 94.9 103.74 95.22 103.76 95.54 103.79 95.85 103.81 96.17 103.84 96.49 103.87 96.81 103.9 97.12 103.93 97.44 103.95 97.76 103.98 98.08 104 98.39 104.02 98.71 104.04 99.03 104.05 99.35 104.07 99.66 104.08 99.98 104.1 100.3 104.11 100.62 104.13 100.93 104.15 101.25 104.17 101.57 104.2 101.89 104.23 102.2 104.26 102.52 104.29 102.84 104.33 103.15 104.36 103.47 104.39 103.79 104.42 104.11 104.44 104.42 104.46 104.74 104.47 105.06 104.48 105.38 104.48 105.69 104.48 106.01 104.48 106.33 104.48 106.65 104.47 106.96 104.47 107.28 104.47 107.6 104.48 107.92 104.49 108.23 104.5 108.55 104.53 108.87 104.56 109.19 104.59 109.5 104.64 109.82 104.69 110.14 104.76 110.45 104.82 110.77 104.9 111.09 104.98 111.41 105.06 111.72 105.14 112.04 105.22 112.36 105.3 112.68 105.37 112.99 105.43 113.31 105.49 113.63 105.54 113.95 105.58 114.26 105.62 114.58 105.64 114.9 105.66 115.22 105.68 115.53 105.69 115.85 105.7 116.17 105.7 116.49 105.71 116.8 105.71 117.12 105.71 117.44 105.71 117.76 105.71 118.07 105.71 118.39 105.71 118.71 105.71 119.02 105.71 119.34 105.71"/>
      </g>
      <g stroke-width="0.3" fill="#000000" fill-opacity="0.000" class="geometry" stroke-dasharray="none" stroke="#00BFFF" id="img-abc8bba9-11">
        <path fill="none" d="M38.01,105.71 L 38.33 105.71 38.65 105.71 38.98 105.7 39.3 105.69 39.62 105.68 39.94 105.65 40.26 105.6 40.58 105.52 40.9 105.4 41.22 105.22 41.54 104.96 41.86 104.58 42.18 104.07 42.5 103.37 42.82 102.47 43.14 101.31 43.46 99.89 43.78 98.19 44.1 96.22 44.42 93.98 44.74 91.53 45.06 88.93 45.38 86.25 45.7 83.57 46.03 80.98 46.35 78.57 46.67 76.41 46.99 74.54 47.31 73.01 47.63 71.82 47.95 70.98 48.27 70.46 48.59 70.22 48.91 70.24 49.23 70.45 49.55 70.83 49.87 71.33 50.19 71.92 50.51 72.58 50.83 73.28 51.15 73.99 51.47 74.72 51.79 75.44 52.11 76.14 52.43 76.83 52.76 77.48 53.08 78.12 53.4 78.72 53.72 79.31 54.04 79.88 54.36 80.44 54.68 81 55 81.56 55.32 82.12 55.64 82.69 55.96 83.27 56.28 83.85 56.6 84.44 56.92 85.03 57.24 85.61 57.56 86.18 57.88 86.74 58.2 87.28 58.52 87.8 58.84 88.29 59.16 88.76 59.49 89.2 59.81 89.62 60.13 90.01 60.45 90.38 60.77 90.73 61.09 91.07 61.41 91.4 61.73 91.72 62.05 92.03 62.37 92.34 62.69 92.64 63.01 92.94 63.33 93.22 63.65 93.49 63.97 93.73 64.29 93.95 64.61 94.15 64.93 94.33 65.25 94.49 65.57 94.64 65.89 94.78 66.21 94.91 66.54 95.05 66.86 95.2 67.18 95.35 67.5 95.52 67.82 95.7 68.14 95.89 68.46 96.08 68.78 96.28 69.1 96.48 69.42 96.68 69.74 96.88 70.06 97.08 70.38 97.28 70.7 97.49 71.02 97.69 71.34 97.9 71.66 98.1 71.98 98.31 72.3 98.51 72.62 98.72 72.94 98.92 73.27 99.12 73.59 99.31 73.91 99.49 74.23 99.66 74.55 99.83 74.87 99.98 75.19 100.12 75.51 100.24 75.83 100.36 76.15 100.46 76.47 100.55 76.79 100.64 77.11 100.71 77.43 100.78 77.75 100.84 78.07 100.89 78.39 100.94 78.71 100.99 79.03 101.05 79.35 101.1 79.67 101.16 79.99 101.23 80.32 101.31 80.64 101.39 80.96 101.49 81.28 101.6 81.6 101.71 81.92 101.83 82.24 101.95 82.56 102.07 82.88 102.2 83.2 102.32 83.52 102.45 83.84 102.57 84.16 102.69 84.48 102.8 84.8 102.9 85.12 103 85.44 103.09 85.76 103.17 86.08 103.23 86.4 103.29 86.72 103.34 87.05 103.37 87.37 103.4 87.69 103.42 88.01 103.43 88.33 103.43 88.65 103.44 88.97 103.44 89.29 103.44 89.61 103.45 89.93 103.45 90.25 103.46 90.57 103.48 90.89 103.5 91.21 103.52 91.53 103.55 91.85 103.58 92.17 103.62 92.49 103.66 92.81 103.7 93.13 103.74 93.45 103.78 93.78 103.81 94.1 103.85 94.42 103.88 94.74 103.91 95.06 103.94 95.38 103.96 95.7 103.98 96.02 104 96.34 104.02 96.66 104.03 96.98 104.04 97.3 104.05 97.62 104.06 97.94 104.07 98.26 104.07 98.58 104.08 98.9 104.08 99.22 104.09 99.54 104.1 99.86 104.12 100.18 104.14 100.5 104.16 100.83 104.2 101.15 104.24 101.47 104.29 101.79 104.34 102.11 104.39 102.43 104.45 102.75 104.51 103.07 104.56 103.39 104.61 103.71 104.66 104.03 104.69 104.35 104.72 104.67 104.75 104.99 104.76 105.31 104.77 105.63 104.77 105.95 104.77 106.27 104.76 106.59 104.75 106.91 104.74 107.23 104.74 107.56 104.74 107.88 104.74 108.2 104.75 108.52 104.77 108.84 104.8 109.16 104.83 109.48 104.87 109.8 104.92 110.12 104.97 110.44 105.03 110.76 105.09 111.08 105.15 111.4 105.21 111.72 105.27 112.04 105.33 112.36 105.39 112.68 105.44 113 105.49 113.32 105.53 113.64 105.57 113.96 105.6 114.28 105.63 114.61 105.65 114.93 105.67 115.25 105.68 115.57 105.69 115.89 105.7 116.21 105.7 116.53 105.71 116.85 105.71 117.17 105.71 117.49 105.71 117.81 105.71 118.13 105.71 118.45 105.71 118.77 105.71 119.09 105.71 119.41 105.71 119.73 105.71"/>
      </g>
      <g stroke-width="0.3" fill="#000000" fill-opacity="0.000" class="geometry" stroke-dasharray="none" stroke="#00BFFF" id="img-abc8bba9-12">
        <path fill="none" d="M37.78,105.71 L 38.1 105.71 38.43 105.71 38.75 105.7 39.07 105.69 39.39 105.67 39.71 105.64 40.04 105.6 40.36 105.52 40.68 105.4 41 105.22 41.33 104.96 41.65 104.59 41.97 104.08 42.29 103.4 42.61 102.5 42.94 101.35 43.26 99.92 43.58 98.2 43.9 96.19 44.23 93.89 44.55 91.34 44.87 88.6 45.19 85.75 45.52 82.86 45.84 80.03 46.16 77.36 46.48 74.92 46.8 72.79 47.13 71.02 47.45 69.63 47.77 68.63 48.09 68 48.42 67.71 48.74 67.71 49.06 67.97 49.38 68.41 49.71 69.01 50.03 69.71 50.35 70.47 50.67 71.26 50.99 72.06 51.32 72.85 51.64 73.61 51.96 74.34 52.28 75.03 52.61 75.69 52.93 76.32 53.25 76.93 53.57 77.51 53.9 78.1 54.22 78.68 54.54 79.28 54.86 79.88 55.18 80.51 55.51 81.15 55.83 81.81 56.15 82.49 56.47 83.18 56.8 83.87 57.12 84.57 57.44 85.27 57.76 85.95 58.09 86.63 58.41 87.29 58.73 87.93 59.05 88.54 59.37 89.12 59.7 89.67 60.02 90.18 60.34 90.66 60.66 91.11 60.99 91.52 61.31 91.91 61.63 92.27 61.95 92.61 62.28 92.93 62.6 93.23 62.92 93.5 63.24 93.76 63.56 94 63.89 94.21 64.21 94.41 64.53 94.59 64.85 94.76 65.18 94.92 65.5 95.08 65.82 95.24 66.14 95.41 66.46 95.58 66.79 95.77 67.11 95.96 67.43 96.15 67.75 96.34 68.08 96.54 68.4 96.72 68.72 96.9 69.04 97.07 69.37 97.24 69.69 97.4 70.01 97.55 70.33 97.71 70.65 97.87 70.98 98.04 71.3 98.22 71.62 98.4 71.94 98.59 72.27 98.8 72.59 99.01 72.91 99.23 73.23 99.45 73.56 99.66 73.88 99.88 74.2 100.09 74.52 100.28 74.84 100.47 75.17 100.64 75.49 100.79 75.81 100.93 76.13 101.05 76.46 101.16 76.78 101.26 77.1 101.34 77.42 101.41 77.75 101.48 78.07 101.53 78.39 101.58 78.71 101.63 79.03 101.68 79.36 101.72 79.68 101.77 80 101.82 80.32 101.87 80.65 101.94 80.97 102.01 81.29 102.09 81.61 102.19 81.94 102.29 82.26 102.4 82.58 102.52 82.9 102.65 83.22 102.78 83.55 102.92 83.87 103.05 84.19 103.19 84.51 103.32 84.84 103.44 85.16 103.55 85.48 103.65 85.8 103.74 86.13 103.82 86.45 103.88 86.77 103.93 87.09 103.97 87.41 104 87.74 104.02 88.06 104.03 88.38 104.04 88.7 104.04 89.03 104.05 89.35 104.05 89.67 104.06 89.99 104.06 90.31 104.08 90.64 104.09 90.96 104.12 91.28 104.14 91.6 104.18 91.93 104.21 92.25 104.25 92.57 104.3 92.89 104.35 93.22 104.4 93.54 104.45 93.86 104.5 94.18 104.55 94.5 104.59 94.83 104.63 95.15 104.67 95.47 104.7 95.79 104.73 96.12 104.74 96.44 104.75 96.76 104.76 97.08 104.75 97.41 104.75 97.73 104.74 98.05 104.73 98.37 104.72 98.69 104.72 99.02 104.73 99.34 104.74 99.66 104.76 99.98 104.78 100.31 104.81 100.63 104.85 100.95 104.89 101.27 104.93 101.6 104.97 101.92 105.01 102.24 105.04 102.56 105.07 102.88 105.1 103.21 105.12 103.53 105.13 103.85 105.14 104.17 105.14 104.5 105.14 104.82 105.13 105.14 105.12 105.46 105.1 105.79 105.09 106.11 105.07 106.43 105.05 106.75 105.03 107.07 105.01 107.4 105 107.72 104.99 108.04 104.99 108.36 104.99 108.69 105 109.01 105.01 109.33 105.03 109.65 105.06 109.97 105.08 110.3 105.11 110.62 105.15 110.94 105.18 111.26 105.22 111.59 105.27 111.91 105.31 112.23 105.35 112.55 105.39 112.88 105.44 113.2 105.48 113.52 105.52 113.84 105.55 114.16 105.59 114.49 105.61 114.81 105.64 115.13 105.66 115.45 105.67 115.78 105.68 116.1 105.69 116.42 105.7 116.74 105.71 117.07 105.71 117.39 105.71 117.71 105.71 118.03 105.71 118.35 105.71 118.68 105.71 119 105.71 119.32 105.71 119.64 105.71 119.97 105.71"/>
      </g>
      <g stroke-width="0.3" fill="#000000" fill-opacity="0.000" class="geometry" stroke-dasharray="none" stroke="#00BFFF" id="img-abc8bba9-13">
        <path fill="none" d="M42.88,105.71 L 43.16 105.69 43.44 105.61 43.72 105.33 44.01 104.52 44.29 102.54 44.57 98.39 44.85 90.99 45.13 79.75 45.41 65.28 45.69 49.57 45.97 35.34 46.26 24.91 46.54 19.2 46.82 17.68 47.1 19.05 47.38 22.03 47.66 25.78 47.94 29.92 48.22 34.28 48.51 38.69 48.79 43.01 49.07 47.05 49.35 50.72 49.63 53.95 49.91 56.77 50.19 59.27 50.47 61.55 50.76 63.71 51.04 65.78 51.32 67.77 51.6 69.62 51.88 71.27 52.16 72.73 52.44 74.07 52.72 75.4 53.01 76.82 53.29 78.28 53.57 79.7 53.85 80.96 54.13 82.02 54.41 82.93 54.69 83.79 54.97 84.67 55.26 85.58 55.54 86.51 55.82 87.41 56.1 88.25 56.38 89.01 56.66 89.7 56.94 90.33 57.22 90.94 57.51 91.55 57.79 92.18 58.07 92.79 58.35 93.38 58.63 93.94 58.91 94.47 59.19 94.98 59.47 95.45 59.76 95.87 60.04 96.22 60.32 96.52 60.6 96.8 60.88 97.09 61.16 97.42 61.44 97.77 61.72 98.13 62.01 98.44 62.29 98.7 62.57 98.89 62.85 99.05 63.13 99.22 63.41 99.42 63.69 99.68 63.97 99.98 64.26 100.29 64.54 100.59 64.82 100.89 65.1 101.19 65.38 101.48 65.66 101.73 65.94 101.92 66.22 102.02 66.51 102.06 66.79 102.08 67.07 102.1 67.35 102.12 67.63 102.15 67.91 102.17 68.19 102.22 68.47 102.29 68.76 102.38 69.04 102.49 69.32 102.59 69.6 102.68 69.88 102.75 70.16 102.78 70.44 102.79 70.72 102.79 71.01 102.82 71.29 102.89 71.57 103.02 71.85 103.18 72.13 103.35 72.41 103.52 72.69 103.66 72.97 103.77 73.26 103.86 73.54 103.92 73.82 103.97 74.1 104.02 74.38 104.07 74.66 104.13 74.94 104.19 75.22 104.24 75.51 104.27 75.79 104.3 76.07 104.33 76.35 104.36 76.63 104.38 76.91 104.41 77.19 104.45 77.47 104.49 77.76 104.53 78.04 104.55 78.32 104.56 78.6 104.56 78.88 104.55 79.16 104.54 79.44 104.53 79.72 104.54 80.01 104.56 80.29 104.61 80.57 104.66 80.85 104.71 81.13 104.75 81.41 104.78 81.69 104.79 81.97 104.81 82.26 104.83 82.54 104.85 82.82 104.88 83.1 104.91 83.38 104.93 83.66 104.93 83.94 104.92 84.22 104.92 84.51 104.92 84.79 104.93 85.07 104.96 85.35 104.99 85.63 105.01 85.91 105.01 86.19 105.01 86.47 105.01 86.76 105.02 87.04 105.02 87.32 105.01 87.6 105 87.88 104.98 88.16 104.98 88.44 105.02 88.73 105.1 89.01 105.2 89.29 105.32 89.57 105.42 89.85 105.48 90.13 105.51 90.41 105.5 90.69 105.47 90.98 105.43 91.26 105.41 91.54 105.41 91.82 105.43 92.1 105.46 92.38 105.48 92.66 105.49 92.94 105.47 93.23 105.44 93.51 105.4 93.79 105.36 94.07 105.33 94.35 105.32 94.63 105.32 94.91 105.34 95.19 105.36 95.48 105.39 95.76 105.41 96.04 105.44 96.32 105.46 96.6 105.48 96.88 105.49 97.16 105.5 97.44 105.52 97.73 105.54 98.01 105.56 98.29 105.57 98.57 105.57 98.85 105.56 99.13 105.54 99.41 105.52 99.69 105.5 99.98 105.49 100.26 105.48 100.54 105.47 100.82 105.46 101.1 105.46 101.38 105.45 101.66 105.46 101.94 105.45 102.23 105.44 102.51 105.43 102.79 105.41 103.07 105.4 103.35 105.4 103.63 105.42 103.91 105.44 104.19 105.45 104.48 105.45 104.76 105.43 105.04 105.42 105.32 105.4 105.6 105.4 105.88 105.41 106.16 105.43 106.44 105.46 106.73 105.48 107.01 105.5 107.29 105.51 107.57 105.52 107.85 105.53 108.13 105.53 108.41 105.52 108.69 105.5 108.98 105.48 109.26 105.46 109.54 105.44 109.82 105.45 110.1 105.47 110.38 105.51 110.66 105.55 110.94 105.59 111.23 105.62 111.51 105.64 111.79 105.66 112.07 105.67 112.35 105.68 112.63 105.69 112.91 105.7 113.19 105.71 113.48 105.71 113.76 105.71 114.04 105.71 114.32 105.71 114.6 105.71"/>
      </g>
      <g stroke-width="0.3" fill="#000000" fill-opacity="0.000" class="geometry" stroke-dasharray="none" stroke="#00BFFF" id="img-abc8bba9-14">
        <path fill="none" d="M42.61,105.71 L 42.89 105.69 43.17 105.63 43.46 105.45 43.74 104.93 44.02 103.7 44.31 101.1 44.59 96.33 44.87 88.67 45.16 77.98 45.44 65.03 45.72 51.46 46.01 39.33 46.29 30.29 46.57 25.03 46.86 23.25 47.14 24.05 47.43 26.43 47.71 29.65 47.99 33.27 48.28 37.08 48.56 40.94 48.84 44.75 49.13 48.39 49.41 51.77 49.69 54.83 49.98 57.59 50.26 60.08 50.54 62.36 50.83 64.49 51.11 66.49 51.39 68.36 51.68 70.05 51.96 71.55 52.24 72.88 52.53 74.14 52.81 75.42 53.09 76.77 53.38 78.17 53.66 79.52 53.94 80.75 54.23 81.82 54.51 82.78 54.79 83.7 55.08 84.62 55.36 85.57 55.64 86.53 55.93 87.46 56.21 88.31 56.49 89.06 56.78 89.71 57.06 90.3 57.34 90.87 57.63 91.43 57.91 92 58.19 92.56 58.48 93.1 58.76 93.61 59.04 94.1 59.33 94.55 59.61 94.97 59.89 95.35 60.18 95.67 60.46 95.96 60.74 96.25 61.03 96.55 61.31 96.89 61.59 97.25 61.88 97.61 62.16 97.94 62.45 98.23 62.73 98.47 63.01 98.69 63.3 98.92 63.58 99.18 63.86 99.46 64.15 99.76 64.43 100.05 64.71 100.34 65 100.63 65.28 100.91 65.56 101.17 65.85 101.37 66.13 101.51 66.41 101.58 66.7 101.62 66.98 101.66 67.26 101.7 67.55 101.75 67.83 101.8 68.11 101.87 68.4 101.96 68.68 102.07 68.96 102.19 69.25 102.3 69.53 102.39 69.81 102.45 70.1 102.48 70.38 102.47 70.66 102.47 70.95 102.49 71.23 102.55 71.51 102.68 71.8 102.87 72.08 103.08 72.36 103.29 72.65 103.48 72.93 103.61 73.21 103.7 73.5 103.75 73.78 103.78 74.06 103.82 74.35 103.87 74.63 103.92 74.91 103.98 75.2 104.02 75.48 104.06 75.76 104.08 76.05 104.1 76.33 104.11 76.61 104.13 76.9 104.15 77.18 104.19 77.47 104.24 77.75 104.28 78.03 104.31 78.32 104.33 78.6 104.35 78.88 104.35 79.17 104.35 79.45 104.36 79.73 104.38 80.02 104.42 80.3 104.47 80.58 104.52 80.87 104.58 81.15 104.61 81.43 104.64 81.72 104.66 82 104.67 82.28 104.69 82.57 104.72 82.85 104.75 83.13 104.78 83.42 104.81 83.7 104.82 83.98 104.82 84.27 104.81 84.55 104.81 84.83 104.83 85.12 104.84 85.4 104.86 85.68 104.87 85.97 104.88 86.25 104.88 86.53 104.89 86.82 104.9 87.1 104.91 87.38 104.91 87.67 104.9 87.95 104.9 88.23 104.92 88.52 104.97 88.8 105.06 89.08 105.17 89.37 105.29 89.65 105.38 89.93 105.44 90.22 105.46 90.5 105.46 90.78 105.44 91.07 105.43 91.35 105.42 91.63 105.43 91.92 105.45 92.2 105.47 92.49 105.47 92.77 105.45 93.05 105.41 93.34 105.37 93.62 105.32 93.9 105.29 94.19 105.27 94.47 105.27 94.75 105.28 95.04 105.3 95.32 105.32 95.6 105.34 95.89 105.37 96.17 105.39 96.45 105.41 96.74 105.43 97.02 105.45 97.3 105.47 97.59 105.49 97.87 105.51 98.15 105.53 98.44 105.54 98.72 105.53 99 105.52 99.29 105.5 99.57 105.48 99.85 105.47 100.14 105.46 100.42 105.44 100.7 105.43 100.99 105.42 101.27 105.42 101.55 105.41 101.84 105.41 102.12 105.41 102.4 105.4 102.69 105.38 102.97 105.38 103.25 105.38 103.54 105.39 103.82 105.4 104.1 105.41 104.39 105.41 104.67 105.4 104.95 105.38 105.24 105.37 105.52 105.37 105.8 105.38 106.09 105.4 106.37 105.43 106.66 105.46 106.94 105.49 107.22 105.51 107.51 105.52 107.79 105.53 108.07 105.52 108.36 105.51 108.64 105.49 108.92 105.46 109.21 105.44 109.49 105.42 109.77 105.42 110.06 105.43 110.34 105.47 110.62 105.51 110.91 105.56 111.19 105.59 111.47 105.62 111.76 105.64 112.04 105.66 112.32 105.67 112.61 105.69 112.89 105.7 113.17 105.71 113.46 105.71 113.74 105.71 114.02 105.71 114.31 105.71 114.59 105.71 114.87 105.71"/>
      </g>
      <g stroke-width="0.3" fill="#000000" fill-opacity="0.000" class="geometry" stroke-dasharray="none" stroke="#00BFFF" id="img-abc8bba9-15">
        <path fill="none" d="M42.2,105.71 L 42.49 105.7 42.78 105.66 43.06 105.54 43.35 105.25 43.63 104.56 43.92 103.14 44.21 100.48 44.49 96.04 44.78 89.37 45.07 80.44 45.35 69.77 45.64 58.44 45.93 47.85 46.21 39.28 46.5 33.49 46.79 30.59 47.07 30.15 47.36 31.48 47.65 33.9 47.93 36.88 48.22 40.11 48.51 43.39 48.79 46.62 49.08 49.71 49.37 52.61 49.65 55.27 49.94 57.7 50.23 59.93 50.51 62.01 50.8 63.99 51.09 65.87 51.37 67.67 51.66 69.36 51.95 70.92 52.23 72.37 52.52 73.76 52.81 75.14 53.09 76.54 53.38 77.93 53.67 79.26 53.95 80.48 54.24 81.54 54.52 82.49 54.81 83.36 55.1 84.21 55.38 85.07 55.67 85.95 55.96 86.8 56.24 87.61 56.53 88.35 56.82 89.02 57.1 89.62 57.39 90.18 57.68 90.74 57.96 91.29 58.25 91.85 58.54 92.42 58.82 92.98 59.11 93.51 59.4 94.01 59.68 94.47 59.97 94.87 60.26 95.24 60.54 95.57 60.83 95.89 61.12 96.19 61.4 96.49 61.69 96.78 61.98 97.05 62.26 97.3 62.55 97.53 62.84 97.77 63.12 98.02 63.41 98.31 63.7 98.63 63.98 98.97 64.27 99.32 64.55 99.66 64.84 99.98 65.13 100.27 65.41 100.54 65.7 100.76 65.99 100.94 66.27 101.08 66.56 101.18 66.85 101.26 67.13 101.32 67.42 101.39 67.71 101.45 67.99 101.51 68.28 101.58 68.57 101.66 68.85 101.75 69.14 101.85 69.43 101.93 69.71 101.99 70 102.02 70.29 102.04 70.57 102.07 70.86 102.13 71.15 102.22 71.43 102.38 71.72 102.57 72.01 102.79 72.29 103 72.58 103.18 72.87 103.31 73.15 103.39 73.44 103.45 73.73 103.48 74.01 103.52 74.3 103.56 74.59 103.62 74.87 103.68 75.16 103.73 75.44 103.77 75.73 103.81 76.02 103.84 76.3 103.87 76.59 103.9 76.88 103.93 77.16 103.97 77.45 104 77.74 104.03 78.02 104.06 78.31 104.08 78.6 104.09 78.88 104.1 79.17 104.1 79.46 104.12 79.74 104.14 80.03 104.18 80.32 104.24 80.6 104.3 80.89 104.36 81.18 104.41 81.46 104.44 81.75 104.46 82.04 104.47 82.32 104.48 82.61 104.5 82.9 104.52 83.18 104.55 83.47 104.57 83.76 104.6 84.04 104.62 84.33 104.64 84.62 104.66 84.9 104.69 85.19 104.72 85.47 104.75 85.76 104.77 86.05 104.78 86.33 104.79 86.62 104.8 86.91 104.79 87.19 104.78 87.48 104.77 87.77 104.75 88.05 104.76 88.34 104.79 88.63 104.86 88.91 104.97 89.2 105.09 89.49 105.21 89.77 105.31 90.06 105.37 90.35 105.4 90.63 105.41 90.92 105.41 91.21 105.41 91.49 105.42 91.78 105.43 92.07 105.44 92.35 105.43 92.64 105.41 92.93 105.37 93.21 105.33 93.5 105.28 93.79 105.24 94.07 105.21 94.36 105.2 94.65 105.21 94.93 105.23 95.22 105.25 95.51 105.27 95.79 105.3 96.08 105.32 96.36 105.33 96.65 105.35 96.94 105.37 97.22 105.4 97.51 105.42 97.8 105.45 98.08 105.47 98.37 105.48 98.66 105.48 98.94 105.48 99.23 105.46 99.52 105.45 99.8 105.43 100.09 105.41 100.38 105.4 100.66 105.38 100.95 105.36 101.24 105.34 101.52 105.33 101.81 105.33 102.1 105.32 102.38 105.31 102.67 105.3 102.96 105.29 103.24 105.29 103.53 105.3 103.82 105.31 104.1 105.31 104.39 105.31 104.68 105.3 104.96 105.29 105.25 105.29 105.54 105.29 105.82 105.3 106.11 105.33 106.39 105.36 106.68 105.39 106.97 105.42 107.25 105.45 107.54 105.46 107.83 105.46 108.11 105.46 108.4 105.44 108.69 105.42 108.97 105.39 109.26 105.37 109.55 105.35 109.83 105.36 110.12 105.38 110.41 105.42 110.69 105.47 110.98 105.52 111.27 105.56 111.55 105.6 111.84 105.62 112.13 105.65 112.41 105.67 112.7 105.68 112.99 105.69 113.27 105.7 113.56 105.71 113.85 105.71 114.13 105.71 114.42 105.71 114.71 105.71 114.99 105.71 115.28 105.71"/>
      </g>
      <g stroke-width="0.3" fill="#000000" fill-opacity="0.000" class="geometry" stroke-dasharray="none" stroke="#00BFFF" id="img-abc8bba9-16">
        <path fill="none" d="M41.67,105.71 L 41.96 105.7 42.25 105.68 42.54 105.61 42.83 105.46 43.12 105.12 43.41 104.43 43.7 103.15 43.99 100.97 44.29 97.54 44.58 92.59 44.87 86.06 45.16 78.17 45.45 69.44 45.74 60.65 46.03 52.63 46.32 46.07 46.61 41.39 46.9 38.64 47.19 37.63 47.48 37.98 47.77 39.31 48.07 41.28 48.36 43.62 48.65 46.15 48.94 48.74 49.23 51.33 49.52 53.85 49.81 56.29 50.1 58.65 50.39 60.93 50.68 63.14 50.97 65.26 51.26 67.29 51.55 69.2 51.85 70.97 52.14 72.58 52.43 74.05 52.72 75.38 53.01 76.6 53.3 77.72 53.59 78.76 53.88 79.72 54.17 80.61 54.46 81.46 54.75 82.28 55.04 83.1 55.33 83.94 55.63 84.79 55.92 85.64 56.21 86.48 56.5 87.27 56.79 88 57.08 88.68 57.37 89.3 57.66 89.88 57.95 90.43 58.24 90.98 58.53 91.52 58.82 92.07 59.11 92.63 59.41 93.17 59.7 93.69 59.99 94.18 60.28 94.63 60.57 95.04 60.86 95.41 61.15 95.73 61.44 96 61.73 96.24 62.02 96.43 62.31 96.6 62.6 96.76 62.89 96.94 63.18 97.17 63.48 97.46 63.77 97.81 64.06 98.21 64.35 98.64 64.64 99.06 64.93 99.46 65.22 99.81 65.51 100.11 65.8 100.35 66.09 100.52 66.38 100.65 66.67 100.75 66.96 100.83 67.26 100.91 67.55 100.99 67.84 101.08 68.13 101.18 68.42 101.27 68.71 101.36 69 101.44 69.29 101.51 69.58 101.56 69.87 101.61 70.16 101.66 70.45 101.72 70.74 101.8 71.04 101.92 71.33 102.07 71.62 102.24 71.91 102.42 72.2 102.6 72.49 102.74 72.78 102.86 73.07 102.93 73.36 102.97 73.65 102.99 73.94 103 74.23 103.03 74.52 103.06 74.82 103.11 75.11 103.17 75.4 103.22 75.69 103.28 75.98 103.34 76.27 103.39 76.56 103.44 76.85 103.49 77.14 103.53 77.43 103.56 77.72 103.59 78.01 103.61 78.3 103.63 78.6 103.64 78.89 103.67 79.18 103.7 79.47 103.74 79.76 103.79 80.05 103.87 80.34 103.95 80.63 104.03 80.92 104.11 81.21 104.17 81.5 104.22 81.79 104.25 82.08 104.26 82.37 104.27 82.67 104.28 82.96 104.3 83.25 104.32 83.54 104.35 83.83 104.38 84.12 104.41 84.41 104.45 84.7 104.48 84.99 104.52 85.28 104.55 85.57 104.59 85.86 104.63 86.15 104.66 86.45 104.68 86.74 104.7 87.03 104.7 87.32 104.71 87.61 104.71 87.9 104.73 88.19 104.77 88.48 104.83 88.77 104.92 89.06 105.02 89.35 105.13 89.64 105.22 89.93 105.29 90.23 105.34 90.52 105.37 90.81 105.38 91.1 105.38 91.39 105.38 91.68 105.38 91.97 105.39 92.26 105.38 92.55 105.37 92.84 105.35 93.13 105.32 93.42 105.29 93.71 105.26 94.01 105.23 94.3 105.21 94.59 105.19 94.88 105.18 95.17 105.18 95.46 105.18 95.75 105.18 96.04 105.19 96.33 105.21 96.62 105.23 96.91 105.25 97.2 105.28 97.49 105.31 97.79 105.34 98.08 105.37 98.37 105.39 98.66 105.4 98.95 105.4 99.24 105.39 99.53 105.37 99.82 105.35 100.11 105.32 100.4 105.29 100.69 105.26 100.98 105.24 101.27 105.22 101.56 105.21 101.86 105.21 102.15 105.2 102.44 105.21 102.73 105.21 103.02 105.22 103.31 105.24 103.6 105.26 103.89 105.28 104.18 105.3 104.47 105.31 104.76 105.31 105.05 105.31 105.34 105.3 105.64 105.29 105.93 105.28 106.22 105.29 106.51 105.3 106.8 105.32 107.09 105.33 107.38 105.35 107.67 105.36 107.96 105.36 108.25 105.35 108.54 105.34 108.83 105.32 109.12 105.3 109.42 105.3 109.71 105.3 110 105.32 110.29 105.36 110.58 105.4 110.87 105.45 111.16 105.5 111.45 105.54 111.74 105.58 112.03 105.61 112.32 105.64 112.61 105.66 112.9 105.68 113.2 105.69 113.49 105.7 113.78 105.71 114.07 105.71 114.36 105.71 114.65 105.71 114.94 105.71 115.23 105.71 115.52 105.71 115.81 105.71"/>
      </g>
      <g stroke-width="0.3" fill="#000000" fill-opacity="0.000" class="geometry" stroke-dasharray="none" stroke="#00BFFF" id="img-abc8bba9-17">
        <path fill="none" d="M40.94,105.71 L 41.24 105.71 41.53 105.69 41.83 105.66 42.13 105.58 42.42 105.43 42.72 105.12 43.02 104.57 43.31 103.62 43.61 102.09 43.91 99.78 44.2 96.5 44.5 92.16 44.79 86.76 45.09 80.47 45.39 73.64 45.68 66.73 45.98 60.24 46.28 54.63 46.57 50.21 46.87 47.13 47.17 45.38 47.46 44.8 47.76 45.15 48.06 46.2 48.35 47.71 48.65 49.51 48.95 51.47 49.24 53.49 49.54 55.53 49.83 57.56 50.13 59.57 50.43 61.56 50.72 63.52 51.02 65.46 51.32 67.37 51.61 69.24 51.91 71.05 52.21 72.77 52.5 74.38 52.8 75.85 53.1 77.17 53.39 78.33 53.69 79.33 53.99 80.19 54.28 80.93 54.58 81.6 54.87 82.22 55.17 82.84 55.47 83.47 55.76 84.14 56.06 84.83 56.36 85.55 56.65 86.27 56.95 87 57.25 87.72 57.54 88.43 57.84 89.13 58.14 89.82 58.43 90.5 58.73 91.16 59.03 91.78 59.32 92.37 59.62 92.89 59.91 93.36 60.21 93.77 60.51 94.13 60.8 94.45 61.1 94.72 61.4 94.96 61.69 95.18 61.99 95.39 62.29 95.61 62.58 95.85 62.88 96.12 63.18 96.45 63.47 96.83 63.77 97.25 64.07 97.7 64.36 98.14 64.66 98.55 64.95 98.91 65.25 99.21 65.55 99.44 65.84 99.62 66.14 99.75 66.44 99.86 66.73 99.97 67.03 100.08 67.33 100.21 67.62 100.35 67.92 100.5 68.22 100.66 68.51 100.8 68.81 100.93 69.11 101.04 69.4 101.12 69.7 101.17 69.99 101.19 70.29 101.2 70.59 101.21 70.88 101.23 71.18 101.28 71.48 101.37 71.77 101.49 72.07 101.63 72.37 101.79 72.66 101.95 72.96 102.1 73.26 102.24 73.55 102.35 73.85 102.45 74.15 102.54 74.44 102.61 74.74 102.67 75.03 102.72 75.33 102.77 75.63 102.82 75.92 102.88 76.22 102.94 76.52 103 76.81 103.07 77.11 103.13 77.41 103.2 77.7 103.26 78 103.32 78.3 103.38 78.59 103.43 78.89 103.48 79.19 103.54 79.48 103.6 79.78 103.66 80.07 103.73 80.37 103.81 80.67 103.89 80.96 103.98 81.26 104.06 81.56 104.13 81.85 104.18 82.15 104.22 82.45 104.25 82.74 104.26 83.04 104.27 83.34 104.27 83.63 104.27 83.93 104.28 84.23 104.3 84.52 104.33 84.82 104.37 85.11 104.41 85.41 104.45 85.71 104.49 86 104.52 86.3 104.54 86.6 104.55 86.89 104.56 87.19 104.56 87.49 104.56 87.78 104.57 88.08 104.61 88.38 104.66 88.67 104.73 88.97 104.82 89.27 104.92 89.56 105.02 89.86 105.1 90.15 105.17 90.45 105.22 90.75 105.26 91.04 105.27 91.34 105.28 91.64 105.27 91.93 105.26 92.23 105.24 92.53 105.21 92.82 105.18 93.12 105.15 93.42 105.12 93.71 105.1 94.01 105.09 94.31 105.09 94.6 105.09 94.9 105.11 95.19 105.12 95.49 105.14 95.79 105.16 96.08 105.17 96.38 105.19 96.68 105.2 96.97 105.22 97.27 105.24 97.57 105.25 97.86 105.27 98.16 105.28 98.46 105.29 98.75 105.3 99.05 105.3 99.35 105.29 99.64 105.28 99.94 105.26 100.23 105.24 100.53 105.21 100.83 105.19 101.12 105.16 101.42 105.14 101.72 105.13 102.01 105.12 102.31 105.13 102.61 105.14 102.9 105.16 103.2 105.18 103.5 105.21 103.79 105.23 104.09 105.24 104.39 105.24 104.68 105.24 104.98 105.22 105.27 105.2 105.57 105.18 105.87 105.17 106.16 105.16 106.46 105.17 106.76 105.18 107.05 105.2 107.35 105.21 107.65 105.23 107.94 105.24 108.24 105.25 108.54 105.25 108.83 105.25 109.13 105.26 109.43 105.27 109.72 105.29 110.02 105.32 110.31 105.36 110.61 105.4 110.91 105.45 111.2 105.49 111.5 105.54 111.8 105.57 112.09 105.61 112.39 105.63 112.69 105.66 112.98 105.67 113.28 105.69 113.58 105.7 113.87 105.7 114.17 105.71 114.46 105.71 114.76 105.71 115.06 105.71 115.35 105.71 115.65 105.71 115.95 105.71 116.24 105.71 116.54 105.71"/>
      </g>
      <g stroke-width="0.3" fill="#000000" fill-opacity="0.000" class="geometry" stroke-dasharray="none" stroke="#00BFFF" id="img-abc8bba9-18">
        <path fill="none" d="M39.45,105.71 L 39.76 105.71 40.07 105.7 40.38 105.69 40.69 105.66 40.99 105.61 41.3 105.51 41.61 105.35 41.92 105.08 42.23 104.66 42.53 104 42.84 103.05 43.15 101.7 43.46 99.88 43.77 97.5 44.07 94.54 44.38 90.99 44.69 86.91 45 82.42 45.31 77.69 45.62 72.92 45.92 68.34 46.23 64.16 46.54 60.55 46.85 57.64 47.16 55.48 47.46 54.09 47.77 53.41 48.08 53.36 48.39 53.84 48.7 54.75 49.01 55.98 49.31 57.44 49.62 59.06 49.93 60.78 50.24 62.54 50.55 64.31 50.85 66.06 51.16 67.75 51.47 69.37 51.78 70.92 52.09 72.39 52.39 73.77 52.7 75.06 53.01 76.26 53.32 77.37 53.63 78.39 53.94 79.33 54.24 80.18 54.55 80.95 54.86 81.66 55.17 82.32 55.48 82.95 55.78 83.57 56.09 84.2 56.4 84.84 56.71 85.51 57.02 86.21 57.32 86.94 57.63 87.69 57.94 88.45 58.25 89.19 58.56 89.9 58.87 90.58 59.17 91.19 59.48 91.73 59.79 92.2 60.1 92.59 60.41 92.9 60.71 93.15 61.02 93.35 61.33 93.51 61.64 93.65 61.95 93.8 62.25 93.97 62.56 94.18 62.87 94.44 63.18 94.76 63.49 95.13 63.8 95.55 64.1 95.99 64.41 96.46 64.72 96.92 65.03 97.35 65.34 97.75 65.64 98.11 65.95 98.42 66.26 98.68 66.57 98.91 66.88 99.12 67.19 99.31 67.49 99.49 67.8 99.68 68.11 99.87 68.42 100.05 68.73 100.23 69.03 100.4 69.34 100.54 69.65 100.65 69.96 100.72 70.27 100.77 70.57 100.8 70.88 100.81 71.19 100.82 71.5 100.84 71.81 100.89 72.12 100.95 72.42 101.05 72.73 101.18 73.04 101.33 73.35 101.5 73.66 101.68 73.96 101.86 74.27 102.04 74.58 102.21 74.89 102.38 75.2 102.53 75.5 102.68 75.81 102.82 76.12 102.95 76.43 103.07 76.74 103.18 77.05 103.29 77.35 103.38 77.66 103.47 77.97 103.53 78.28 103.58 78.59 103.62 78.89 103.64 79.2 103.65 79.51 103.66 79.82 103.66 80.13 103.67 80.44 103.68 80.74 103.69 81.05 103.7 81.36 103.72 81.67 103.74 81.98 103.76 82.28 103.79 82.59 103.82 82.9 103.86 83.21 103.9 83.52 103.94 83.82 103.98 84.13 104.03 84.44 104.07 84.75 104.1 85.06 104.12 85.37 104.14 85.67 104.14 85.98 104.13 86.29 104.12 86.6 104.11 86.91 104.1 87.21 104.11 87.52 104.13 87.83 104.17 88.14 104.23 88.45 104.31 88.75 104.4 89.06 104.51 89.37 104.62 89.68 104.73 89.99 104.83 90.3 104.92 90.6 104.98 90.91 105.03 91.22 105.06 91.53 105.06 91.84 105.05 92.14 105.02 92.45 104.99 92.76 104.94 93.07 104.89 93.38 104.85 93.69 104.81 93.99 104.78 94.3 104.76 94.61 104.76 94.92 104.77 95.23 104.79 95.53 104.83 95.84 104.87 96.15 104.92 96.46 104.97 96.77 105.02 97.07 105.06 97.38 105.1 97.69 105.13 98 105.14 98.31 105.15 98.62 105.16 98.92 105.15 99.23 105.15 99.54 105.15 99.85 105.15 100.16 105.15 100.46 105.15 100.77 105.15 101.08 105.16 101.39 105.17 101.7 105.17 102 105.18 102.31 105.18 102.62 105.19 102.93 105.18 103.24 105.18 103.55 105.17 103.85 105.15 104.16 105.13 104.47 105.1 104.78 105.08 105.09 105.06 105.39 105.04 105.7 105.03 106.01 105.03 106.32 105.04 106.63 105.06 106.94 105.08 107.24 105.1 107.55 105.13 107.86 105.16 108.17 105.18 108.48 105.2 108.78 105.22 109.09 105.23 109.4 105.25 109.71 105.27 110.02 105.29 110.32 105.31 110.63 105.34 110.94 105.38 111.25 105.41 111.56 105.45 111.87 105.49 112.17 105.52 112.48 105.56 112.79 105.59 113.1 105.62 113.41 105.64 113.71 105.66 114.02 105.67 114.33 105.69 114.64 105.7 114.95 105.7 115.25 105.71 115.56 105.71 115.87 105.71 116.18 105.71 116.49 105.71 116.8 105.71 117.1 105.71 117.41 105.71 117.72 105.71 118.03 105.71"/>
      </g>
      <g stroke-width="0.3" fill="#000000" fill-opacity="0.000" class="geometry" stroke-dasharray="none" stroke="#00BFFF" id="img-abc8bba9-19">
        <path fill="none" d="M37.34,105.71 L 37.66 105.71 37.99 105.71 38.31 105.7 38.63 105.69 38.96 105.68 39.28 105.65 39.6 105.61 39.92 105.55 40.25 105.46 40.57 105.31 40.89 105.1 41.22 104.8 41.54 104.38 41.86 103.81 42.18 103.06 42.51 102.08 42.83 100.85 43.15 99.33 43.48 97.51 43.8 95.37 44.12 92.93 44.44 90.21 44.77 87.26 45.09 84.16 45.41 80.97 45.74 77.8 46.06 74.74 46.38 71.89 46.7 69.33 47.03 67.15 47.35 65.38 47.67 64.06 48 63.2 48.32 62.77 48.64 62.75 48.96 63.09 49.29 63.72 49.61 64.59 49.93 65.64 50.26 66.82 50.58 68.07 50.9 69.37 51.22 70.67 51.55 71.96 51.87 73.23 52.19 74.45 52.52 75.63 52.84 76.75 53.16 77.82 53.49 78.84 53.81 79.8 54.13 80.69 54.45 81.53 54.78 82.3 55.1 83.02 55.42 83.68 55.75 84.3 56.07 84.86 56.39 85.38 56.71 85.87 57.04 86.33 57.36 86.77 57.68 87.2 58.01 87.61 58.33 88.02 58.65 88.43 58.97 88.85 59.3 89.26 59.62 89.68 59.94 90.11 60.27 90.54 60.59 90.98 60.91 91.41 61.23 91.85 61.56 92.28 61.88 92.72 62.2 93.15 62.53 93.58 62.85 94 63.17 94.42 63.49 94.84 63.82 95.25 64.14 95.65 64.46 96.04 64.79 96.43 65.11 96.8 65.43 97.15 65.75 97.49 66.08 97.8 66.4 98.1 66.72 98.37 67.05 98.62 67.37 98.85 67.69 99.05 68.01 99.23 68.34 99.38 68.66 99.52 68.98 99.63 69.31 99.73 69.63 99.81 69.95 99.89 70.27 99.96 70.6 100.04 70.92 100.12 71.24 100.21 71.57 100.3 71.89 100.41 72.21 100.53 72.53 100.65 72.86 100.78 73.18 100.91 73.5 101.04 73.83 101.17 74.15 101.29 74.47 101.4 74.79 101.52 75.12 101.62 75.44 101.73 75.76 101.83 76.09 101.93 76.41 102.02 76.73 102.11 77.05 102.2 77.38 102.28 77.7 102.34 78.02 102.4 78.35 102.44 78.67 102.46 78.99 102.48 79.31 102.48 79.64 102.47 79.96 102.46 80.28 102.45 80.61 102.44 80.93 102.43 81.25 102.44 81.58 102.46 81.9 102.49 82.22 102.54 82.54 102.61 82.87 102.68 83.19 102.77 83.51 102.86 83.84 102.96 84.16 103.06 84.48 103.15 84.8 103.23 85.13 103.3 85.45 103.35 85.77 103.39 86.1 103.42 86.42 103.44 86.74 103.44 87.06 103.44 87.39 103.44 87.71 103.44 88.03 103.45 88.36 103.45 88.68 103.47 89 103.5 89.32 103.53 89.65 103.57 89.97 103.62 90.29 103.67 90.62 103.72 90.94 103.77 91.26 103.81 91.58 103.85 91.91 103.88 92.23 103.91 92.55 103.92 92.88 103.94 93.2 103.95 93.52 103.96 93.84 103.97 94.17 103.99 94.49 104.01 94.81 104.05 95.14 104.09 95.46 104.14 95.78 104.2 96.1 104.26 96.43 104.33 96.75 104.4 97.07 104.47 97.4 104.53 97.72 104.58 98.04 104.62 98.36 104.65 98.69 104.67 99.01 104.67 99.33 104.67 99.66 104.65 99.98 104.63 100.3 104.6 100.62 104.57 100.95 104.54 101.27 104.51 101.59 104.49 101.92 104.47 102.24 104.46 102.56 104.46 102.88 104.47 103.21 104.48 103.53 104.5 103.85 104.53 104.18 104.56 104.5 104.58 104.82 104.61 105.14 104.63 105.47 104.65 105.79 104.66 106.11 104.67 106.44 104.67 106.76 104.67 107.08 104.67 107.41 104.67 107.73 104.67 108.05 104.67 108.37 104.68 108.7 104.69 109.02 104.71 109.34 104.74 109.67 104.77 109.99 104.82 110.31 104.87 110.63 104.93 110.96 105 111.28 105.07 111.6 105.14 111.93 105.21 112.25 105.28 112.57 105.35 112.89 105.41 113.22 105.47 113.54 105.52 113.86 105.56 114.19 105.6 114.51 105.63 114.83 105.65 115.15 105.67 115.48 105.68 115.8 105.69 116.12 105.7 116.45 105.7 116.77 105.71 117.09 105.71 117.41 105.71 117.74 105.71 118.06 105.71 118.38 105.71 118.71 105.71 119.03 105.71 119.35 105.71 119.67 105.71"/>
      </g>
    </g>
  </g>
</g>
  <g class="guide ylabels" font-size="2.82" font-family="'PT Sans Caption','Helvetica Neue','Helvetica',sans-serif" fill="#6C606B" id="img-abc8bba9-20">
    <text x="9.35" y="105.71" text-anchor="end" dy="0.35em">0</text>
    <text x="9.35" y="56.36" text-anchor="end" dy="0.35em">5</text>
    <text x="9.35" y="7" text-anchor="end" dy="0.35em">10</text>
  </g>
</g>
<defs>
  <clipPath id="img-abc8bba9-4">
  <path d="M10.35,5 L 147.4 5 147.4 107.71 10.35 107.71" />
</clipPath>
</defs>
</svg>
