<?xml version="1.0" encoding="UTF-8"?>
<svg xmlns="http://www.w3.org/2000/svg"
     xmlns:xlink="http://www.w3.org/1999/xlink"
     xmlns:gadfly="http://www.gadflyjl.org/ns"
     version="1.2"
     width="152.4mm" height="127mm" viewBox="0 0 152.4 127"
     stroke="none"
     fill="#000000"
     stroke-width="0.3"
     font-size="3.88"
>
<g class="plotroot xscalable yscalable" id="img-edfc545c-1">
  <g font-size="3.88" font-family="'PT Sans','Helvetica Neue','Helvetica',sans-serif" fill="#564A55" stroke="#000000" stroke-opacity="0.000" id="img-edfc545c-2">
    <text x="78.04" y="115.39" text-anchor="middle" dy="0.6em">x</text>
  </g>
  <g class="guide xlabels" font-size="2.82" font-family="'PT Sans Caption','Helvetica Neue','Helvetica',sans-serif" fill="#6C606B" id="img-edfc545c-3">
    <text x="10.67" y="108.72" text-anchor="middle" dy="0.6em">-0.5</text>
    <text x="44.36" y="108.72" text-anchor="middle" dy="0.6em">0.0</text>
    <text x="78.04" y="108.72" text-anchor="middle" dy="0.6em">0.5</text>
    <text x="111.72" y="108.72" text-anchor="middle" dy="0.6em">1.0</text>
    <text x="145.4" y="108.72" text-anchor="middle" dy="0.6em">1.5</text>
  </g>
<g clip-path="url(#img-edfc545c-4)">
  <g id="img-edfc545c-5">
    <g pointer-events="visible" opacity="1" fill="#000000" fill-opacity="0.000" stroke="#000000" stroke-opacity="0.000" class="guide background" id="img-edfc545c-6">
      <rect x="8.67" y="5" width="138.73" height="102.72"/>
    </g>
    <g class="guide ygridlines xfixed" stroke-dasharray="0.5,0.5" stroke-width="0.2" stroke="#D0D0E0" id="img-edfc545c-7">
      <path fill="none" d="M8.67,105.72 L 147.4 105.72"/>
      <path fill="none" d="M8.67,85.97 L 147.4 85.97"/>
      <path fill="none" d="M8.67,66.23 L 147.4 66.23"/>
      <path fill="none" d="M8.67,46.49 L 147.4 46.49"/>
      <path fill="none" d="M8.67,26.74 L 147.4 26.74"/>
      <path fill="none" d="M8.67,7 L 147.4 7"/>
    </g>
    <g class="guide xgridlines yfixed" stroke-dasharray="0.5,0.5" stroke-width="0.2" stroke="#D0D0E0" id="img-edfc545c-8">
      <path fill="none" d="M10.67,5 L 10.67 107.72"/>
      <path fill="none" d="M44.36,5 L 44.36 107.72"/>
      <path fill="none" d="M78.04,5 L 78.04 107.72"/>
      <path fill="none" d="M111.72,5 L 111.72 107.72"/>
      <path fill="none" d="M145.4,5 L 145.4 107.72"/>
    </g>
    <g class="plotpanel" id="img-edfc545c-9">
      <g stroke-width="0.3" fill="#000000" fill-opacity="0.000" class="geometry" stroke-dasharray="none" stroke="#00BFFF" id="img-edfc545c-10">
        <path fill="none" d="M40.55,105.71 L 40.84 105.7 41.14 105.66 41.43 105.57 41.72 105.34 42.02 104.83 42.31 103.77 42.6 101.77 42.9 98.35 43.19 92.97 43.48 85.28 43.78 75.24 44.07 63.33 44.36 50.47 44.66 37.88 44.95 26.78 45.24 18.03 45.54 12.01 45.83 8.6 46.12 7.34 46.41 7.63 46.71 8.93 47 10.81 47.29 12.97 47.59 15.24 47.88 17.48 48.17 19.64 48.47 21.69 48.76 23.63 49.05 25.5 49.35 27.34 49.64 29.17 49.93 31.03 50.23 32.9 50.52 34.78 50.81 36.65 51.11 38.49 51.4 40.27 51.69 41.98 51.99 43.61 52.28 45.15 52.57 46.61 52.87 48.02 53.16 49.4 53.45 50.77 53.75 52.15 54.04 53.54 54.33 54.93 54.62 56.32 54.92 57.7 55.21 59.05 55.5 60.37 55.8 61.65 56.09 62.91 56.38 64.13 56.68 65.31 56.97 66.43 57.26 67.5 57.56 68.5 57.85 69.43 58.14 70.32 58.44 71.18 58.73 72.01 59.02 72.84 59.32 73.66 59.61 74.48 59.9 75.3 60.2 76.11 60.49 76.9 60.78 77.66 61.08 78.39 61.37 79.08 61.66 79.76 61.96 80.43 62.25 81.12 62.54 81.83 62.83 82.56 63.13 83.28 63.42 83.97 63.71 84.62 64.01 85.19 64.3 85.68 64.59 86.1 64.89 86.48 65.18 86.83 65.47 87.18 65.77 87.56 66.06 87.98 66.35 88.45 66.65 88.97 66.94 89.51 67.23 90.06 67.53 90.59 67.82 91.07 68.11 91.52 68.41 91.93 68.7 92.32 68.99 92.71 69.29 93.11 69.58 93.51 69.87 93.9 70.17 94.27 70.46 94.63 70.75 94.95 71.05 95.26 71.34 95.54 71.63 95.8 71.92 96.04 72.22 96.25 72.51 96.45 72.8 96.64 73.1 96.84 73.39 97.06 73.68 97.3 73.98 97.57 74.27 97.87 74.56 98.18 74.86 98.48 75.15 98.74 75.44 98.96 75.74 99.13 76.03 99.26 76.32 99.39 76.62 99.53 76.91 99.7 77.2 99.91 77.5 100.13 77.79 100.36 78.08 100.57 78.38 100.74 78.67 100.88 78.96 100.98 79.26 101.06 79.55 101.12 79.84 101.17 80.13 101.23 80.43 101.3 80.72 101.38 81.01 101.49 81.31 101.61 81.6 101.75 81.89 101.9 82.19 102.04 82.48 102.17 82.77 102.28 83.07 102.38 83.36 102.47 83.65 102.55 83.95 102.63 84.24 102.73 84.53 102.84 84.83 102.96 85.12 103.08 85.41 103.2 85.71 103.32 86 103.42 86.29 103.51 86.59 103.58 86.88 103.65 87.17 103.71 87.47 103.77 87.76 103.82 88.05 103.88 88.34 103.93 88.64 103.99 88.93 104.04 89.22 104.09 89.52 104.13 89.81 104.17 90.1 104.21 90.4 104.26 90.69 104.31 90.98 104.36 91.28 104.43 91.57 104.5 91.86 104.56 92.16 104.61 92.45 104.66 92.74 104.69 93.04 104.72 93.33 104.74 93.62 104.76 93.92 104.77 94.21 104.79 94.5 104.8 94.8 104.83 95.09 104.86 95.38 104.9 95.68 104.94 95.97 104.97 96.26 105 96.56 105.02 96.85 105.03 97.14 105.04 97.43 105.04 97.73 105.04 98.02 105.04 98.31 105.05 98.61 105.06 98.9 105.08 99.19 105.1 99.49 105.12 99.78 105.14 100.07 105.16 100.37 105.18 100.66 105.21 100.95 105.23 101.25 105.26 101.54 105.29 101.83 105.32 102.13 105.34 102.42 105.36 102.71 105.37 103.01 105.38 103.3 105.4 103.59 105.42 103.89 105.44 104.18 105.47 104.47 105.5 104.77 105.52 105.06 105.54 105.35 105.56 105.64 105.57 105.94 105.58 106.23 105.58 106.52 105.59 106.82 105.6 107.11 105.6 107.4 105.61 107.7 105.61 107.99 105.61 108.28 105.61 108.58 105.6 108.87 105.6 109.16 105.59 109.46 105.59 109.75 105.59 110.04 105.59 110.34 105.6 110.63 105.61 110.92 105.63 111.22 105.64 111.51 105.66 111.8 105.67 112.1 105.69 112.39 105.7 112.68 105.7 112.98 105.71 113.27 105.71 113.56 105.71 113.85 105.71 114.15 105.71 114.44 105.71 114.73 105.71 115.03 105.71 115.32 105.71"/>
      </g>
      <g stroke-width="0.3" fill="#000000" fill-opacity="0.000" class="geometry" stroke-dasharray="none" stroke="#00BFFF" id="img-edfc545c-11">
        <path fill="none" d="M40.27,105.71 L 40.56 105.7 40.86 105.67 41.16 105.6 41.45 105.43 41.75 105.06 42.04 104.31 42.34 102.9 42.63 100.46 42.93 96.58 43.22 90.85 43.52 83.1 43.81 73.41 44.11 62.29 44.41 50.55 44.7 39.21 45 29.23 45.29 21.31 45.59 15.74 45.88 12.47 46.18 11.13 46.47 11.25 46.77 12.35 47.06 14.06 47.36 16.09 47.65 18.24 47.95 20.4 48.25 22.5 48.54 24.48 48.84 26.36 49.13 28.15 49.43 29.89 49.72 31.62 50.02 33.36 50.31 35.13 50.61 36.92 50.9 38.71 51.2 40.48 51.5 42.2 51.79 43.83 52.09 45.36 52.38 46.79 52.68 48.11 52.97 49.35 53.27 50.55 53.56 51.72 53.86 52.91 54.15 54.14 54.45 55.4 54.74 56.71 55.04 58.03 55.34 59.36 55.63 60.68 55.93 61.95 56.22 63.17 56.52 64.34 56.81 65.43 57.11 66.45 57.4 67.4 57.7 68.29 57.99 69.14 58.29 69.96 58.59 70.78 58.88 71.59 59.18 72.4 59.47 73.22 59.77 74.04 60.06 74.85 60.36 75.65 60.65 76.42 60.95 77.17 61.24 77.88 61.54 78.57 61.84 79.26 62.13 79.97 62.43 80.7 62.72 81.46 63.02 82.22 63.31 82.96 63.61 83.65 63.9 84.27 64.2 84.8 64.49 85.25 64.79 85.65 65.08 86 65.38 86.36 65.68 86.73 65.97 87.14 66.27 87.59 66.56 88.08 66.86 88.61 67.15 89.14 67.45 89.67 67.74 90.18 68.04 90.66 68.33 91.1 68.63 91.52 68.93 91.93 69.22 92.34 69.52 92.74 69.81 93.14 70.11 93.53 70.4 93.91 70.7 94.26 70.99 94.59 71.29 94.89 71.58 95.16 71.88 95.41 72.17 95.63 72.47 95.84 72.77 96.05 73.06 96.26 73.36 96.49 73.65 96.74 73.95 97.03 74.24 97.34 74.54 97.66 74.83 97.97 75.13 98.25 75.42 98.48 75.72 98.66 76.02 98.81 76.31 98.95 76.61 99.09 76.9 99.27 77.2 99.47 77.49 99.68 77.79 99.91 78.08 100.11 78.38 100.29 78.67 100.44 78.97 100.56 79.27 100.66 79.56 100.74 79.86 100.82 80.15 100.91 80.45 101.01 80.74 101.12 81.04 101.24 81.33 101.37 81.63 101.51 81.92 101.65 82.22 101.77 82.51 101.89 82.81 102 83.11 102.1 83.4 102.2 83.7 102.29 83.99 102.39 84.29 102.5 84.58 102.63 84.88 102.75 85.17 102.88 85.47 103.01 85.76 103.12 86.06 103.23 86.36 103.33 86.65 103.41 86.95 103.49 87.24 103.55 87.54 103.62 87.83 103.67 88.13 103.73 88.42 103.79 88.72 103.85 89.01 103.9 89.31 103.96 89.6 104 89.9 104.04 90.2 104.09 90.49 104.13 90.79 104.19 91.08 104.25 91.38 104.32 91.67 104.38 91.97 104.45 92.26 104.5 92.56 104.55 92.85 104.58 93.15 104.61 93.45 104.63 93.74 104.64 94.04 104.65 94.33 104.67 94.63 104.69 94.92 104.71 95.22 104.75 95.51 104.79 95.81 104.83 96.1 104.86 96.4 104.89 96.7 104.91 96.99 104.92 97.29 104.93 97.58 104.93 97.88 104.94 98.17 104.95 98.47 104.96 98.76 104.98 99.06 105 99.35 105.03 99.65 105.05 99.94 105.07 100.24 105.1 100.54 105.12 100.83 105.15 101.13 105.18 101.42 105.21 101.72 105.24 102.01 105.26 102.31 105.29 102.6 105.31 102.9 105.33 103.19 105.34 103.49 105.37 103.79 105.39 104.08 105.42 104.38 105.45 104.67 105.48 104.97 105.5 105.26 105.52 105.56 105.54 105.85 105.55 106.15 105.56 106.44 105.57 106.74 105.57 107.03 105.58 107.33 105.58 107.63 105.59 107.92 105.59 108.22 105.59 108.51 105.58 108.81 105.58 109.1 105.57 109.4 105.57 109.69 105.57 109.99 105.57 110.28 105.58 110.58 105.59 110.88 105.61 111.17 105.63 111.47 105.65 111.76 105.66 112.06 105.68 112.35 105.69 112.65 105.7 112.94 105.7 113.24 105.71 113.53 105.71 113.83 105.71 114.13 105.71 114.42 105.71 114.72 105.71 115.01 105.71 115.31 105.71 115.6 105.71"/>
      </g>
      <g stroke-width="0.3" fill="#000000" fill-opacity="0.000" class="geometry" stroke-dasharray="none" stroke="#00BFFF" id="img-edfc545c-12">
        <path fill="none" d="M39.97,105.71 L 40.27 105.7 40.57 105.68 40.87 105.63 41.16 105.5 41.46 105.24 41.76 104.71 42.06 103.73 42.36 102.03 42.65 99.29 42.95 95.17 43.25 89.42 43.55 81.95 43.84 72.92 44.14 62.79 44.44 52.26 44.74 42.13 45.04 33.17 45.33 25.93 45.63 20.67 45.93 17.37 46.23 15.79 46.52 15.55 46.82 16.29 47.12 17.66 47.42 19.39 47.71 21.31 48.01 23.28 48.31 25.21 48.61 27.07 48.91 28.85 49.2 30.57 49.5 32.24 49.8 33.9 50.1 35.57 50.39 37.24 50.69 38.9 50.99 40.52 51.29 42.08 51.59 43.55 51.88 44.94 52.18 46.24 52.48 47.46 52.78 48.63 53.07 49.76 53.37 50.87 53.67 51.99 53.97 53.13 54.27 54.3 54.56 55.52 54.86 56.78 55.16 58.06 55.46 59.36 55.75 60.65 56.05 61.91 56.35 63.12 56.65 64.28 56.94 65.37 57.24 66.39 57.54 67.35 57.84 68.26 58.14 69.14 58.43 69.99 58.73 70.84 59.03 71.67 59.33 72.5 59.62 73.31 59.92 74.1 60.22 74.86 60.52 75.58 60.82 76.26 61.11 76.92 61.41 77.58 61.71 78.26 62.01 78.97 62.3 79.72 62.6 80.49 62.9 81.28 63.2 82.04 63.5 82.74 63.79 83.37 64.09 83.9 64.39 84.35 64.69 84.73 64.98 85.07 65.28 85.41 65.58 85.77 65.88 86.17 66.17 86.63 66.47 87.12 66.77 87.64 67.07 88.17 67.37 88.69 67.66 89.19 67.96 89.66 68.26 90.12 68.56 90.56 68.85 91 69.15 91.44 69.45 91.88 69.75 92.31 70.05 92.73 70.34 93.12 70.64 93.5 70.94 93.84 71.24 94.15 71.53 94.43 71.83 94.69 72.13 94.93 72.43 95.16 72.73 95.4 73.02 95.65 73.32 95.92 73.62 96.22 73.92 96.54 74.21 96.87 74.51 97.19 74.81 97.49 75.11 97.74 75.4 97.94 75.7 98.08 76 98.2 76.3 98.3 76.6 98.42 76.89 98.57 77.19 98.76 77.49 98.97 77.79 99.19 78.08 99.41 78.38 99.61 78.68 99.79 78.98 99.94 79.28 100.08 79.57 100.2 79.87 100.32 80.17 100.44 80.47 100.57 80.76 100.71 81.06 100.86 81.36 101.02 81.66 101.18 81.96 101.33 82.25 101.47 82.55 101.6 82.85 101.71 83.15 101.81 83.44 101.9 83.74 102 84.04 102.1 84.34 102.21 84.63 102.34 84.93 102.47 85.23 102.6 85.53 102.73 85.83 102.85 86.12 102.96 86.42 103.06 86.72 103.14 87.02 103.22 87.31 103.3 87.61 103.36 87.91 103.43 88.21 103.49 88.51 103.56 88.8 103.62 89.1 103.68 89.4 103.74 89.7 103.79 89.99 103.84 90.29 103.9 90.59 103.95 90.89 104.01 91.19 104.08 91.48 104.15 91.78 104.22 92.08 104.28 92.38 104.34 92.67 104.39 92.97 104.43 93.27 104.47 93.57 104.49 93.87 104.5 94.16 104.52 94.46 104.53 94.76 104.56 95.06 104.59 95.35 104.63 95.65 104.68 95.95 104.72 96.25 104.76 96.54 104.79 96.84 104.82 97.14 104.84 97.44 104.85 97.74 104.85 98.03 104.86 98.33 104.87 98.63 104.89 98.93 104.9 99.22 104.92 99.52 104.94 99.82 104.96 100.12 104.99 100.42 105.02 100.71 105.05 101.01 105.08 101.31 105.11 101.61 105.14 101.9 105.17 102.2 105.2 102.5 105.22 102.8 105.24 103.1 105.27 103.39 105.29 103.69 105.32 103.99 105.35 104.29 105.39 104.58 105.42 104.88 105.45 105.18 105.47 105.48 105.49 105.77 105.51 106.07 105.52 106.37 105.53 106.67 105.54 106.97 105.55 107.26 105.56 107.56 105.56 107.86 105.56 108.16 105.56 108.45 105.56 108.75 105.55 109.05 105.55 109.35 105.54 109.65 105.54 109.94 105.55 110.24 105.56 110.54 105.57 110.84 105.59 111.13 105.61 111.43 105.63 111.73 105.65 112.03 105.67 112.33 105.68 112.62 105.69 112.92 105.7 113.22 105.71 113.52 105.71 113.81 105.71 114.11 105.71 114.41 105.71 114.71 105.71 115 105.71 115.3 105.71 115.6 105.71 115.9 105.71"/>
      </g>
      <g stroke-width="0.3" fill="#000000" fill-opacity="0.000" class="geometry" stroke-dasharray="none" stroke="#00BFFF" id="img-edfc545c-13">
        <path fill="none" d="M39.6,105.71 L 39.9 105.7 40.2 105.69 40.5 105.65 40.8 105.56 41.1 105.37 41.4 105.02 41.7 104.36 42 103.23 42.3 101.39 42.61 98.6 42.91 94.62 43.21 89.26 43.51 82.5 43.81 74.5 44.11 65.61 44.41 56.37 44.71 47.39 45.01 39.27 45.31 32.45 45.61 27.22 45.91 23.64 46.21 21.59 46.51 20.82 46.81 21.04 47.12 21.96 47.42 23.31 47.72 24.9 48.02 26.59 48.32 28.27 48.62 29.9 48.92 31.46 49.22 32.95 49.52 34.4 49.82 35.84 50.12 37.28 50.42 38.74 50.72 40.2 51.02 41.65 51.33 43.06 51.63 44.4 51.93 45.65 52.23 46.82 52.53 47.9 52.83 48.94 53.13 49.95 53.43 50.97 53.73 52.03 54.03 53.15 54.33 54.34 54.63 55.58 54.93 56.87 55.23 58.16 55.53 59.44 55.84 60.69 56.14 61.89 56.44 63.04 56.74 64.13 57.04 65.17 57.34 66.17 57.64 67.12 57.94 68.03 58.24 68.92 58.54 69.78 58.84 70.62 59.14 71.44 59.44 72.23 59.74 72.99 60.04 73.72 60.35 74.42 60.65 75.09 60.95 75.75 61.25 76.41 61.55 77.1 61.85 77.81 62.15 78.55 62.45 79.3 62.75 80.07 63.05 80.81 63.35 81.51 63.65 82.15 63.95 82.73 64.25 83.24 64.56 83.7 64.86 84.13 65.16 84.55 65.46 84.99 65.76 85.45 66.06 85.94 66.36 86.45 66.66 86.98 66.96 87.5 67.26 88 67.56 88.47 67.86 88.91 68.16 89.33 68.46 89.74 68.76 90.14 69.07 90.55 69.37 90.95 69.67 91.37 69.97 91.78 70.27 92.18 70.57 92.57 70.87 92.94 71.17 93.29 71.47 93.61 71.77 93.9 72.07 94.17 72.37 94.43 72.67 94.69 72.97 94.95 73.28 95.24 73.58 95.55 73.88 95.89 74.18 96.22 74.48 96.55 74.78 96.84 75.08 97.09 75.38 97.28 75.68 97.42 75.98 97.52 76.28 97.61 76.58 97.71 76.88 97.83 77.18 97.98 77.48 98.16 77.79 98.36 78.09 98.56 78.39 98.76 78.69 98.95 78.99 99.12 79.29 99.28 79.59 99.43 79.89 99.58 80.19 99.74 80.49 99.91 80.79 100.08 81.09 100.26 81.39 100.45 81.69 100.63 81.99 100.81 82.3 100.98 82.6 101.13 82.9 101.27 83.2 101.39 83.5 101.5 83.8 101.62 84.1 101.73 84.4 101.86 84.7 101.99 85 102.13 85.3 102.28 85.6 102.42 85.9 102.56 86.2 102.69 86.51 102.8 86.81 102.9 87.11 102.98 87.41 103.05 87.71 103.12 88.01 103.18 88.31 103.23 88.61 103.29 88.91 103.36 89.21 103.42 89.51 103.49 89.81 103.56 90.11 103.64 90.41 103.71 90.71 103.79 91.02 103.87 91.32 103.94 91.62 104.01 91.92 104.08 92.22 104.13 92.52 104.17 92.82 104.21 93.12 104.23 93.42 104.25 93.72 104.27 94.02 104.29 94.32 104.31 94.62 104.33 94.92 104.36 95.23 104.4 95.53 104.45 95.83 104.5 96.13 104.55 96.43 104.59 96.73 104.62 97.03 104.64 97.33 104.66 97.63 104.68 97.93 104.69 98.23 104.7 98.53 104.72 98.83 104.74 99.13 104.76 99.43 104.79 99.74 104.82 100.04 104.85 100.34 104.88 100.64 104.92 100.94 104.96 101.24 104.99 101.54 105.03 101.84 105.06 102.14 105.1 102.44 105.12 102.74 105.15 103.04 105.18 103.34 105.21 103.64 105.25 103.95 105.28 104.25 105.32 104.55 105.36 104.85 105.39 105.15 105.42 105.45 105.45 105.75 105.47 106.05 105.48 106.35 105.49 106.65 105.5 106.95 105.51 107.25 105.52 107.55 105.52 107.85 105.52 108.15 105.52 108.46 105.52 108.76 105.51 109.06 105.51 109.36 105.51 109.66 105.51 109.96 105.51 110.26 105.53 110.56 105.54 110.86 105.56 111.16 105.59 111.46 105.61 111.76 105.63 112.06 105.65 112.36 105.67 112.66 105.68 112.97 105.69 113.27 105.7 113.57 105.71 113.87 105.71 114.17 105.71 114.47 105.71 114.77 105.71 115.07 105.71 115.37 105.71 115.67 105.71 115.97 105.71 116.27 105.71"/>
      </g>
      <g stroke-width="0.3" fill="#000000" fill-opacity="0.000" class="geometry" stroke-dasharray="none" stroke="#00BFFF" id="img-edfc545c-14">
        <path fill="none" d="M39.08,105.71 L 39.38 105.71 39.69 105.69 39.99 105.66 40.3 105.6 40.6 105.49 40.9 105.26 41.21 104.86 41.51 104.17 41.82 103.05 42.12 101.34 42.43 98.83 42.73 95.37 43.04 90.81 43.34 85.13 43.65 78.41 43.95 70.87 44.26 62.87 44.56 54.85 44.87 47.25 45.17 40.5 45.48 34.91 45.78 30.64 46.09 27.72 46.39 26.05 46.7 25.45 47 25.69 47.31 26.53 47.61 27.76 47.91 29.19 48.22 30.71 48.52 32.22 48.83 33.67 49.13 35.06 49.44 36.38 49.74 37.66 50.05 38.92 50.35 40.18 50.66 41.44 50.96 42.69 51.27 43.93 51.57 45.13 51.88 46.28 52.18 47.38 52.49 48.44 52.79 49.45 53.1 50.45 53.4 51.45 53.71 52.48 54.01 53.56 54.32 54.68 54.62 55.84 54.92 57.04 55.23 58.27 55.53 59.5 55.84 60.72 56.14 61.91 56.45 63.06 56.75 64.16 57.06 65.22 57.36 66.21 57.67 67.15 57.97 68.04 58.28 68.88 58.58 69.67 58.89 70.44 59.19 71.18 59.5 71.9 59.8 72.62 60.11 73.32 60.41 74.03 60.72 74.74 61.02 75.46 61.33 76.19 61.63 76.94 61.93 77.7 62.24 78.47 62.54 79.25 62.85 80.01 63.15 80.73 63.46 81.39 63.76 81.98 64.07 82.49 64.37 82.94 64.68 83.33 64.98 83.68 65.29 84.03 65.59 84.38 65.9 84.76 66.2 85.17 66.51 85.59 66.81 86.03 67.12 86.48 67.42 86.92 67.73 87.34 68.03 87.76 68.34 88.17 68.64 88.58 68.94 88.98 69.25 89.4 69.55 89.84 69.86 90.29 70.16 90.76 70.47 91.24 70.77 91.73 71.08 92.21 71.38 92.68 71.69 93.11 71.99 93.51 72.3 93.88 72.6 94.22 72.91 94.54 73.21 94.84 73.52 95.14 73.82 95.42 74.13 95.7 74.43 95.97 74.74 96.2 75.04 96.41 75.35 96.58 75.65 96.72 75.95 96.83 76.26 96.93 76.56 97.03 76.87 97.15 77.17 97.28 77.48 97.43 77.78 97.59 78.09 97.76 78.39 97.93 78.7 98.11 79 98.28 79.31 98.45 79.61 98.63 79.92 98.83 80.22 99.05 80.53 99.28 80.83 99.53 81.14 99.78 81.44 100.03 81.75 100.26 82.05 100.48 82.36 100.66 82.66 100.82 82.96 100.94 83.27 101.05 83.57 101.14 83.88 101.24 84.18 101.33 84.49 101.45 84.79 101.57 85.1 101.71 85.4 101.86 85.71 102.01 86.01 102.16 86.32 102.29 86.62 102.41 86.93 102.51 87.23 102.59 87.54 102.67 87.84 102.73 88.15 102.79 88.45 102.85 88.76 102.91 89.06 102.99 89.37 103.06 89.67 103.15 89.97 103.25 90.28 103.35 90.58 103.46 90.89 103.56 91.19 103.67 91.5 103.76 91.8 103.84 92.11 103.91 92.41 103.97 92.72 104.01 93.02 104.03 93.33 104.05 93.63 104.05 93.94 104.06 94.24 104.07 94.55 104.08 94.85 104.1 95.16 104.13 95.46 104.18 95.77 104.22 96.07 104.28 96.37 104.33 96.68 104.38 96.98 104.43 97.29 104.47 97.59 104.51 97.9 104.54 98.2 104.57 98.51 104.59 98.81 104.62 99.12 104.65 99.42 104.68 99.73 104.72 100.03 104.76 100.34 104.8 100.64 104.84 100.95 104.88 101.25 104.92 101.56 104.96 101.86 104.99 102.17 105.02 102.47 105.04 102.78 105.07 103.08 105.1 103.38 105.13 103.69 105.16 103.99 105.2 104.3 105.24 104.6 105.28 104.91 105.31 105.21 105.34 105.52 105.37 105.82 105.39 106.13 105.41 106.43 105.43 106.74 105.44 107.04 105.45 107.35 105.46 107.65 105.47 107.96 105.47 108.26 105.47 108.57 105.47 108.87 105.47 109.18 105.47 109.48 105.47 109.79 105.47 110.09 105.48 110.39 105.49 110.7 105.51 111 105.54 111.31 105.56 111.61 105.59 111.92 105.61 112.22 105.64 112.53 105.66 112.83 105.67 113.14 105.69 113.44 105.7 113.75 105.7 114.05 105.71 114.36 105.71 114.66 105.71 114.97 105.71 115.27 105.71 115.58 105.71 115.88 105.71 116.19 105.71 116.49 105.71 116.8 105.71"/>
      </g>
      <g stroke-width="0.3" fill="#000000" fill-opacity="0.000" class="geometry" stroke-dasharray="none" stroke="#00BFFF" id="img-edfc545c-15">
        <path fill="none" d="M38.33,105.71 L 38.64 105.71 38.95 105.7 39.27 105.68 39.58 105.64 39.89 105.57 40.2 105.44 40.51 105.21 40.82 104.82 41.13 104.21 41.44 103.27 41.75 101.87 42.06 99.91 42.37 97.24 42.68 93.77 42.99 89.44 43.3 84.28 43.61 78.39 43.92 71.94 44.23 65.2 44.55 58.48 44.86 52.09 45.17 46.34 45.48 41.44 45.79 37.54 46.1 34.7 46.41 32.86 46.72 31.94 47.03 31.76 47.34 32.15 47.65 32.95 47.96 33.99 48.27 35.16 48.58 36.36 48.89 37.55 49.2 38.68 49.52 39.75 49.83 40.77 50.14 41.75 50.45 42.7 50.76 43.63 51.07 44.56 51.38 45.47 51.69 46.39 52 47.3 52.31 48.21 52.62 49.14 52.93 50.09 53.24 51.08 53.55 52.1 53.86 53.18 54.17 54.3 54.48 55.47 54.8 56.65 55.11 57.85 55.42 59.05 55.73 60.23 56.04 61.39 56.35 62.52 56.66 63.62 56.97 64.7 57.28 65.74 57.59 66.76 57.9 67.75 58.21 68.7 58.52 69.61 58.83 70.48 59.14 71.29 59.45 72.06 59.77 72.78 60.08 73.46 60.39 74.11 60.7 74.75 61.01 75.38 61.32 76.02 61.63 76.69 61.94 77.37 62.25 78.08 62.56 78.79 62.87 79.5 63.18 80.17 63.49 80.81 63.8 81.4 64.11 81.93 64.42 82.4 64.73 82.83 65.05 83.22 65.36 83.59 65.67 83.95 65.98 84.3 66.29 84.65 66.6 85 66.91 85.34 67.22 85.67 67.53 86 67.84 86.32 68.15 86.64 68.46 86.97 68.77 87.32 69.08 87.69 69.39 88.1 69.7 88.53 70.02 88.99 70.33 89.47 70.64 89.97 70.95 90.48 71.26 90.99 71.57 91.49 71.88 91.97 72.19 92.44 72.5 92.89 72.81 93.31 73.12 93.73 73.43 94.12 73.74 94.49 74.05 94.83 74.36 95.14 74.67 95.41 74.98 95.64 75.3 95.83 75.61 95.97 75.92 96.08 76.23 96.17 76.54 96.25 76.85 96.33 77.16 96.43 77.47 96.55 77.78 96.69 78.09 96.86 78.4 97.04 78.71 97.23 79.02 97.44 79.33 97.66 79.64 97.88 79.95 98.11 80.27 98.34 80.58 98.58 80.89 98.81 81.2 99.05 81.51 99.28 81.82 99.5 82.13 99.71 82.44 99.9 82.75 100.08 83.06 100.24 83.37 100.39 83.68 100.53 83.99 100.67 84.3 100.81 84.61 100.96 84.92 101.11 85.23 101.26 85.55 101.41 85.86 101.56 86.17 101.71 86.48 101.84 86.79 101.96 87.1 102.07 87.41 102.17 87.72 102.25 88.03 102.34 88.34 102.42 88.65 102.51 88.96 102.6 89.27 102.7 89.58 102.8 89.89 102.91 90.2 103.03 90.52 103.14 90.83 103.25 91.14 103.36 91.45 103.46 91.76 103.55 92.07 103.62 92.38 103.67 92.69 103.71 93 103.73 93.31 103.74 93.62 103.75 93.93 103.75 94.24 103.75 94.55 103.76 94.86 103.78 95.17 103.81 95.48 103.86 95.8 103.91 96.11 103.96 96.42 104.02 96.73 104.07 97.04 104.12 97.35 104.16 97.66 104.2 97.97 104.23 98.28 104.25 98.59 104.28 98.9 104.31 99.21 104.35 99.52 104.39 99.83 104.43 100.14 104.48 100.45 104.54 100.77 104.6 101.08 104.65 101.39 104.7 101.7 104.75 102.01 104.8 102.32 104.85 102.63 104.89 102.94 104.93 103.25 104.97 103.56 105.02 103.87 105.06 104.18 105.11 104.49 105.15 104.8 105.2 105.11 105.24 105.42 105.28 105.74 105.31 106.05 105.33 106.36 105.36 106.67 105.37 106.98 105.39 107.29 105.39 107.6 105.4 107.91 105.4 108.22 105.4 108.53 105.4 108.84 105.4 109.15 105.4 109.46 105.4 109.77 105.41 110.08 105.42 110.39 105.44 110.7 105.46 111.02 105.49 111.33 105.52 111.64 105.55 111.95 105.58 112.26 105.61 112.57 105.63 112.88 105.65 113.19 105.67 113.5 105.68 113.81 105.69 114.12 105.7 114.43 105.71 114.74 105.71 115.05 105.71 115.36 105.71 115.67 105.71 115.99 105.71 116.3 105.71 116.61 105.71 116.92 105.71 117.23 105.71 117.54 105.71"/>
      </g>
      <g stroke-width="0.3" fill="#000000" fill-opacity="0.000" class="geometry" stroke-dasharray="none" stroke="#00BFFF" id="img-edfc545c-16">
        <path fill="none" d="M37.14,105.71 L 37.46 105.71 37.78 105.7 38.1 105.69 38.42 105.67 38.74 105.63 39.06 105.56 39.38 105.45 39.7 105.26 40.02 104.98 40.34 104.54 40.66 103.91 40.98 103 41.3 101.75 41.62 100.07 41.94 97.89 42.26 95.16 42.58 91.83 42.9 87.92 43.22 83.46 43.54 78.54 43.86 73.29 44.18 67.89 44.5 62.53 44.82 57.4 45.14 52.67 45.46 48.51 45.78 45.01 46.1 42.22 46.42 40.14 46.74 38.74 47.06 37.94 47.38 37.62 47.7 37.7 48.02 38.05 48.34 38.59 48.66 39.26 48.98 39.98 49.3 40.74 49.62 41.51 49.94 42.3 50.26 43.09 50.58 43.91 50.9 44.75 51.22 45.62 51.54 46.52 51.86 47.46 52.18 48.42 52.5 49.43 52.82 50.46 53.14 51.52 53.46 52.61 53.78 53.73 54.1 54.88 54.42 56.04 54.74 57.21 55.06 58.38 55.38 59.53 55.7 60.67 56.02 61.77 56.34 62.83 56.66 63.85 56.98 64.84 57.3 65.8 57.62 66.73 57.94 67.63 58.26 68.53 58.58 69.41 58.9 70.27 59.22 71.13 59.54 71.97 59.86 72.79 60.18 73.58 60.5 74.35 60.82 75.08 61.14 75.79 61.46 76.46 61.78 77.11 62.1 77.72 62.42 78.31 62.74 78.86 63.06 79.38 63.38 79.87 63.7 80.34 64.02 80.77 64.34 81.18 64.66 81.58 64.98 81.96 65.3 82.34 65.62 82.72 65.94 83.11 66.26 83.51 66.58 83.92 66.9 84.35 67.22 84.79 67.54 85.25 67.86 85.71 68.18 86.18 68.5 86.66 68.82 87.14 69.14 87.63 69.46 88.11 69.78 88.59 70.1 89.06 70.42 89.54 70.74 90 71.06 90.47 71.38 90.92 71.7 91.37 72.02 91.81 72.34 92.24 72.66 92.65 72.98 93.04 73.3 93.41 73.62 93.75 73.94 94.05 74.26 94.31 74.58 94.52 74.9 94.7 75.22 94.84 75.54 94.96 75.86 95.05 76.18 95.14 76.5 95.24 76.82 95.35 77.14 95.49 77.46 95.66 77.78 95.85 78.1 96.08 78.42 96.32 78.74 96.58 79.06 96.84 79.38 97.1 79.7 97.36 80.02 97.6 80.34 97.84 80.66 98.07 80.98 98.29 81.3 98.51 81.62 98.72 81.94 98.93 82.26 99.13 82.58 99.33 82.9 99.51 83.22 99.69 83.54 99.86 83.86 100.01 84.18 100.15 84.5 100.28 84.82 100.41 85.14 100.52 85.46 100.63 85.78 100.73 86.1 100.83 86.42 100.92 86.74 101.01 87.06 101.1 87.38 101.19 87.7 101.29 88.02 101.41 88.34 101.53 88.66 101.68 88.98 101.84 89.29 102.03 89.61 102.22 89.93 102.43 90.25 102.64 90.57 102.84 90.89 103.03 91.21 103.2 91.53 103.35 91.85 103.46 92.17 103.55 92.49 103.61 92.81 103.65 93.13 103.67 93.45 103.67 93.77 103.68 94.09 103.68 94.41 103.7 94.73 103.71 95.05 103.74 95.37 103.77 95.69 103.8 96.01 103.83 96.33 103.86 96.65 103.88 96.97 103.9 97.29 103.91 97.61 103.92 97.93 103.93 98.25 103.94 98.57 103.95 98.89 103.98 99.21 104.01 99.53 104.06 99.85 104.11 100.17 104.17 100.49 104.23 100.81 104.3 101.13 104.37 101.45 104.44 101.77 104.51 102.09 104.57 102.41 104.64 102.73 104.7 103.05 104.77 103.37 104.83 103.69 104.89 104.01 104.95 104.33 105.01 104.65 105.06 104.97 105.11 105.29 105.16 105.61 105.2 105.93 105.24 106.25 105.27 106.57 105.29 106.89 105.31 107.21 105.32 107.53 105.32 107.85 105.33 108.17 105.33 108.49 105.33 108.81 105.33 109.13 105.33 109.45 105.34 109.77 105.35 110.09 105.37 110.41 105.39 110.73 105.42 111.05 105.45 111.37 105.48 111.69 105.51 112.01 105.54 112.33 105.57 112.65 105.6 112.97 105.62 113.29 105.64 113.61 105.66 113.93 105.67 114.25 105.69 114.57 105.69 114.89 105.7 115.21 105.71 115.53 105.71 115.85 105.71 116.17 105.71 116.49 105.71 116.81 105.71 117.13 105.71 117.45 105.71 117.77 105.71 118.09 105.71 118.41 105.71 118.73 105.71"/>
      </g>
      <g stroke-width="0.3" fill="#000000" fill-opacity="0.000" class="geometry" stroke-dasharray="none" stroke="#00BFFF" id="img-edfc545c-17">
        <path fill="none" d="M36.32,105.71 L 36.64 105.71 36.97 105.71 37.3 105.7 37.62 105.7 37.95 105.68 38.28 105.66 38.61 105.62 38.93 105.55 39.26 105.46 39.59 105.31 39.91 105.1 40.24 104.79 40.57 104.37 40.9 103.81 41.22 103.06 41.55 102.1 41.88 100.89 42.21 99.43 42.53 97.7 42.86 95.69 43.19 93.43 43.51 90.96 43.84 88.32 44.17 85.58 44.5 82.82 44.82 80.1 45.15 77.51 45.48 75.1 45.81 72.95 46.13 71.08 46.46 69.51 46.79 68.25 47.11 67.29 47.44 66.61 47.77 66.17 48.1 65.94 48.42 65.88 48.75 65.96 49.08 66.14 49.4 66.4 49.73 66.71 50.06 67.07 50.39 67.46 50.71 67.87 51.04 68.29 51.37 68.73 51.7 69.17 52.02 69.62 52.35 70.06 52.68 70.49 53 70.91 53.33 71.31 53.66 71.69 53.99 72.03 54.31 72.36 54.64 72.65 54.97 72.92 55.29 73.18 55.62 73.42 55.95 73.65 56.28 73.88 56.6 74.11 56.93 74.35 57.26 74.6 57.59 74.86 57.91 75.13 58.24 75.41 58.57 75.7 58.89 75.99 59.22 76.28 59.55 76.57 59.88 76.85 60.2 77.13 60.53 77.4 60.86 77.66 61.18 77.91 61.51 78.16 61.84 78.41 62.17 78.65 62.49 78.89 62.82 79.13 63.15 79.37 63.48 79.62 63.8 79.86 64.13 80.1 64.46 80.34 64.78 80.59 65.11 80.83 65.44 81.07 65.77 81.32 66.09 81.57 66.42 81.82 66.75 82.08 67.07 82.33 67.4 82.6 67.73 82.86 68.06 83.13 68.38 83.39 68.71 83.66 69.04 83.92 69.37 84.19 69.69 84.44 70.02 84.69 70.35 84.94 70.67 85.17 71 85.38 71.33 85.58 71.66 85.77 71.98 85.95 72.31 86.1 72.64 86.25 72.96 86.39 73.29 86.52 73.62 86.65 73.95 86.77 74.27 86.9 74.6 87.04 74.93 87.18 75.26 87.33 75.58 87.49 75.91 87.66 76.24 87.84 76.56 88.03 76.89 88.22 77.22 88.41 77.55 88.6 77.87 88.79 78.2 88.97 78.53 89.14 78.85 89.3 79.18 89.44 79.51 89.58 79.84 89.71 80.16 89.83 80.49 89.94 80.82 90.04 81.15 90.15 81.47 90.24 81.8 90.34 82.13 90.44 82.45 90.54 82.78 90.65 83.11 90.76 83.44 90.89 83.76 91.02 84.09 91.17 84.42 91.32 84.74 91.48 85.07 91.65 85.4 91.81 85.73 91.98 86.05 92.15 86.38 92.31 86.71 92.47 87.04 92.61 87.36 92.75 87.69 92.89 88.02 93.02 88.34 93.14 88.67 93.26 89 93.37 89.33 93.49 89.65 93.6 89.98 93.72 90.31 93.84 90.63 93.96 90.96 94.08 91.29 94.21 91.62 94.35 91.94 94.5 92.27 94.65 92.6 94.8 92.93 94.96 93.25 95.12 93.58 95.29 93.91 95.44 94.23 95.59 94.56 95.73 94.89 95.86 95.22 95.97 95.54 96.08 95.87 96.17 96.2 96.25 96.52 96.33 96.85 96.4 97.18 96.47 97.51 96.54 97.83 96.61 98.16 96.69 98.49 96.77 98.82 96.84 99.14 96.92 99.47 97 99.8 97.08 100.12 97.15 100.45 97.22 100.78 97.29 101.11 97.36 101.43 97.42 101.76 97.48 102.09 97.55 102.41 97.61 102.74 97.68 103.07 97.76 103.4 97.83 103.72 97.91 104.05 97.99 104.38 98.06 104.71 98.14 105.03 98.2 105.36 98.26 105.69 98.31 106.01 98.36 106.34 98.41 106.67 98.45 107 98.5 107.32 98.57 107.65 98.64 107.98 98.75 108.3 98.88 108.63 99.04 108.96 99.25 109.29 99.49 109.61 99.78 109.94 100.1 110.27 100.47 110.6 100.86 110.92 101.29 111.25 101.73 111.58 102.18 111.9 102.63 112.23 103.06 112.56 103.48 112.89 103.86 113.21 104.21 113.54 104.51 113.87 104.77 114.2 104.99 114.52 105.17 114.85 105.32 115.18 105.43 115.5 105.51 115.83 105.58 116.16 105.62 116.49 105.65 116.81 105.68 117.14 105.69 117.47 105.7 117.79 105.71 118.12 105.71 118.45 105.71 118.78 105.71 119.1 105.71 119.43 105.71 119.76 105.71"/>
      </g>
      <g stroke-width="0.3" fill="#000000" fill-opacity="0.000" class="geometry" stroke-dasharray="none" stroke="#00BFFF" id="img-edfc545c-18">
        <path fill="none" d="M35.86,105.71 L 36.19 105.71 36.52 105.71 36.85 105.71 37.18 105.7 37.51 105.69 37.84 105.67 38.17 105.64 38.5 105.59 38.84 105.52 39.17 105.42 39.5 105.27 39.83 105.05 40.16 104.75 40.49 104.34 40.82 103.81 41.15 103.11 41.48 102.24 41.81 101.16 42.14 99.86 42.47 98.34 42.8 96.6 43.14 94.65 43.47 92.53 43.8 90.26 44.13 87.9 44.46 85.51 44.79 83.15 45.12 80.87 45.45 78.73 45.78 76.78 46.11 75.05 46.44 73.57 46.77 72.34 47.11 71.35 47.44 70.6 47.77 70.07 48.1 69.72 48.43 69.53 48.76 69.47 49.09 69.52 49.42 69.64 49.75 69.83 50.08 70.06 50.41 70.33 50.74 70.63 51.08 70.94 51.41 71.28 51.74 71.63 52.07 71.99 52.4 72.35 52.73 72.71 53.06 73.07 53.39 73.42 53.72 73.75 54.05 74.07 54.38 74.36 54.71 74.63 55.05 74.88 55.38 75.1 55.71 75.31 56.04 75.5 56.37 75.68 56.7 75.85 57.03 76.02 57.36 76.19 57.69 76.36 58.02 76.54 58.35 76.73 58.68 76.92 59.01 77.11 59.35 77.31 59.68 77.5 60.01 77.7 60.34 77.9 60.67 78.1 61 78.29 61.33 78.48 61.66 78.67 61.99 78.86 62.32 79.05 62.65 79.24 62.98 79.44 63.32 79.64 63.65 79.84 63.98 80.04 64.31 80.25 64.64 80.47 64.97 80.69 65.3 80.92 65.63 81.15 65.96 81.39 66.29 81.63 66.62 81.87 66.95 82.12 67.29 82.36 67.62 82.61 67.95 82.86 68.28 83.1 68.61 83.35 68.94 83.59 69.27 83.83 69.6 84.07 69.93 84.3 70.26 84.53 70.59 84.75 70.92 84.95 71.25 85.15 71.59 85.34 71.92 85.51 72.25 85.66 72.58 85.81 72.91 85.94 73.24 86.07 73.57 86.19 73.9 86.3 74.23 86.42 74.56 86.54 74.89 86.67 75.22 86.8 75.56 86.94 75.89 87.09 76.22 87.25 76.55 87.42 76.88 87.6 77.21 87.77 77.54 87.94 77.87 88.12 78.2 88.28 78.53 88.43 78.86 88.58 79.19 88.71 79.53 88.83 79.86 88.93 80.19 89.02 80.52 89.11 80.85 89.18 81.18 89.25 81.51 89.31 81.84 89.38 82.17 89.45 82.5 89.52 82.83 89.6 83.16 89.7 83.5 89.8 83.83 89.92 84.16 90.05 84.49 90.19 84.82 90.35 85.15 90.5 85.48 90.66 85.81 90.83 86.14 90.99 86.47 91.14 86.8 91.29 87.13 91.43 87.46 91.57 87.8 91.7 88.13 91.82 88.46 91.94 88.79 92.05 89.12 92.16 89.45 92.27 89.78 92.38 90.11 92.5 90.44 92.62 90.77 92.74 91.1 92.87 91.43 93.01 91.77 93.15 92.1 93.31 92.43 93.46 92.76 93.63 93.09 93.79 93.42 93.96 93.75 94.12 94.08 94.28 94.41 94.43 94.74 94.57 95.07 94.7 95.4 94.82 95.74 94.93 96.07 95.03 96.4 95.13 96.73 95.21 97.06 95.3 97.39 95.38 97.72 95.46 98.05 95.54 98.38 95.62 98.71 95.7 99.04 95.78 99.37 95.86 99.71 95.93 100.04 96.01 100.37 96.08 100.7 96.14 101.03 96.21 101.36 96.28 101.69 96.35 102.02 96.42 102.35 96.49 102.68 96.57 103.01 96.65 103.34 96.74 103.67 96.82 104.01 96.9 104.34 96.98 104.67 97.06 105 97.13 105.33 97.19 105.66 97.26 105.99 97.31 106.32 97.37 106.65 97.43 106.98 97.5 107.31 97.58 107.64 97.68 107.98 97.81 108.31 97.97 108.64 98.17 108.97 98.41 109.3 98.7 109.63 99.03 109.96 99.4 110.29 99.81 110.62 100.26 110.95 100.73 111.28 101.22 111.61 101.72 111.95 102.21 112.28 102.69 112.61 103.14 112.94 103.56 113.27 103.95 113.6 104.29 113.93 104.58 114.26 104.84 114.59 105.04 114.92 105.21 115.25 105.35 115.58 105.45 115.91 105.53 116.25 105.59 116.58 105.63 116.91 105.66 117.24 105.68 117.57 105.69 117.9 105.7 118.23 105.71 118.56 105.71 118.89 105.71 119.22 105.71 119.55 105.71 119.88 105.71 120.22 105.71"/>
      </g>
      <g stroke-width="0.3" fill="#000000" fill-opacity="0.000" class="geometry" stroke-dasharray="none" stroke="#00BFFF" id="img-edfc545c-19">
        <path fill="none" d="M35.29,105.71 L 35.63 105.71 35.96 105.71 36.3 105.71 36.63 105.7 36.97 105.69 37.3 105.68 37.64 105.66 37.98 105.62 38.31 105.57 38.65 105.5 38.98 105.39 39.32 105.23 39.65 105.02 39.99 104.73 40.32 104.35 40.66 103.85 40.99 103.22 41.33 102.43 41.66 101.48 42 100.35 42.33 99.03 42.67 97.54 43 95.87 43.34 94.05 43.67 92.11 44.01 90.08 44.34 88.02 44.68 85.97 45.02 83.97 45.35 82.07 45.69 80.31 46.02 78.72 46.36 77.31 46.69 76.11 47.03 75.11 47.36 74.31 47.7 73.7 48.03 73.26 48.37 72.96 48.7 72.79 49.04 72.73 49.37 72.76 49.71 72.85 50.04 73.01 50.38 73.2 50.71 73.44 51.05 73.69 51.38 73.97 51.72 74.26 52.06 74.56 52.39 74.86 52.73 75.16 53.06 75.45 53.4 75.73 53.73 75.99 54.07 76.23 54.4 76.46 54.74 76.66 55.07 76.84 55.41 77 55.74 77.14 56.08 77.28 56.41 77.4 56.75 77.51 57.08 77.63 57.42 77.74 57.75 77.85 58.09 77.97 58.42 78.09 58.76 78.22 59.1 78.36 59.43 78.5 59.77 78.64 60.1 78.79 60.44 78.95 60.77 79.11 61.11 79.27 61.44 79.43 61.78 79.6 62.11 79.76 62.45 79.93 62.78 80.1 63.12 80.26 63.45 80.43 63.79 80.6 64.12 80.76 64.46 80.93 64.79 81.1 65.13 81.28 65.47 81.46 65.8 81.65 66.14 81.85 66.47 82.06 66.81 82.27 67.14 82.5 67.48 82.73 67.81 82.97 68.15 83.22 68.48 83.46 68.82 83.71 69.15 83.96 69.49 84.2 69.82 84.43 70.16 84.65 70.49 84.85 70.83 85.04 71.16 85.2 71.5 85.35 71.83 85.47 72.17 85.58 72.51 85.67 72.84 85.75 73.18 85.81 73.51 85.87 73.85 85.93 74.18 86 74.52 86.07 74.85 86.15 75.19 86.24 75.52 86.35 75.86 86.47 76.19 86.6 76.53 86.75 76.86 86.9 77.2 87.05 77.53 87.21 77.87 87.36 78.2 87.51 78.54 87.65 78.87 87.78 79.21 87.9 79.55 88.01 79.88 88.11 80.22 88.19 80.55 88.27 80.89 88.34 81.22 88.4 81.56 88.46 81.89 88.52 82.23 88.59 82.56 88.65 82.9 88.72 83.23 88.81 83.57 88.9 83.9 89 84.24 89.11 84.57 89.23 84.91 89.35 85.24 89.49 85.58 89.62 85.91 89.76 86.25 89.9 86.59 90.03 86.92 90.16 87.26 90.29 87.59 90.4 87.93 90.52 88.26 90.63 88.6 90.74 88.93 90.84 89.27 90.94 89.6 91.05 89.94 91.16 90.27 91.27 90.61 91.39 90.94 91.52 91.28 91.66 91.61 91.8 91.95 91.96 92.28 92.12 92.62 92.3 92.95 92.47 93.29 92.65 93.63 92.82 93.96 92.99 94.3 93.15 94.63 93.3 94.97 93.43 95.3 93.56 95.64 93.66 95.97 93.76 96.31 93.84 96.64 93.92 96.98 93.99 97.31 94.05 97.65 94.12 97.98 94.18 98.32 94.24 98.65 94.3 98.99 94.37 99.32 94.43 99.66 94.5 100 94.56 100.33 94.63 100.67 94.7 101 94.76 101.34 94.83 101.67 94.91 102.01 94.98 102.34 95.06 102.68 95.14 103.01 95.23 103.35 95.32 103.68 95.41 104.02 95.5 104.35 95.59 104.69 95.68 105.02 95.77 105.36 95.85 105.69 95.92 106.03 96 106.36 96.08 106.7 96.17 107.04 96.27 107.37 96.38 107.71 96.53 108.04 96.7 108.38 96.91 108.71 97.16 109.05 97.45 109.38 97.79 109.72 98.18 110.05 98.61 110.39 99.08 110.72 99.59 111.06 100.12 111.39 100.67 111.73 101.22 112.06 101.76 112.4 102.29 112.73 102.79 113.07 103.25 113.4 103.68 113.74 104.06 114.08 104.39 114.41 104.67 114.75 104.91 115.08 105.1 115.42 105.26 115.75 105.38 116.09 105.47 116.42 105.54 116.76 105.6 117.09 105.63 117.43 105.66 117.76 105.68 118.1 105.69 118.43 105.7 118.77 105.71 119.1 105.71 119.44 105.71 119.77 105.71 120.11 105.71 120.44 105.71 120.78 105.71"/>
      </g>
      <g stroke-width="0.3" fill="#000000" fill-opacity="0.000" class="geometry" stroke-dasharray="none" stroke="#00BFFF" id="img-edfc545c-20">
        <path fill="none" d="M34.59,105.71 L 34.93 105.71 35.27 105.71 35.61 105.71 35.95 105.71 36.29 105.7 36.64 105.69 36.98 105.67 37.32 105.65 37.66 105.61 38 105.56 38.34 105.49 38.68 105.39 39.02 105.24 39.36 105.05 39.7 104.8 40.04 104.47 40.38 104.05 40.72 103.53 41.06 102.88 41.41 102.11 41.75 101.19 42.09 100.14 42.43 98.94 42.77 97.61 43.11 96.15 43.45 94.59 43.79 92.96 44.13 91.28 44.47 89.58 44.81 87.91 45.15 86.29 45.49 84.75 45.84 83.32 46.18 82.02 46.52 80.86 46.86 79.84 47.2 78.98 47.54 78.26 47.88 77.68 48.22 77.23 48.56 76.88 48.9 76.64 49.24 76.47 49.58 76.39 49.92 76.36 50.27 76.39 50.61 76.46 50.95 76.58 51.29 76.73 51.63 76.9 51.97 77.1 52.31 77.32 52.65 77.55 52.99 77.78 53.33 78.01 53.67 78.24 54.01 78.46 54.35 78.67 54.69 78.86 55.04 79.03 55.38 79.19 55.72 79.33 56.06 79.45 56.4 79.56 56.74 79.66 57.08 79.74 57.42 79.82 57.76 79.9 58.1 79.98 58.44 80.05 58.78 80.12 59.12 80.19 59.47 80.27 59.81 80.35 60.15 80.43 60.49 80.51 60.83 80.59 61.17 80.68 61.51 80.77 61.85 80.86 62.19 80.95 62.53 81.05 62.87 81.16 63.21 81.26 63.55 81.38 63.9 81.49 64.24 81.62 64.58 81.74 64.92 81.88 65.26 82.02 65.6 82.16 65.94 82.32 66.28 82.48 66.62 82.65 66.96 82.83 67.3 83.02 67.64 83.21 67.98 83.41 68.33 83.61 68.67 83.81 69.01 84.01 69.35 84.2 69.69 84.39 70.03 84.56 70.37 84.73 70.71 84.87 71.05 85.01 71.39 85.12 71.73 85.22 72.07 85.31 72.41 85.38 72.75 85.44 73.1 85.49 73.44 85.53 73.78 85.58 74.12 85.63 74.46 85.69 74.8 85.75 75.14 85.83 75.48 85.91 75.82 86.01 76.16 86.12 76.5 86.24 76.84 86.36 77.18 86.48 77.53 86.61 77.87 86.73 78.21 86.85 78.55 86.96 78.89 87.06 79.23 87.16 79.57 87.25 79.91 87.33 80.25 87.4 80.59 87.47 80.93 87.53 81.27 87.59 81.61 87.65 81.96 87.71 82.3 87.77 82.64 87.83 82.98 87.9 83.32 87.97 83.66 88.04 84 88.12 84.34 88.2 84.68 88.28 85.02 88.37 85.36 88.46 85.7 88.54 86.04 88.63 86.39 88.72 86.73 88.8 87.07 88.89 87.41 88.97 87.75 89.06 88.09 89.15 88.43 89.23 88.77 89.32 89.11 89.42 89.45 89.52 89.79 89.62 90.13 89.73 90.47 89.85 90.81 89.97 91.16 90.1 91.5 90.24 91.84 90.38 92.18 90.53 92.52 90.68 92.86 90.83 93.2 90.98 93.54 91.12 93.88 91.26 94.22 91.39 94.56 91.52 94.9 91.63 95.24 91.73 95.59 91.83 95.93 91.92 96.27 92 96.61 92.07 96.95 92.15 97.29 92.22 97.63 92.29 97.97 92.36 98.31 92.43 98.65 92.51 98.99 92.58 99.33 92.65 99.67 92.72 100.02 92.79 100.36 92.86 100.7 92.92 101.04 92.99 101.38 93.05 101.72 93.11 102.06 93.17 102.4 93.24 102.74 93.31 103.08 93.38 103.42 93.46 103.76 93.54 104.1 93.62 104.45 93.71 104.79 93.8 105.13 93.89 105.47 93.98 105.81 94.08 106.15 94.18 106.49 94.3 106.83 94.43 107.17 94.59 107.51 94.77 107.85 94.99 108.19 95.24 108.53 95.54 108.87 95.89 109.22 96.29 109.56 96.73 109.9 97.22 110.24 97.76 110.58 98.32 110.92 98.92 111.26 99.53 111.6 100.16 111.94 100.77 112.28 101.38 112.62 101.95 112.96 102.5 113.3 103 113.65 103.46 113.99 103.86 114.33 104.22 114.67 104.52 115.01 104.78 115.35 105 115.69 105.17 116.03 105.31 116.37 105.42 116.71 105.5 117.05 105.56 117.39 105.61 117.73 105.64 118.08 105.67 118.42 105.68 118.76 105.69 119.1 105.7 119.44 105.71 119.78 105.71 120.12 105.71 120.46 105.71 120.8 105.71 121.14 105.71 121.48 105.71"/>
      </g>
      <g stroke-width="0.3" fill="#000000" fill-opacity="0.000" class="geometry" stroke-dasharray="none" stroke="#00BFFF" id="img-edfc545c-21">
        <path fill="none" d="M33.75,105.71 L 34.1 105.71 34.45 105.71 34.79 105.71 35.14 105.71 35.49 105.7 35.84 105.7 36.18 105.69 36.53 105.67 36.88 105.65 37.23 105.61 37.57 105.57 37.92 105.5 38.27 105.41 38.62 105.29 38.96 105.13 39.31 104.93 39.66 104.66 40 104.33 40.35 103.91 40.7 103.41 41.05 102.8 41.39 102.1 41.74 101.28 42.09 100.35 42.44 99.3 42.78 98.16 43.13 96.93 43.48 95.62 43.82 94.26 44.17 92.86 44.52 91.45 44.87 90.05 45.21 88.7 45.56 87.4 45.91 86.18 46.26 85.06 46.6 84.04 46.95 83.14 47.3 82.35 47.65 81.69 47.99 81.13 48.34 80.68 48.69 80.33 49.03 80.08 49.38 79.9 49.73 79.8 50.08 79.76 50.42 79.78 50.77 79.84 51.12 79.95 51.47 80.08 51.81 80.25 52.16 80.43 52.51 80.62 52.86 80.81 53.2 81.01 53.55 81.19 53.9 81.37 54.24 81.53 54.59 81.66 54.94 81.78 55.29 81.88 55.63 81.95 55.98 82 56.33 82.03 56.68 82.04 57.02 82.04 57.37 82.02 57.72 82 58.07 81.97 58.41 81.94 58.76 81.91 59.11 81.88 59.45 81.85 59.8 81.83 60.15 81.82 60.5 81.82 60.84 81.83 61.19 81.85 61.54 81.87 61.89 81.91 62.23 81.95 62.58 81.99 62.93 82.04 63.28 82.1 63.62 82.15 63.97 82.21 64.32 82.28 64.66 82.34 65.01 82.42 65.36 82.49 65.71 82.58 66.05 82.68 66.4 82.79 66.75 82.9 67.1 83.03 67.44 83.17 67.79 83.32 68.14 83.48 68.49 83.64 68.83 83.8 69.18 83.96 69.53 84.11 69.87 84.26 70.22 84.4 70.57 84.52 70.92 84.63 71.26 84.73 71.61 84.82 71.96 84.89 72.31 84.95 72.65 85.01 73 85.06 73.35 85.1 73.7 85.15 74.04 85.2 74.39 85.26 74.74 85.32 75.08 85.39 75.43 85.46 75.78 85.55 76.13 85.64 76.47 85.74 76.82 85.84 77.17 85.94 77.52 86.04 77.86 86.14 78.21 86.24 78.56 86.33 78.9 86.41 79.25 86.49 79.6 86.56 79.95 86.62 80.29 86.68 80.64 86.73 80.99 86.77 81.34 86.81 81.68 86.85 82.03 86.88 82.38 86.91 82.73 86.94 83.07 86.97 83.42 87 83.77 87.03 84.11 87.07 84.46 87.11 84.81 87.15 85.16 87.19 85.5 87.24 85.85 87.3 86.2 87.35 86.55 87.42 86.89 87.48 87.24 87.56 87.59 87.64 87.94 87.72 88.28 87.81 88.63 87.91 88.98 88.01 89.32 88.12 89.67 88.24 90.02 88.36 90.37 88.49 90.71 88.63 91.06 88.77 91.41 88.92 91.76 89.06 92.1 89.21 92.45 89.35 92.8 89.49 93.15 89.62 93.49 89.75 93.84 89.87 94.19 89.98 94.53 90.07 94.88 90.16 95.23 90.24 95.58 90.31 95.92 90.38 96.27 90.44 96.62 90.5 96.97 90.55 97.31 90.61 97.66 90.67 98.01 90.73 98.36 90.79 98.7 90.85 99.05 90.92 99.4 90.99 99.74 91.06 100.09 91.14 100.44 91.21 100.79 91.28 101.13 91.36 101.48 91.43 101.83 91.5 102.18 91.57 102.52 91.64 102.87 91.71 103.22 91.78 103.57 91.85 103.91 91.92 104.26 91.98 104.61 92.05 104.95 92.13 105.3 92.21 105.65 92.29 106 92.4 106.34 92.52 106.69 92.66 107.04 92.83 107.39 93.04 107.73 93.28 108.08 93.58 108.43 93.92 108.78 94.31 109.12 94.76 109.47 95.26 109.82 95.8 110.16 96.4 110.51 97.03 110.86 97.69 111.21 98.37 111.55 99.06 111.9 99.75 112.25 100.42 112.6 101.08 112.94 101.69 113.29 102.27 113.64 102.8 113.99 103.28 114.33 103.71 114.68 104.08 115.03 104.41 115.37 104.68 115.72 104.91 116.07 105.09 116.42 105.24 116.76 105.36 117.11 105.45 117.46 105.53 117.81 105.58 118.15 105.62 118.5 105.65 118.85 105.67 119.19 105.68 119.54 105.69 119.89 105.7 120.24 105.71 120.58 105.71 120.93 105.71 121.28 105.71 121.63 105.71 121.97 105.71 122.32 105.71"/>
      </g>
      <g stroke-width="0.3" fill="#000000" fill-opacity="0.000" class="geometry" stroke-dasharray="none" stroke="#00BFFF" id="img-edfc545c-22">
        <path fill="none" d="M32.4,105.71 L 32.76 105.71 33.12 105.71 33.48 105.71 33.83 105.71 34.19 105.71 34.55 105.7 34.91 105.69 35.26 105.68 35.62 105.67 35.98 105.65 36.34 105.62 36.7 105.58 37.05 105.53 37.41 105.46 37.77 105.37 38.13 105.24 38.49 105.09 38.84 104.9 39.2 104.65 39.56 104.36 39.92 104 40.28 103.57 40.63 103.07 40.99 102.49 41.35 101.83 41.71 101.09 42.07 100.26 42.42 99.36 42.78 98.39 43.14 97.36 43.5 96.27 43.86 95.15 44.21 94.01 44.57 92.87 44.93 91.74 45.29 90.63 45.64 89.57 46 88.56 46.36 87.62 46.72 86.75 47.08 85.97 47.43 85.27 47.79 84.65 48.15 84.13 48.51 83.69 48.87 83.34 49.22 83.06 49.58 82.85 49.94 82.71 50.3 82.63 50.66 82.6 51.01 82.62 51.37 82.67 51.73 82.76 52.09 82.86 52.45 82.98 52.8 83.1 53.16 83.23 53.52 83.35 53.88 83.46 54.23 83.55 54.59 83.63 54.95 83.69 55.31 83.72 55.67 83.74 56.02 83.73 56.38 83.71 56.74 83.67 57.1 83.62 57.46 83.56 57.81 83.5 58.17 83.43 58.53 83.36 58.89 83.3 59.25 83.25 59.6 83.2 59.96 83.16 60.32 83.13 60.68 83.12 61.04 83.12 61.39 83.13 61.75 83.14 62.11 83.17 62.47 83.21 62.82 83.25 63.18 83.3 63.54 83.35 63.9 83.4 64.26 83.46 64.61 83.51 64.97 83.57 65.33 83.63 65.69 83.69 66.05 83.75 66.4 83.81 66.76 83.88 67.12 83.95 67.48 84.03 67.84 84.11 68.19 84.18 68.55 84.26 68.91 84.34 69.27 84.42 69.63 84.5 69.98 84.57 70.34 84.64 70.7 84.7 71.06 84.76 71.42 84.82 71.77 84.87 72.13 84.93 72.49 84.98 72.85 85.03 73.2 85.08 73.56 85.14 73.92 85.2 74.28 85.27 74.64 85.34 74.99 85.42 75.35 85.5 75.71 85.58 76.07 85.67 76.43 85.75 76.78 85.84 77.14 85.92 77.5 85.99 77.86 86.07 78.22 86.13 78.57 86.19 78.93 86.25 79.29 86.29 79.65 86.34 80.01 86.38 80.36 86.41 80.72 86.45 81.08 86.48 81.44 86.51 81.79 86.54 82.15 86.57 82.51 86.6 82.87 86.63 83.23 86.66 83.58 86.69 83.94 86.72 84.3 86.74 84.66 86.77 85.02 86.8 85.37 86.83 85.73 86.85 86.09 86.88 86.45 86.91 86.81 86.94 87.16 86.97 87.52 87.01 87.88 87.05 88.24 87.1 88.6 87.15 88.95 87.22 89.31 87.3 89.67 87.38 90.03 87.48 90.38 87.59 90.74 87.7 91.1 87.82 91.46 87.95 91.82 88.08 92.17 88.21 92.53 88.34 92.89 88.46 93.25 88.58 93.61 88.68 93.96 88.78 94.32 88.86 94.68 88.93 95.04 88.98 95.4 89.02 95.75 89.05 96.11 89.07 96.47 89.09 96.83 89.1 97.19 89.1 97.54 89.11 97.9 89.12 98.26 89.13 98.62 89.15 98.98 89.18 99.33 89.21 99.69 89.24 100.05 89.29 100.41 89.34 100.76 89.39 101.12 89.44 101.48 89.5 101.84 89.55 102.2 89.61 102.55 89.67 102.91 89.72 103.27 89.77 103.63 89.83 103.99 89.88 104.34 89.94 104.7 90.01 105.06 90.08 105.42 90.17 105.78 90.27 106.13 90.4 106.49 90.55 106.85 90.74 107.21 90.96 107.57 91.23 107.92 91.55 108.28 91.91 108.64 92.33 109 92.81 109.35 93.34 109.71 93.93 110.07 94.56 110.43 95.23 110.79 95.94 111.14 96.67 111.5 97.42 111.86 98.17 112.22 98.92 112.58 99.65 112.93 100.35 113.29 101.02 113.65 101.65 114.01 102.24 114.37 102.77 114.72 103.24 115.08 103.67 115.44 104.04 115.8 104.36 116.16 104.63 116.51 104.85 116.87 105.04 117.23 105.2 117.59 105.32 117.94 105.42 118.3 105.49 118.66 105.55 119.02 105.6 119.38 105.63 119.73 105.66 120.09 105.67 120.45 105.69 120.81 105.7 121.17 105.7 121.52 105.71 121.88 105.71 122.24 105.71 122.6 105.71 122.96 105.71 123.31 105.71 123.67 105.71"/>
      </g>
      <g stroke-width="0.3" fill="#000000" fill-opacity="0.000" class="geometry" stroke-dasharray="none" stroke="#00BFFF" id="img-edfc545c-23">
        <path fill="none" d="M29.66,105.71 L 30.04 105.71 30.42 105.71 30.8 105.71 31.18 105.71 31.56 105.71 31.94 105.71 32.32 105.7 32.7 105.7 33.08 105.69 33.46 105.68 33.83 105.67 34.21 105.65 34.59 105.63 34.97 105.6 35.35 105.56 35.73 105.51 36.11 105.45 36.49 105.37 36.87 105.27 37.25 105.15 37.63 105 38.01 104.82 38.39 104.6 38.77 104.34 39.15 104.03 39.53 103.68 39.91 103.28 40.28 102.82 40.66 102.31 41.04 101.73 41.42 101.1 41.8 100.42 42.18 99.69 42.56 98.91 42.94 98.08 43.32 97.23 43.7 96.35 44.08 95.46 44.46 94.56 44.84 93.67 45.22 92.8 45.6 91.95 45.98 91.14 46.36 90.38 46.73 89.67 47.11 89.02 47.49 88.43 47.87 87.91 48.25 87.46 48.63 87.08 49.01 86.76 49.39 86.51 49.77 86.31 50.15 86.17 50.53 86.08 50.91 86.03 51.29 86.02 51.67 86.03 52.05 86.06 52.43 86.11 52.81 86.17 53.18 86.23 53.56 86.29 53.94 86.34 54.32 86.38 54.7 86.41 55.08 86.42 55.46 86.4 55.84 86.37 56.22 86.32 56.6 86.25 56.98 86.16 57.36 86.06 57.74 85.94 58.12 85.82 58.5 85.68 58.88 85.55 59.26 85.41 59.64 85.28 60.01 85.15 60.39 85.04 60.77 84.93 61.15 84.85 61.53 84.78 61.91 84.72 62.29 84.69 62.67 84.67 63.05 84.67 63.43 84.68 63.81 84.71 64.19 84.75 64.57 84.8 64.95 84.86 65.33 84.93 65.71 85 66.09 85.07 66.46 85.14 66.84 85.22 67.22 85.29 67.6 85.36 67.98 85.42 68.36 85.48 68.74 85.53 69.12 85.57 69.5 85.61 69.88 85.64 70.26 85.67 70.64 85.69 71.02 85.71 71.4 85.72 71.78 85.73 72.16 85.74 72.54 85.76 72.91 85.77 73.29 85.78 73.67 85.8 74.05 85.83 74.43 85.86 74.81 85.9 75.19 85.94 75.57 85.98 75.95 86.04 76.33 86.09 76.71 86.15 77.09 86.2 77.47 86.26 77.85 86.31 78.23 86.36 78.61 86.4 78.99 86.44 79.36 86.47 79.74 86.49 80.12 86.5 80.5 86.51 80.88 86.51 81.26 86.5 81.64 86.48 82.02 86.47 82.4 86.45 82.78 86.42 83.16 86.4 83.54 86.37 83.92 86.35 84.3 86.33 84.68 86.31 85.06 86.29 85.44 86.28 85.81 86.27 86.19 86.27 86.57 86.27 86.95 86.28 87.33 86.29 87.71 86.31 88.09 86.34 88.47 86.38 88.85 86.43 89.23 86.49 89.61 86.55 89.99 86.62 90.37 86.7 90.75 86.78 91.13 86.87 91.51 86.96 91.89 87.06 92.26 87.15 92.64 87.24 93.02 87.32 93.4 87.4 93.78 87.48 94.16 87.54 94.54 87.59 94.92 87.64 95.3 87.67 95.68 87.69 96.06 87.71 96.44 87.71 96.82 87.7 97.2 87.68 97.58 87.66 97.96 87.62 98.34 87.58 98.71 87.53 99.09 87.48 99.47 87.42 99.85 87.35 100.23 87.27 100.61 87.2 100.99 87.12 101.37 87.04 101.75 86.96 102.13 86.88 102.51 86.81 102.89 86.75 103.27 86.7 103.65 86.66 104.03 86.64 104.41 86.65 104.79 86.69 105.16 86.76 105.54 86.87 105.92 87.02 106.3 87.22 106.68 87.47 107.06 87.77 107.44 88.13 107.82 88.55 108.2 89.02 108.58 89.56 108.96 90.15 109.34 90.79 109.72 91.48 110.1 92.22 110.48 92.99 110.86 93.79 111.24 94.61 111.61 95.44 111.99 96.27 112.37 97.1 112.75 97.91 113.13 98.69 113.51 99.45 113.89 100.16 114.27 100.83 114.65 101.46 115.03 102.03 115.41 102.56 115.79 103.03 116.17 103.45 116.55 103.82 116.93 104.15 117.31 104.43 117.69 104.67 118.07 104.87 118.44 105.04 118.82 105.18 119.2 105.29 119.58 105.39 119.96 105.46 120.34 105.52 120.72 105.57 121.1 105.61 121.48 105.63 121.86 105.66 122.24 105.67 122.62 105.68 123 105.69 123.38 105.7 123.76 105.7 124.14 105.71 124.52 105.71 124.89 105.71 125.27 105.71 125.65 105.71 126.03 105.71 126.41 105.71"/>
      </g>
      <g stroke-width="0.3" fill="#000000" fill-opacity="0.000" class="geometry" stroke-dasharray="none" stroke="#00BFFF" id="img-edfc545c-24">
        <path fill="none" d="M36.61,105.71 L 36.94 105.71 37.26 105.71 37.59 105.7 37.91 105.68 38.23 105.66 38.56 105.61 38.88 105.54 39.21 105.43 39.53 105.25 39.85 104.99 40.18 104.6 40.5 104.04 40.82 103.27 41.15 102.22 41.47 100.84 41.8 99.08 42.12 96.88 42.44 94.2 42.77 91.05 43.09 87.44 43.41 83.41 43.74 79.04 44.06 74.43 44.39 69.72 44.71 65.04 45.03 60.53 45.36 56.33 45.68 52.54 46.01 49.26 46.33 46.54 46.65 44.39 46.98 42.81 47.3 41.76 47.62 41.19 47.95 41.03 48.27 41.21 48.6 41.66 48.92 42.32 49.24 43.13 49.57 44.05 49.89 45.04 50.22 46.08 50.54 47.15 50.86 48.23 51.19 49.33 51.51 50.42 51.83 51.51 52.16 52.59 52.48 53.65 52.81 54.69 53.13 55.7 53.45 56.68 53.78 57.62 54.1 58.52 54.42 59.38 54.75 60.2 55.07 60.99 55.4 61.75 55.72 62.49 56.04 63.21 56.37 63.92 56.69 64.63 57.02 65.34 57.34 66.05 57.66 66.74 57.99 67.43 58.31 68.1 58.63 68.76 58.96 69.4 59.28 70.02 59.61 70.63 59.93 71.23 60.25 71.82 60.58 72.41 60.9 73.01 61.23 73.61 61.55 74.21 61.87 74.8 62.2 75.4 62.52 75.99 62.84 76.58 63.17 77.17 63.49 77.75 63.82 78.33 64.14 78.92 64.46 79.5 64.79 80.1 65.11 80.69 65.43 81.3 65.76 81.9 66.08 82.5 66.41 83.1 66.73 83.69 67.05 84.28 67.38 84.85 67.7 85.41 68.03 85.94 68.35 86.45 68.67 86.94 69 87.39 69.32 87.8 69.64 88.18 69.97 88.53 70.29 88.85 70.62 89.15 70.94 89.42 71.26 89.68 71.59 89.93 71.91 90.17 72.24 90.42 72.56 90.66 72.88 90.92 73.21 91.18 73.53 91.44 73.85 91.71 74.18 91.99 74.5 92.27 74.83 92.56 75.15 92.84 75.47 93.13 75.8 93.41 76.12 93.7 76.44 93.98 76.77 94.26 77.09 94.53 77.42 94.8 77.74 95.06 78.06 95.32 78.39 95.56 78.71 95.8 79.04 96.02 79.36 96.24 79.68 96.44 80.01 96.62 80.33 96.8 80.65 96.96 80.98 97.1 81.3 97.24 81.63 97.37 81.95 97.49 82.27 97.61 82.6 97.73 82.92 97.86 83.25 97.99 83.57 98.13 83.89 98.29 84.22 98.46 84.54 98.65 84.86 98.86 85.19 99.08 85.51 99.32 85.84 99.57 86.16 99.83 86.48 100.09 86.81 100.35 87.13 100.6 87.45 100.84 87.78 101.07 88.1 101.28 88.43 101.47 88.75 101.63 89.07 101.78 89.4 101.9 89.72 102.01 90.05 102.1 90.37 102.17 90.69 102.24 91.02 102.29 91.34 102.34 91.66 102.39 91.99 102.44 92.31 102.48 92.64 102.54 92.96 102.59 93.28 102.65 93.61 102.71 93.93 102.77 94.26 102.83 94.58 102.89 94.9 102.94 95.23 102.99 95.55 103.04 95.87 103.08 96.2 103.12 96.52 103.15 96.85 103.19 97.17 103.24 97.49 103.29 97.82 103.34 98.14 103.41 98.46 103.48 98.79 103.55 99.11 103.63 99.44 103.71 99.76 103.79 100.08 103.87 100.41 103.95 100.73 104.02 101.06 104.1 101.38 104.17 101.7 104.24 102.03 104.3 102.35 104.37 102.67 104.42 103 104.48 103.32 104.52 103.65 104.55 103.97 104.58 104.29 104.59 104.62 104.59 104.94 104.59 105.27 104.58 105.59 104.56 105.91 104.55 106.24 104.53 106.56 104.52 106.88 104.51 107.21 104.51 107.53 104.52 107.86 104.54 108.18 104.57 108.5 104.61 108.83 104.66 109.15 104.72 109.47 104.79 109.8 104.86 110.12 104.94 110.45 105.02 110.77 105.1 111.09 105.18 111.42 105.26 111.74 105.33 112.07 105.39 112.39 105.45 112.71 105.5 113.04 105.55 113.36 105.58 113.68 105.61 114.01 105.64 114.33 105.66 114.66 105.68 114.98 105.69 115.3 105.7 115.63 105.7 115.95 105.71 116.28 105.71 116.6 105.71 116.92 105.71 117.25 105.71 117.57 105.71 117.89 105.71 118.22 105.71 118.54 105.71 118.87 105.71 119.19 105.71"/>
      </g>
    </g>
  </g>
</g>
  <g class="guide ylabels" font-size="2.82" font-family="'PT Sans Caption','Helvetica Neue','Helvetica',sans-serif" fill="#6C606B" id="img-edfc545c-25">
    <text x="7.67" y="105.72" text-anchor="end" dy="0.35em">0</text>
    <text x="7.67" y="85.97" text-anchor="end" dy="0.35em">1</text>
    <text x="7.67" y="66.23" text-anchor="end" dy="0.35em">2</text>
    <text x="7.67" y="46.49" text-anchor="end" dy="0.35em">3</text>
    <text x="7.67" y="26.74" text-anchor="end" dy="0.35em">4</text>
    <text x="7.67" y="7" text-anchor="end" dy="0.35em">5</text>
  </g>
</g>
<defs>
  <clipPath id="img-edfc545c-4">
  <path d="M8.67,5 L 147.4 5 147.4 107.72 8.67 107.72" />
</clipPath>
</defs>
</svg>
