<?xml version="1.0" encoding="UTF-8"?>
<svg xmlns="http://www.w3.org/2000/svg"
     xmlns:xlink="http://www.w3.org/1999/xlink"
     xmlns:gadfly="http://www.gadflyjl.org/ns"
     version="1.2"
     width="152.4mm" height="127mm" viewBox="0 0 152.4 127"
     stroke="none"
     fill="#000000"
     stroke-width="0.3"
     font-size="3.88"
>
<g class="plotroot xscalable yscalable" id="img-75d6809a-1">
  <g font-size="3.88" font-family="'PT Sans','Helvetica Neue','Helvetica',sans-serif" fill="#564A55" stroke="#000000" stroke-opacity="0.000" id="img-75d6809a-2">
    <text x="78.04" y="115.39" text-anchor="middle" dy="0.6em">x</text>
  </g>
  <g class="guide xlabels" font-size="2.82" font-family="'PT Sans Caption','Helvetica Neue','Helvetica',sans-serif" fill="#6C606B" id="img-75d6809a-3">
    <text x="10.67" y="108.72" text-anchor="middle" dy="0.6em">-0.5</text>
    <text x="44.36" y="108.72" text-anchor="middle" dy="0.6em">0.0</text>
    <text x="78.04" y="108.72" text-anchor="middle" dy="0.6em">0.5</text>
    <text x="111.72" y="108.72" text-anchor="middle" dy="0.6em">1.0</text>
    <text x="145.4" y="108.72" text-anchor="middle" dy="0.6em">1.5</text>
  </g>
<g clip-path="url(#img-75d6809a-4)">
  <g id="img-75d6809a-5">
    <g pointer-events="visible" opacity="1" fill="#000000" fill-opacity="0.000" stroke="#000000" stroke-opacity="0.000" class="guide background" id="img-75d6809a-6">
      <rect x="8.67" y="5" width="138.73" height="102.72"/>
    </g>
    <g class="guide ygridlines xfixed" stroke-dasharray="0.5,0.5" stroke-width="0.2" stroke="#D0D0E0" id="img-75d6809a-7">
      <path fill="none" d="M8.67,105.71 L 147.4 105.71"/>
      <path fill="none" d="M8.67,81.04 L 147.4 81.04"/>
      <path fill="none" d="M8.67,56.36 L 147.4 56.36"/>
      <path fill="none" d="M8.67,31.68 L 147.4 31.68"/>
      <path fill="none" d="M8.67,7 L 147.4 7"/>
    </g>
    <g class="guide xgridlines yfixed" stroke-dasharray="0.5,0.5" stroke-width="0.2" stroke="#D0D0E0" id="img-75d6809a-8">
      <path fill="none" d="M10.67,5 L 10.67 107.72"/>
      <path fill="none" d="M44.36,5 L 44.36 107.72"/>
      <path fill="none" d="M78.04,5 L 78.04 107.72"/>
      <path fill="none" d="M111.72,5 L 111.72 107.72"/>
      <path fill="none" d="M145.4,5 L 145.4 107.72"/>
    </g>
    <g class="plotpanel" id="img-75d6809a-9">
      <g stroke-width="0.3" fill="#000000" fill-opacity="0.000" class="geometry" stroke-dasharray="none" stroke="#00BFFF" id="img-75d6809a-10">
        <path fill="none" d="M41.67,105.71 L 41.95 105.69 42.23 105.62 42.51 105.36 42.79 104.63 43.06 102.82 43.34 99.01 43.62 92.2 43.9 81.81 44.18 68.36 44.46 53.62 44.74 40.01 45.02 29.58 45.3 23.19 45.58 20.47 45.86 20.4 46.14 21.93 46.41 24.32 46.69 27.15 46.97 30.15 47.25 33.09 47.53 35.81 47.81 38.2 48.09 40.32 48.37 42.3 48.65 44.27 48.93 46.31 49.21 48.37 49.49 50.37 49.76 52.24 50.04 53.95 50.32 55.5 50.6 56.93 50.88 58.29 51.16 59.63 51.44 60.98 51.72 62.35 52 63.71 52.28 65.08 52.56 66.44 52.84 67.81 53.11 69.19 53.39 70.52 53.67 71.76 53.95 72.9 54.23 73.96 54.51 74.98 54.79 76.02 55.07 77.09 55.35 78.16 55.63 79.19 55.91 80.18 56.19 81.13 56.46 82.06 56.74 82.97 57.02 83.82 57.3 84.62 57.58 85.37 57.86 86.12 58.14 86.86 58.42 87.58 58.7 88.25 58.98 88.85 59.26 89.4 59.54 89.95 59.81 90.54 60.09 91.18 60.37 91.81 60.65 92.36 60.93 92.8 61.21 93.14 61.49 93.43 61.77 93.7 62.05 94.01 62.33 94.35 62.61 94.73 62.89 95.12 63.16 95.51 63.44 95.88 63.72 96.25 64 96.62 64.28 97.01 64.56 97.44 64.84 97.88 65.12 98.31 65.4 98.7 65.68 99.05 65.96 99.37 66.24 99.65 66.51 99.88 66.79 100.04 67.07 100.14 67.35 100.2 67.63 100.26 67.91 100.39 68.19 100.57 68.47 100.81 68.75 101.04 69.03 101.24 69.31 101.41 69.59 101.56 69.86 101.7 70.14 101.84 70.42 101.98 70.7 102.11 70.98 102.24 71.26 102.38 71.54 102.53 71.82 102.67 72.1 102.81 72.38 102.92 72.66 103.02 72.94 103.09 73.21 103.16 73.49 103.22 73.77 103.29 74.05 103.37 74.33 103.45 74.61 103.54 74.89 103.61 75.17 103.67 75.45 103.74 75.73 103.82 76.01 103.93 76.29 104.05 76.56 104.17 76.84 104.26 77.12 104.32 77.4 104.38 77.68 104.43 77.96 104.49 78.24 104.56 78.52 104.62 78.8 104.67 79.08 104.71 79.36 104.74 79.64 104.76 79.91 104.76 80.19 104.75 80.47 104.75 80.75 104.75 81.03 104.77 81.31 104.81 81.59 104.87 81.87 104.94 82.15 105.02 82.43 105.1 82.71 105.17 82.99 105.23 83.26 105.27 83.54 105.29 83.82 105.3 84.1 105.3 84.38 105.3 84.66 105.3 84.94 105.32 85.22 105.34 85.5 105.37 85.78 105.39 86.06 105.41 86.34 105.41 86.61 105.41 86.89 105.4 87.17 105.39 87.45 105.38 87.73 105.39 88.01 105.41 88.29 105.44 88.57 105.47 88.85 105.49 89.13 105.49 89.41 105.48 89.69 105.45 89.97 105.43 90.24 105.41 90.52 105.42 90.8 105.44 91.08 105.48 91.36 105.52 91.64 105.55 91.92 105.58 92.2 105.6 92.48 105.61 92.76 105.62 93.04 105.63 93.32 105.64 93.59 105.64 93.87 105.64 94.15 105.64 94.43 105.64 94.71 105.63 94.99 105.63 95.27 105.63 95.55 105.63 95.83 105.63 96.11 105.64 96.39 105.64 96.67 105.65 96.94 105.65 97.22 105.65 97.5 105.65 97.78 105.65 98.06 105.65 98.34 105.65 98.62 105.66 98.9 105.66 99.18 105.67 99.46 105.67 99.74 105.67 100.02 105.67 100.29 105.67 100.57 105.68 100.85 105.68 101.13 105.69 101.41 105.7 101.69 105.7 101.97 105.71 102.25 105.71 102.53 105.71 102.81 105.71 103.09 105.71 103.37 105.71 103.64 105.71 103.92 105.7 104.2 105.7 104.48 105.7 104.76 105.71 105.04 105.71 105.32 105.71 105.6 105.71 105.88 105.71 106.16 105.71 106.44 105.7 106.72 105.7 106.99 105.7 107.27 105.71 107.55 105.71 107.83 105.71 108.11 105.71 108.39 105.71 108.67 105.7 108.95 105.7 109.23 105.7 109.51 105.7 109.79 105.7 110.07 105.7 110.34 105.7 110.62 105.7 110.9 105.71 111.18 105.71 111.46 105.71 111.74 105.71 112.02 105.71 112.3 105.71 112.58 105.71 112.86 105.71"/>
      </g>
      <g stroke-width="0.3" fill="#000000" fill-opacity="0.000" class="geometry" stroke-dasharray="none" stroke="#00BFFF" id="img-75d6809a-11">
        <path fill="none" d="M41.53,105.71 L 41.81 105.69 42.09 105.63 42.37 105.43 42.65 104.85 42.93 103.46 43.21 100.51 43.49 95.15 43.77 86.72 44.05 75.28 44.33 61.94 44.61 48.61 44.89 37.32 45.17 29.38 45.45 25 45.73 23.55 46.01 24.09 46.29 25.77 46.57 28.07 46.85 30.65 47.13 33.31 47.41 35.87 47.69 38.22 47.97 40.35 48.25 42.33 48.53 44.27 48.81 46.25 49.09 48.25 49.37 50.19 49.66 52.01 49.94 53.69 50.22 55.23 50.5 56.67 50.78 58.06 51.06 59.42 51.34 60.76 51.62 62.08 51.9 63.39 52.18 64.7 52.46 66.02 52.74 67.35 53.02 68.68 53.3 69.96 53.58 71.18 53.86 72.3 54.14 73.33 54.42 74.31 54.7 75.29 54.98 76.29 55.26 77.31 55.54 78.33 55.82 79.31 56.1 80.27 56.38 81.19 56.66 82.08 56.94 82.93 57.22 83.72 57.5 84.47 57.78 85.21 58.06 85.95 58.34 86.68 58.62 87.38 58.9 88.04 59.18 88.65 59.46 89.24 59.75 89.85 60.03 90.48 60.31 91.11 60.59 91.69 60.87 92.17 61.15 92.56 61.43 92.88 61.71 93.19 61.99 93.51 62.27 93.86 62.55 94.23 62.83 94.61 63.11 94.98 63.39 95.35 63.67 95.71 63.95 96.08 64.23 96.49 64.51 96.93 64.79 97.37 65.07 97.81 65.35 98.22 65.63 98.59 65.91 98.92 66.19 99.21 66.47 99.45 66.75 99.63 67.03 99.74 67.31 99.81 67.59 99.88 67.87 100 68.15 100.18 68.43 100.42 68.71 100.67 68.99 100.91 69.27 101.12 69.56 101.3 69.84 101.48 70.12 101.64 70.4 101.8 70.68 101.93 70.96 102.06 71.24 102.18 71.52 102.31 71.8 102.44 72.08 102.56 72.36 102.67 72.64 102.77 72.92 102.85 73.2 102.93 73.48 103 73.76 103.08 74.04 103.17 74.32 103.26 74.6 103.34 74.88 103.4 75.16 103.46 75.44 103.52 75.72 103.61 76 103.72 76.28 103.85 76.56 103.97 76.84 104.08 77.12 104.16 77.4 104.23 77.68 104.3 77.96 104.37 78.24 104.43 78.52 104.49 78.8 104.54 79.08 104.58 79.36 104.61 79.65 104.63 79.93 104.64 80.21 104.64 80.49 104.65 80.77 104.66 81.05 104.69 81.33 104.73 81.61 104.8 81.89 104.87 82.17 104.96 82.45 105.05 82.73 105.12 83.01 105.18 83.29 105.22 83.57 105.24 83.85 105.24 84.13 105.25 84.41 105.25 84.69 105.26 84.97 105.28 85.25 105.3 85.53 105.33 85.81 105.35 86.09 105.37 86.37 105.37 86.65 105.37 86.93 105.36 87.21 105.36 87.49 105.36 87.77 105.37 88.05 105.4 88.33 105.43 88.61 105.45 88.89 105.46 89.17 105.46 89.45 105.44 89.74 105.41 90.02 105.39 90.3 105.38 90.58 105.39 90.86 105.42 91.14 105.46 91.42 105.51 91.7 105.55 91.98 105.58 92.26 105.6 92.54 105.61 92.82 105.62 93.1 105.62 93.38 105.63 93.66 105.63 93.94 105.63 94.22 105.63 94.5 105.63 94.78 105.62 95.06 105.62 95.34 105.62 95.62 105.62 95.9 105.62 96.18 105.63 96.46 105.63 96.74 105.64 97.02 105.64 97.3 105.64 97.58 105.64 97.86 105.64 98.14 105.64 98.42 105.65 98.7 105.65 98.98 105.65 99.26 105.66 99.55 105.66 99.83 105.66 100.11 105.67 100.39 105.67 100.67 105.68 100.95 105.68 101.23 105.69 101.51 105.7 101.79 105.7 102.07 105.71 102.35 105.71 102.63 105.71 102.91 105.71 103.19 105.71 103.47 105.71 103.75 105.71 104.03 105.7 104.31 105.7 104.59 105.7 104.87 105.7 105.15 105.71 105.43 105.71 105.71 105.71 105.99 105.71 106.27 105.7 106.55 105.7 106.83 105.7 107.11 105.7 107.39 105.71 107.67 105.71 107.95 105.71 108.23 105.71 108.51 105.7 108.79 105.7 109.07 105.7 109.35 105.7 109.64 105.69 109.92 105.7 110.2 105.7 110.48 105.7 110.76 105.71 111.04 105.71 111.32 105.71 111.6 105.71 111.88 105.71 112.16 105.71 112.44 105.71 112.72 105.71 113 105.71"/>
      </g>
      <g stroke-width="0.3" fill="#000000" fill-opacity="0.000" class="geometry" stroke-dasharray="none" stroke="#00BFFF" id="img-75d6809a-12">
        <path fill="none" d="M41.35,105.71 L 41.63 105.7 41.91 105.65 42.19 105.49 42.47 105.07 42.75 104.05 43.04 101.89 43.32 97.89 43.6 91.39 43.88 82.16 44.16 70.69 44.44 58.26 44.73 46.57 45.01 37.12 45.29 30.72 45.57 27.36 45.85 26.45 46.13 27.19 46.42 28.89 46.7 31.06 46.98 33.41 47.26 35.75 47.54 37.97 47.82 40.05 48.11 42.02 48.39 43.98 48.67 45.96 48.95 47.96 49.23 49.9 49.52 51.72 49.8 53.38 50.08 54.89 50.36 56.27 50.64 57.58 50.92 58.85 51.21 60.1 51.49 61.37 51.77 62.65 52.05 63.96 52.33 65.3 52.61 66.65 52.9 67.99 53.18 69.3 53.46 70.52 53.74 71.62 54.02 72.6 54.3 73.48 54.59 74.33 54.87 75.22 55.15 76.17 55.43 77.18 55.71 78.22 55.99 79.27 56.28 80.3 56.56 81.29 56.84 82.21 57.12 83.06 57.4 83.84 57.68 84.6 57.97 85.36 58.25 86.13 58.53 86.87 58.81 87.58 59.09 88.24 59.37 88.87 59.66 89.48 59.94 90.09 60.22 90.68 60.5 91.21 60.78 91.65 61.06 92.01 61.35 92.33 61.63 92.64 61.91 92.98 62.19 93.36 62.47 93.76 62.76 94.17 63.04 94.55 63.32 94.9 63.6 95.26 63.88 95.63 64.16 96.05 64.45 96.5 64.73 96.95 65.01 97.39 65.29 97.79 65.57 98.15 65.85 98.48 66.14 98.78 66.42 99.06 66.7 99.28 66.98 99.45 67.26 99.58 67.54 99.69 67.83 99.82 68.11 99.99 68.39 100.19 68.67 100.41 68.95 100.61 69.23 100.8 69.52 100.98 69.8 101.15 70.08 101.31 70.36 101.46 70.64 101.59 70.92 101.72 71.21 101.84 71.49 101.96 71.77 102.09 72.05 102.22 72.33 102.36 72.61 102.48 72.9 102.6 73.18 102.71 73.46 102.81 73.74 102.92 74.02 103.02 74.3 103.11 74.59 103.19 74.87 103.24 75.15 103.28 75.43 103.32 75.71 103.38 76 103.48 76.28 103.59 76.56 103.72 76.84 103.83 77.12 103.93 77.4 104.02 77.69 104.11 77.97 104.2 78.25 104.29 78.53 104.38 78.81 104.45 79.09 104.5 79.38 104.53 79.66 104.55 79.94 104.55 80.22 104.55 80.5 104.56 80.78 104.57 81.07 104.6 81.35 104.65 81.63 104.71 81.91 104.78 82.19 104.87 82.47 104.96 82.76 105.04 83.04 105.1 83.32 105.14 83.6 105.17 83.88 105.18 84.16 105.18 84.45 105.19 84.73 105.2 85.01 105.22 85.29 105.25 85.57 105.27 85.85 105.29 86.14 105.31 86.42 105.32 86.7 105.32 86.98 105.32 87.26 105.32 87.54 105.32 87.83 105.34 88.11 105.37 88.39 105.39 88.67 105.41 88.95 105.42 89.24 105.41 89.52 105.39 89.8 105.37 90.08 105.35 90.36 105.36 90.64 105.38 90.93 105.42 91.21 105.46 91.49 105.5 91.77 105.54 92.05 105.57 92.33 105.58 92.62 105.6 92.9 105.6 93.18 105.61 93.46 105.61 93.74 105.62 94.02 105.62 94.31 105.62 94.59 105.62 94.87 105.62 95.15 105.62 95.43 105.62 95.71 105.62 96 105.62 96.28 105.62 96.56 105.63 96.84 105.63 97.12 105.63 97.4 105.63 97.69 105.63 97.97 105.63 98.25 105.63 98.53 105.64 98.81 105.64 99.09 105.65 99.38 105.65 99.66 105.65 99.94 105.66 100.22 105.66 100.5 105.67 100.78 105.67 101.07 105.68 101.35 105.69 101.63 105.7 101.91 105.7 102.19 105.71 102.48 105.71 102.76 105.71 103.04 105.71 103.32 105.71 103.6 105.71 103.88 105.7 104.17 105.7 104.45 105.7 104.73 105.7 105.01 105.7 105.29 105.71 105.57 105.71 105.86 105.71 106.14 105.7 106.42 105.7 106.7 105.7 106.98 105.7 107.26 105.7 107.55 105.7 107.83 105.71 108.11 105.71 108.39 105.7 108.67 105.7 108.95 105.7 109.24 105.69 109.52 105.69 109.8 105.69 110.08 105.69 110.36 105.7 110.64 105.7 110.93 105.71 111.21 105.71 111.49 105.71 111.77 105.71 112.05 105.71 112.33 105.71 112.62 105.71 112.9 105.71 113.18 105.71"/>
      </g>
      <g stroke-width="0.3" fill="#000000" fill-opacity="0.000" class="geometry" stroke-dasharray="none" stroke="#00BFFF" id="img-75d6809a-13">
        <path fill="none" d="M41.14,105.71 L 41.42 105.7 41.7 105.66 41.99 105.54 42.27 105.23 42.55 104.5 42.84 102.97 43.12 100.09 43.4 95.3 43.69 88.2 43.97 78.85 44.25 67.93 44.54 56.65 44.82 46.41 45.1 38.33 45.39 32.94 45.67 30.17 45.95 29.51 46.24 30.31 46.52 31.97 46.8 34.04 47.09 36.22 47.37 38.34 47.65 40.35 47.94 42.26 48.22 44.13 48.5 46.01 48.79 47.91 49.07 49.77 49.35 51.53 49.64 53.12 49.92 54.56 50.2 55.88 50.49 57.13 50.77 58.35 51.05 59.56 51.34 60.78 51.62 62 51.9 63.22 52.19 64.47 52.47 65.74 52.75 67.02 53.04 68.29 53.32 69.53 53.6 70.69 53.89 71.75 54.17 72.71 54.45 73.59 54.74 74.44 55.02 75.31 55.3 76.24 55.59 77.22 55.87 78.25 56.15 79.3 56.44 80.34 56.72 81.33 57 82.26 57.29 83.12 57.57 83.93 57.85 84.72 58.14 85.51 58.42 86.29 58.7 87.03 58.99 87.72 59.27 88.35 59.55 88.94 59.84 89.51 60.12 90.06 60.4 90.57 60.69 91.02 60.97 91.4 61.25 91.73 61.54 92.05 61.82 92.38 62.1 92.75 62.39 93.15 62.67 93.57 62.95 93.97 63.24 94.34 63.52 94.71 63.8 95.08 64.09 95.48 64.37 95.9 64.65 96.35 64.94 96.79 65.22 97.22 65.5 97.61 65.79 97.98 66.07 98.31 66.35 98.62 66.64 98.88 66.92 99.1 67.2 99.27 67.49 99.41 67.77 99.54 68.05 99.68 68.34 99.84 68.62 100.01 68.9 100.19 69.19 100.35 69.47 100.52 69.75 100.68 70.04 100.84 70.32 100.99 70.6 101.14 70.89 101.27 71.17 101.4 71.45 101.54 71.74 101.67 72.02 101.82 72.3 101.96 72.59 102.11 72.87 102.24 73.15 102.37 73.44 102.5 73.72 102.62 74 102.73 74.29 102.83 74.57 102.91 74.85 102.97 75.14 103.01 75.42 103.07 75.7 103.15 75.99 103.26 76.27 103.4 76.55 103.55 76.84 103.69 77.12 103.8 77.4 103.9 77.69 103.99 77.97 104.07 78.25 104.15 78.54 104.22 78.82 104.28 79.1 104.33 79.39 104.37 79.67 104.4 79.95 104.41 80.24 104.43 80.52 104.44 80.8 104.46 81.09 104.49 81.37 104.54 81.65 104.6 81.94 104.69 82.22 104.78 82.5 104.87 82.79 104.95 83.07 105.01 83.35 105.06 83.64 105.08 83.92 105.1 84.2 105.11 84.49 105.12 84.77 105.14 85.05 105.17 85.34 105.2 85.62 105.22 85.9 105.24 86.19 105.26 86.47 105.26 86.75 105.26 87.04 105.25 87.32 105.26 87.6 105.27 87.89 105.29 88.17 105.32 88.45 105.34 88.74 105.36 89.02 105.37 89.3 105.36 89.59 105.34 89.87 105.32 90.15 105.31 90.44 105.32 90.72 105.35 91 105.39 91.29 105.43 91.57 105.48 91.85 105.51 92.14 105.54 92.42 105.56 92.7 105.57 92.99 105.58 93.27 105.59 93.55 105.59 93.84 105.6 94.12 105.6 94.4 105.6 94.69 105.6 94.97 105.6 95.25 105.6 95.54 105.6 95.82 105.61 96.1 105.61 96.39 105.62 96.67 105.62 96.96 105.63 97.24 105.63 97.52 105.62 97.81 105.62 98.09 105.62 98.37 105.62 98.66 105.62 98.94 105.63 99.22 105.63 99.51 105.64 99.79 105.64 100.07 105.65 100.36 105.65 100.64 105.66 100.92 105.67 101.21 105.68 101.49 105.69 101.77 105.7 102.06 105.7 102.34 105.71 102.62 105.71 102.91 105.71 103.19 105.71 103.47 105.71 103.76 105.7 104.04 105.7 104.32 105.7 104.61 105.7 104.89 105.7 105.17 105.7 105.46 105.7 105.74 105.7 106.02 105.7 106.31 105.7 106.59 105.7 106.87 105.7 107.16 105.7 107.44 105.7 107.72 105.7 108.01 105.7 108.29 105.7 108.57 105.7 108.86 105.69 109.14 105.69 109.42 105.69 109.71 105.69 109.99 105.69 110.27 105.69 110.56 105.7 110.84 105.7 111.12 105.71 111.41 105.71 111.69 105.71 111.97 105.71 112.26 105.71 112.54 105.71 112.82 105.71 113.11 105.71 113.39 105.71"/>
      </g>
      <g stroke-width="0.3" fill="#000000" fill-opacity="0.000" class="geometry" stroke-dasharray="none" stroke="#00BFFF" id="img-75d6809a-14">
        <path fill="none" d="M40.91,105.71 L 41.19 105.7 41.48 105.67 41.76 105.58 42.05 105.35 42.33 104.83 42.62 103.73 42.9 101.66 43.19 98.14 43.48 92.77 43.76 85.37 44.05 76.21 44.33 66.03 44.62 55.92 44.9 47 45.19 40.1 45.47 35.57 45.76 33.29 46.04 32.82 46.33 33.6 46.61 35.12 46.9 37.01 47.18 38.99 47.47 40.92 47.75 42.73 48.04 44.43 48.32 46.07 48.61 47.69 48.89 49.3 49.18 50.9 49.46 52.44 49.75 53.91 50.03 55.3 50.32 56.65 50.6 57.95 50.89 59.21 51.17 60.42 51.46 61.59 51.74 62.74 52.03 63.89 52.31 65.07 52.6 66.3 52.88 67.57 53.17 68.84 53.45 70.07 53.74 71.2 54.02 72.2 54.31 73.1 54.6 73.92 54.88 74.74 55.17 75.61 55.45 76.55 55.74 77.57 56.02 78.63 56.31 79.69 56.59 80.69 56.88 81.61 57.16 82.45 57.45 83.23 57.73 84 58.02 84.77 58.3 85.55 58.59 86.31 58.87 87.01 59.16 87.64 59.44 88.2 59.73 88.72 60.01 89.22 60.3 89.69 60.58 90.13 60.87 90.53 61.15 90.89 61.44 91.24 61.72 91.61 62.01 92.01 62.29 92.44 62.58 92.87 62.86 93.3 63.15 93.69 63.43 94.06 63.72 94.42 64 94.8 64.29 95.22 64.57 95.67 64.86 96.15 65.14 96.62 65.43 97.06 65.72 97.47 66 97.84 66.29 98.16 66.57 98.43 66.86 98.66 67.14 98.84 67.43 98.99 67.71 99.12 68 99.26 68.28 99.41 68.57 99.57 68.85 99.74 69.14 99.9 69.42 100.07 69.71 100.22 69.99 100.37 70.28 100.52 70.56 100.65 70.85 100.78 71.13 100.9 71.42 101.04 71.7 101.19 71.99 101.35 72.27 101.52 72.56 101.68 72.84 101.84 73.13 102 73.41 102.15 73.7 102.29 73.98 102.43 74.27 102.55 74.55 102.64 74.84 102.72 75.12 102.79 75.41 102.86 75.69 102.96 75.98 103.09 76.26 103.24 76.55 103.4 76.84 103.56 77.12 103.71 77.41 103.84 77.69 103.94 77.98 104.03 78.26 104.1 78.55 104.16 78.83 104.2 79.12 104.23 79.4 104.25 79.69 104.26 79.97 104.28 80.26 104.29 80.54 104.31 80.83 104.33 81.11 104.37 81.4 104.43 81.68 104.51 81.97 104.6 82.25 104.7 82.54 104.8 82.82 104.88 83.11 104.94 83.39 104.99 83.68 105.01 83.96 105.02 84.25 105.03 84.53 105.05 84.82 105.07 85.1 105.09 85.39 105.12 85.67 105.14 85.96 105.16 86.24 105.17 86.53 105.18 86.81 105.18 87.1 105.18 87.38 105.19 87.67 105.2 87.96 105.23 88.24 105.26 88.53 105.28 88.81 105.29 89.1 105.29 89.38 105.27 89.67 105.25 89.95 105.24 90.24 105.24 90.52 105.26 90.81 105.3 91.09 105.36 91.38 105.41 91.66 105.46 91.95 105.5 92.23 105.52 92.52 105.54 92.8 105.55 93.09 105.56 93.37 105.56 93.66 105.57 93.94 105.57 94.23 105.57 94.51 105.57 94.8 105.57 95.08 105.57 95.37 105.57 95.65 105.58 95.94 105.59 96.22 105.6 96.51 105.61 96.79 105.62 97.08 105.62 97.36 105.62 97.65 105.61 97.93 105.61 98.22 105.61 98.5 105.61 98.79 105.61 99.07 105.61 99.36 105.62 99.65 105.62 99.93 105.63 100.22 105.63 100.5 105.64 100.79 105.65 101.07 105.66 101.36 105.68 101.64 105.69 101.93 105.7 102.21 105.7 102.5 105.71 102.78 105.71 103.07 105.71 103.35 105.7 103.64 105.7 103.92 105.7 104.21 105.7 104.49 105.7 104.78 105.7 105.06 105.7 105.35 105.7 105.63 105.7 105.92 105.7 106.2 105.7 106.49 105.7 106.77 105.7 107.06 105.7 107.34 105.7 107.63 105.7 107.91 105.7 108.2 105.7 108.48 105.69 108.77 105.69 109.05 105.69 109.34 105.68 109.62 105.68 109.91 105.68 110.19 105.69 110.48 105.69 110.77 105.7 111.05 105.7 111.34 105.71 111.62 105.71 111.91 105.71 112.19 105.71 112.48 105.71 112.76 105.71 113.05 105.71 113.33 105.71 113.62 105.71"/>
      </g>
      <g stroke-width="0.3" fill="#000000" fill-opacity="0.000" class="geometry" stroke-dasharray="none" stroke="#00BFFF" id="img-75d6809a-15">
        <path fill="none" d="M40.59,105.71 L 40.88 105.7 41.16 105.68 41.45 105.61 41.74 105.46 42.03 105.1 42.31 104.37 42.6 102.99 42.89 100.61 43.18 96.88 43.47 91.52 43.75 84.48 44.04 76.06 44.33 66.9 44.62 57.86 44.9 49.84 45.19 43.51 45.48 39.19 45.77 36.84 46.05 36.13 46.34 36.62 46.63 37.86 46.92 39.49 47.2 41.25 47.49 43 47.78 44.67 48.07 46.25 48.36 47.76 48.64 49.23 48.93 50.68 49.22 52.1 49.51 53.48 49.79 54.78 50.08 55.99 50.37 57.13 50.66 58.19 50.94 59.19 51.23 60.17 51.52 61.14 51.81 62.15 52.09 63.24 52.38 64.42 52.67 65.72 52.96 67.09 53.24 68.5 53.53 69.86 53.82 71.14 54.11 72.28 54.4 73.3 54.68 74.23 54.97 75.12 55.26 76.01 55.55 76.94 55.83 77.92 56.12 78.91 56.41 79.89 56.7 80.82 56.98 81.68 57.27 82.48 57.56 83.24 57.85 83.98 58.13 84.71 58.42 85.43 58.71 86.13 59 86.8 59.29 87.42 59.57 88.02 59.86 88.59 60.15 89.14 60.44 89.66 60.72 90.14 61.01 90.58 61.3 91 61.59 91.41 61.87 91.85 62.16 92.3 62.45 92.75 62.74 93.17 63.02 93.53 63.31 93.84 63.6 94.1 63.89 94.35 64.18 94.63 64.46 94.96 64.75 95.35 65.04 95.78 65.33 96.24 65.61 96.7 65.9 97.14 66.19 97.54 66.48 97.9 66.76 98.19 67.05 98.42 67.34 98.61 67.63 98.75 67.91 98.89 68.2 99.02 68.49 99.17 68.78 99.34 69.07 99.51 69.35 99.68 69.64 99.86 69.93 100.02 70.22 100.18 70.5 100.33 70.79 100.48 71.08 100.62 71.37 100.76 71.65 100.91 71.94 101.06 72.23 101.21 72.52 101.36 72.8 101.5 73.09 101.65 73.38 101.79 73.67 101.93 73.95 102.07 74.24 102.19 74.53 102.3 74.82 102.4 75.11 102.49 75.39 102.58 75.68 102.69 75.97 102.83 76.26 102.99 76.54 103.16 76.83 103.33 77.12 103.49 77.41 103.64 77.69 103.76 77.98 103.86 78.27 103.95 78.56 104.02 78.84 104.08 79.13 104.13 79.42 104.16 79.71 104.19 80 104.2 80.28 104.21 80.57 104.22 80.86 104.24 81.15 104.27 81.43 104.33 81.72 104.41 82.01 104.5 82.3 104.61 82.58 104.72 82.87 104.81 83.16 104.89 83.45 104.94 83.73 104.97 84.02 104.99 84.31 105 84.6 105.01 84.89 105.03 85.17 105.05 85.46 105.07 85.75 105.09 86.04 105.1 86.32 105.11 86.61 105.12 86.9 105.13 87.19 105.14 87.47 105.15 87.76 105.17 88.05 105.19 88.34 105.2 88.62 105.2 88.91 105.19 89.2 105.18 89.49 105.16 89.78 105.14 90.06 105.14 90.35 105.16 90.64 105.2 90.93 105.25 91.21 105.31 91.5 105.37 91.79 105.42 92.08 105.46 92.36 105.5 92.65 105.52 92.94 105.54 93.23 105.55 93.51 105.55 93.8 105.56 94.09 105.55 94.38 105.55 94.66 105.55 94.95 105.54 95.24 105.54 95.53 105.54 95.82 105.55 96.1 105.56 96.39 105.57 96.68 105.58 96.97 105.59 97.25 105.6 97.54 105.6 97.83 105.6 98.12 105.6 98.4 105.6 98.69 105.6 98.98 105.6 99.27 105.6 99.55 105.61 99.84 105.61 100.13 105.62 100.42 105.64 100.71 105.65 100.99 105.67 101.28 105.68 101.57 105.69 101.86 105.7 102.14 105.71 102.43 105.71 102.72 105.71 103.01 105.71 103.29 105.7 103.58 105.7 103.87 105.69 104.16 105.69 104.44 105.69 104.73 105.69 105.02 105.69 105.31 105.69 105.6 105.69 105.88 105.69 106.17 105.69 106.46 105.69 106.75 105.69 107.03 105.69 107.32 105.69 107.61 105.69 107.9 105.69 108.18 105.69 108.47 105.69 108.76 105.68 109.05 105.68 109.33 105.68 109.62 105.68 109.91 105.68 110.2 105.68 110.49 105.69 110.77 105.69 111.06 105.7 111.35 105.7 111.64 105.71 111.92 105.71 112.21 105.71 112.5 105.71 112.79 105.71 113.07 105.71 113.36 105.71 113.65 105.71 113.94 105.71"/>
      </g>
      <g stroke-width="0.3" fill="#000000" fill-opacity="0.000" class="geometry" stroke-dasharray="none" stroke="#00BFFF" id="img-75d6809a-16">
        <path fill="none" d="M40.1,105.71 L 40.39 105.71 40.68 105.69 40.97 105.65 41.26 105.55 41.56 105.34 41.85 104.93 42.14 104.16 42.43 102.83 42.72 100.68 43.01 97.47 43.3 93 43.6 87.22 43.89 80.3 44.18 72.62 44.47 64.74 44.76 57.3 45.05 50.87 45.34 45.84 45.64 42.39 45.93 40.45 46.22 39.8 46.51 40.13 46.8 41.13 47.09 42.55 47.38 44.18 47.68 45.87 47.97 47.53 48.26 49.13 48.55 50.62 48.84 52.02 49.13 53.32 49.43 54.53 49.72 55.68 50.01 56.76 50.3 57.78 50.59 58.77 50.88 59.73 51.17 60.67 51.47 61.63 51.76 62.61 52.05 63.64 52.34 64.71 52.63 65.85 52.92 67.02 53.21 68.2 53.51 69.37 53.8 70.49 54.09 71.54 54.38 72.51 54.67 73.42 54.96 74.3 55.26 75.2 55.55 76.12 55.84 77.07 56.13 78.05 56.42 79.02 56.71 79.97 57 80.87 57.3 81.72 57.59 82.53 57.88 83.3 58.17 84.05 58.46 84.78 58.75 85.49 59.04 86.18 59.34 86.84 59.63 87.48 59.92 88.09 60.21 88.68 60.5 89.23 60.79 89.76 61.09 90.24 61.38 90.7 61.67 91.12 61.96 91.52 62.25 91.88 62.54 92.21 62.83 92.51 63.13 92.8 63.42 93.09 63.71 93.4 64 93.76 64.29 94.16 64.58 94.61 64.87 95.09 65.17 95.58 65.46 96.07 65.75 96.54 66.04 96.97 66.33 97.37 66.62 97.71 66.91 98.01 67.21 98.25 67.5 98.45 67.79 98.61 68.08 98.76 68.37 98.9 68.66 99.03 68.96 99.17 69.25 99.32 69.54 99.46 69.83 99.6 70.12 99.74 70.41 99.87 70.7 100 71 100.13 71.29 100.26 71.58 100.41 71.87 100.56 72.16 100.7 72.45 100.85 72.74 100.99 73.04 101.12 73.33 101.25 73.62 101.38 73.91 101.52 74.2 101.67 74.49 101.83 74.79 102 75.08 102.17 75.37 102.35 75.66 102.54 75.95 102.72 76.24 102.9 76.53 103.06 76.83 103.22 77.12 103.37 77.41 103.5 77.7 103.61 77.99 103.72 78.28 103.81 78.57 103.88 78.87 103.93 79.16 103.97 79.45 103.98 79.74 103.99 80.03 103.98 80.32 103.98 80.61 103.99 80.91 104.02 81.2 104.08 81.49 104.15 81.78 104.25 82.07 104.36 82.36 104.47 82.66 104.58 82.95 104.67 83.24 104.75 83.53 104.81 83.82 104.85 84.11 104.89 84.4 104.92 84.7 104.95 84.99 104.98 85.28 105.01 85.57 105.03 85.86 105.06 86.15 105.08 86.44 105.1 86.74 105.11 87.03 105.13 87.32 105.14 87.61 105.16 87.9 105.17 88.19 105.18 88.49 105.18 88.78 105.16 89.07 105.14 89.36 105.11 89.65 105.09 89.94 105.07 90.23 105.07 90.53 105.09 90.82 105.13 91.11 105.18 91.4 105.24 91.69 105.3 91.98 105.36 92.27 105.41 92.57 105.44 92.86 105.47 93.15 105.49 93.44 105.5 93.73 105.5 94.02 105.5 94.31 105.49 94.61 105.48 94.9 105.47 95.19 105.47 95.48 105.47 95.77 105.48 96.06 105.49 96.36 105.5 96.65 105.51 96.94 105.53 97.23 105.54 97.52 105.55 97.81 105.56 98.1 105.57 98.4 105.58 98.69 105.59 98.98 105.6 99.27 105.6 99.56 105.61 99.85 105.62 100.14 105.63 100.44 105.64 100.73 105.65 101.02 105.67 101.31 105.68 101.6 105.69 101.89 105.69 102.19 105.7 102.48 105.7 102.77 105.7 103.06 105.7 103.35 105.69 103.64 105.69 103.93 105.69 104.23 105.68 104.52 105.68 104.81 105.68 105.1 105.68 105.39 105.68 105.68 105.68 105.97 105.68 106.27 105.68 106.56 105.68 106.85 105.68 107.14 105.68 107.43 105.68 107.72 105.68 108.02 105.68 108.31 105.67 108.6 105.67 108.89 105.66 109.18 105.66 109.47 105.66 109.76 105.66 110.06 105.66 110.35 105.67 110.64 105.68 110.93 105.68 111.22 105.69 111.51 105.7 111.8 105.7 112.1 105.71 112.39 105.71 112.68 105.71 112.97 105.71 113.26 105.71 113.55 105.71 113.84 105.71 114.14 105.71 114.43 105.71"/>
      </g>
      <g stroke-width="0.3" fill="#000000" fill-opacity="0.000" class="geometry" stroke-dasharray="none" stroke="#00BFFF" id="img-75d6809a-17">
        <path fill="none" d="M39.17,105.71 L 39.47 105.71 39.76 105.7 40.06 105.67 40.36 105.62 40.66 105.53 40.96 105.34 41.26 105.01 41.56 104.45 41.86 103.54 42.16 102.15 42.45 100.12 42.75 97.31 43.05 93.62 43.35 89.02 43.65 83.59 43.95 77.51 44.25 71.07 44.55 64.63 44.84 58.57 45.14 53.23 45.44 48.86 45.74 45.61 46.04 43.5 46.34 42.46 46.64 42.34 46.94 42.94 47.23 44.07 47.53 45.54 47.83 47.19 48.13 48.91 48.43 50.6 48.73 52.22 49.03 53.74 49.33 55.14 49.62 56.43 49.92 57.62 50.22 58.72 50.52 59.74 50.82 60.69 51.12 61.61 51.42 62.51 51.72 63.41 52.02 64.36 52.31 65.36 52.61 66.44 52.91 67.59 53.21 68.79 53.51 70.04 53.81 71.31 54.11 72.57 54.41 73.8 54.7 74.99 55 76.13 55.3 77.22 55.6 78.25 55.9 79.22 56.2 80.13 56.5 80.97 56.8 81.74 57.09 82.44 57.39 83.08 57.69 83.65 57.99 84.18 58.29 84.67 58.59 85.16 58.89 85.64 59.19 86.14 59.48 86.65 59.78 87.18 60.08 87.72 60.38 88.27 60.68 88.81 60.98 89.35 61.28 89.88 61.58 90.38 61.88 90.86 62.17 91.3 62.47 91.72 62.77 92.11 63.07 92.47 63.37 92.83 63.67 93.18 63.97 93.55 64.27 93.92 64.56 94.3 64.86 94.68 65.16 95.05 65.46 95.4 65.76 95.73 66.06 96.04 66.36 96.31 66.66 96.57 66.95 96.8 67.25 97.03 67.55 97.25 67.85 97.47 68.15 97.7 68.45 97.93 68.75 98.17 69.05 98.4 69.34 98.63 69.64 98.86 69.94 99.08 70.24 99.28 70.54 99.47 70.84 99.65 71.14 99.82 71.44 99.98 71.74 100.12 72.03 100.25 72.33 100.37 72.63 100.48 72.93 100.6 73.23 100.72 73.53 100.85 73.83 100.99 74.13 101.15 74.42 101.32 74.72 101.5 75.02 101.69 75.32 101.88 75.62 102.07 75.92 102.25 76.22 102.43 76.52 102.6 76.81 102.76 77.11 102.91 77.41 103.05 77.71 103.18 78.01 103.29 78.31 103.39 78.61 103.47 78.91 103.53 79.2 103.57 79.5 103.59 79.8 103.61 80.1 103.63 80.4 103.65 80.7 103.7 81 103.76 81.3 103.84 81.6 103.95 81.89 104.07 82.19 104.2 82.49 104.33 82.79 104.45 83.09 104.56 83.39 104.64 83.69 104.71 83.99 104.76 84.28 104.79 84.58 104.82 84.88 104.84 85.18 104.85 85.48 104.87 85.78 104.89 86.08 104.91 86.38 104.93 86.67 104.95 86.97 104.98 87.27 105 87.57 105.03 87.87 105.05 88.17 105.08 88.47 105.1 88.77 105.12 89.06 105.13 89.36 105.14 89.66 105.16 89.96 105.17 90.26 105.18 90.56 105.2 90.86 105.23 91.16 105.26 91.46 105.29 91.75 105.32 92.05 105.35 92.35 105.37 92.65 105.39 92.95 105.41 93.25 105.42 93.55 105.42 93.85 105.43 94.14 105.43 94.44 105.43 94.74 105.44 95.04 105.45 95.34 105.46 95.64 105.47 95.94 105.49 96.24 105.52 96.53 105.54 96.83 105.56 97.13 105.58 97.43 105.6 97.73 105.6 98.03 105.61 98.33 105.61 98.63 105.6 98.92 105.59 99.22 105.59 99.52 105.59 99.82 105.59 100.12 105.59 100.42 105.6 100.72 105.61 101.02 105.62 101.32 105.64 101.61 105.66 101.91 105.67 102.21 105.68 102.51 105.69 102.81 105.7 103.11 105.71 103.41 105.71 103.71 105.71 104 105.71 104.3 105.71 104.6 105.7 104.9 105.7 105.2 105.69 105.5 105.68 105.8 105.67 106.1 105.67 106.39 105.66 106.69 105.65 106.99 105.65 107.29 105.64 107.59 105.64 107.89 105.64 108.19 105.63 108.49 105.63 108.78 105.62 109.08 105.62 109.38 105.62 109.68 105.62 109.98 105.62 110.28 105.63 110.58 105.64 110.88 105.65 111.18 105.66 111.47 105.68 111.77 105.69 112.07 105.69 112.37 105.7 112.67 105.71 112.97 105.71 113.27 105.71 113.57 105.71 113.86 105.71 114.16 105.71 114.46 105.71 114.76 105.71 115.06 105.71 115.36 105.71"/>
      </g>
      <g stroke-width="0.3" fill="#000000" fill-opacity="0.000" class="geometry" stroke-dasharray="none" stroke="#00BFFF" id="img-75d6809a-18">
        <path fill="none" d="M38.73,105.71 L 39.02 105.71 39.31 105.7 39.61 105.69 39.9 105.66 40.19 105.6 40.49 105.5 40.78 105.31 41.07 105.01 41.37 104.52 41.66 103.77 41.95 102.65 42.25 101.08 42.54 98.94 42.83 96.16 43.13 92.7 43.42 88.58 43.71 83.88 44.01 78.76 44.3 73.41 44.59 68.1 44.89 63.07 45.18 58.56 45.47 54.76 45.77 51.77 46.06 49.64 46.35 48.34 46.65 47.79 46.94 47.86 47.23 48.42 47.53 49.34 47.82 50.48 48.11 51.75 48.41 53.06 48.7 54.34 48.99 55.57 49.29 56.73 49.58 57.8 49.87 58.81 50.17 59.77 50.46 60.7 50.75 61.63 51.05 62.56 51.34 63.53 51.63 64.54 51.92 65.58 52.22 66.66 52.51 67.76 52.8 68.86 53.1 69.94 53.39 70.98 53.68 71.96 53.98 72.89 54.27 73.74 54.56 74.54 54.86 75.29 55.15 76.01 55.44 76.71 55.74 77.4 56.03 78.1 56.32 78.81 56.62 79.52 56.91 80.23 57.2 80.94 57.5 81.64 57.79 82.32 58.08 82.97 58.38 83.59 58.67 84.18 58.96 84.74 59.26 85.27 59.55 85.8 59.84 86.32 60.14 86.84 60.43 87.37 60.72 87.91 61.02 88.45 61.31 88.98 61.6 89.49 61.9 89.96 62.19 90.4 62.48 90.79 62.78 91.14 63.07 91.45 63.36 91.73 63.66 91.98 63.95 92.23 64.24 92.49 64.54 92.77 64.83 93.07 65.12 93.4 65.41 93.75 65.71 94.11 66 94.48 66.29 94.85 66.59 95.21 66.88 95.56 67.17 95.89 67.47 96.2 67.76 96.5 68.05 96.78 68.35 97.06 68.64 97.33 68.93 97.6 69.23 97.86 69.52 98.11 69.81 98.34 70.11 98.57 70.4 98.78 70.69 98.99 70.99 99.18 71.28 99.37 71.57 99.55 71.87 99.73 72.16 99.91 72.45 100.08 72.75 100.25 73.04 100.4 73.33 100.56 73.63 100.7 73.92 100.83 74.21 100.96 74.51 101.08 74.8 101.2 75.09 101.33 75.39 101.45 75.68 101.59 75.97 101.72 76.27 101.86 76.56 102 76.85 102.14 77.15 102.27 77.44 102.4 77.73 102.53 78.02 102.64 78.32 102.75 78.61 102.85 78.9 102.94 79.2 103.02 79.49 103.08 79.78 103.14 80.08 103.18 80.37 103.21 80.66 103.25 80.96 103.28 81.25 103.32 81.54 103.36 81.84 103.42 82.13 103.48 82.42 103.56 82.72 103.64 83.01 103.73 83.3 103.82 83.6 103.92 83.89 104.01 84.18 104.11 84.48 104.21 84.77 104.3 85.06 104.4 85.36 104.5 85.65 104.59 85.94 104.67 86.24 104.73 86.53 104.79 86.82 104.82 87.12 104.84 87.41 104.84 87.7 104.83 88 104.81 88.29 104.78 88.58 104.75 88.88 104.73 89.17 104.71 89.46 104.69 89.76 104.69 90.05 104.7 90.34 104.73 90.64 104.76 90.93 104.8 91.22 104.84 91.51 104.88 91.81 104.92 92.1 104.96 92.39 105 92.69 105.03 92.98 105.05 93.27 105.08 93.57 105.11 93.86 105.14 94.15 105.17 94.45 105.21 94.74 105.24 95.03 105.28 95.33 105.31 95.62 105.34 95.91 105.38 96.21 105.41 96.5 105.44 96.79 105.47 97.09 105.5 97.38 105.52 97.67 105.54 97.97 105.56 98.26 105.58 98.55 105.59 98.85 105.59 99.14 105.6 99.43 105.6 99.73 105.6 100.02 105.61 100.31 105.61 100.61 105.61 100.9 105.61 101.19 105.61 101.49 105.61 101.78 105.6 102.07 105.6 102.37 105.58 102.66 105.57 102.95 105.55 103.25 105.53 103.54 105.51 103.83 105.49 104.12 105.47 104.42 105.46 104.71 105.45 105 105.44 105.3 105.44 105.59 105.44 105.88 105.44 106.18 105.45 106.47 105.46 106.76 105.47 107.06 105.49 107.35 105.51 107.64 105.54 107.94 105.56 108.23 105.59 108.52 105.61 108.82 105.63 109.11 105.65 109.4 105.67 109.7 105.68 109.99 105.69 110.28 105.7 110.58 105.7 110.87 105.71 111.16 105.71 111.46 105.71 111.75 105.71 112.04 105.71 112.34 105.71 112.63 105.71 112.92 105.71 113.22 105.71 113.51 105.71"/>
      </g>
    </g>
  </g>
</g>
  <g class="guide ylabels" font-size="2.82" font-family="'PT Sans Caption','Helvetica Neue','Helvetica',sans-serif" fill="#6C606B" id="img-75d6809a-19">
    <text x="7.67" y="105.71" text-anchor="end" dy="0.35em">0</text>
    <text x="7.67" y="81.04" text-anchor="end" dy="0.35em">2</text>
    <text x="7.67" y="56.36" text-anchor="end" dy="0.35em">4</text>
    <text x="7.67" y="31.68" text-anchor="end" dy="0.35em">6</text>
    <text x="7.67" y="7" text-anchor="end" dy="0.35em">8</text>
  </g>
</g>
<defs>
  <clipPath id="img-75d6809a-4">
  <path d="M8.67,5 L 147.4 5 147.4 107.72 8.67 107.72" />
</clipPath>
</defs>
</svg>
