<?xml version="1.0" encoding="UTF-8"?>
<svg xmlns="http://www.w3.org/2000/svg"
     xmlns:xlink="http://www.w3.org/1999/xlink"
     xmlns:gadfly="http://www.gadflyjl.org/ns"
     version="1.2"
     width="152.4mm" height="127mm" viewBox="0 0 152.4 127"
     stroke="none"
     fill="#000000"
     stroke-width="0.3"
     font-size="3.88"
>
<g class="plotroot xscalable yscalable" id="img-978090df-1">
  <g font-size="3.88" font-family="'PT Sans','Helvetica Neue','Helvetica',sans-serif" fill="#564A55" stroke="#000000" stroke-opacity="0.000" id="img-978090df-2">
    <text x="78.87" y="115.39" text-anchor="middle" dy="0.6em">x</text>
  </g>
  <g class="guide xlabels" font-size="2.82" font-family="'PT Sans Caption','Helvetica Neue','Helvetica',sans-serif" fill="#6C606B" id="img-978090df-3">
    <text x="12.35" y="108.72" text-anchor="middle" dy="0.6em">-0.2</text>
    <text x="45.61" y="108.72" text-anchor="middle" dy="0.6em">0.0</text>
    <text x="78.87" y="108.72" text-anchor="middle" dy="0.6em">0.2</text>
    <text x="112.14" y="108.72" text-anchor="middle" dy="0.6em">0.4</text>
    <text x="145.4" y="108.72" text-anchor="middle" dy="0.6em">0.6</text>
  </g>
<g clip-path="url(#img-978090df-4)">
  <g id="img-978090df-5">
    <g pointer-events="visible" opacity="1" fill="#000000" fill-opacity="0.000" stroke="#000000" stroke-opacity="0.000" class="guide background" id="img-978090df-6">
      <rect x="10.35" y="5" width="137.05" height="102.72"/>
    </g>
    <g class="guide ygridlines xfixed" stroke-dasharray="0.5,0.5" stroke-width="0.2" stroke="#D0D0E0" id="img-978090df-7">
      <path fill="none" d="M10.35,105.71 L 147.4 105.71"/>
      <path fill="none" d="M10.35,72.81 L 147.4 72.81"/>
      <path fill="none" d="M10.35,39.9 L 147.4 39.9"/>
      <path fill="none" d="M10.35,7 L 147.4 7"/>
    </g>
    <g class="guide xgridlines yfixed" stroke-dasharray="0.5,0.5" stroke-width="0.2" stroke="#D0D0E0" id="img-978090df-8">
      <path fill="none" d="M12.35,5 L 12.35 107.72"/>
      <path fill="none" d="M45.61,5 L 45.61 107.72"/>
      <path fill="none" d="M78.87,5 L 78.87 107.72"/>
      <path fill="none" d="M112.14,5 L 112.14 107.72"/>
      <path fill="none" d="M145.4,5 L 145.4 107.72"/>
    </g>
    <g class="plotpanel" id="img-978090df-9">
      <g stroke-width="0.3" fill="#000000" fill-opacity="0.000" class="geometry" stroke-dasharray="none" stroke="#00BFFF" id="img-978090df-10">
        <path fill="none" d="M41.97,105.71 L 42.32 105.69 42.67 105.63 43.02 105.44 43.37 104.91 43.72 103.63 44.07 100.92 44.42 95.94 44.78 87.97 45.13 76.89 45.48 63.54 45.83 49.63 46.18 37.18 46.53 27.78 46.88 22.02 47.23 19.55 47.58 19.52 47.93 20.98 48.28 23.23 48.63 25.83 48.98 28.54 49.33 31.28 49.68 33.97 50.03 36.52 50.38 38.87 50.73 40.98 51.08 42.91 51.43 44.77 51.78 46.7 52.13 48.72 52.48 50.81 52.83 52.9 53.19 54.94 53.54 56.9 53.89 58.75 54.24 60.46 54.59 62.01 54.94 63.39 55.29 64.63 55.64 65.83 55.99 67.05 56.34 68.36 56.69 69.71 57.04 71.06 57.39 72.35 57.74 73.54 58.09 74.65 58.44 75.68 58.79 76.66 59.14 77.58 59.49 78.46 59.84 79.28 60.19 80.05 60.54 80.77 60.89 81.46 61.24 82.15 61.59 82.87 61.95 83.63 62.3 84.43 62.65 85.24 63 86.03 63.35 86.79 63.7 87.5 64.05 88.17 64.4 88.79 64.75 89.37 65.1 89.92 65.45 90.45 65.8 90.95 66.15 91.43 66.5 91.89 66.85 92.32 67.2 92.75 67.55 93.21 67.9 93.68 68.25 94.16 68.6 94.61 68.95 94.99 69.3 95.29 69.65 95.51 70 95.7 70.36 95.88 70.71 96.1 71.06 96.37 71.41 96.69 71.76 97.05 72.11 97.42 72.46 97.8 72.81 98.15 73.16 98.45 73.51 98.71 73.86 98.91 74.21 99.05 74.56 99.14 74.91 99.19 75.26 99.23 75.61 99.29 75.96 99.39 76.31 99.53 76.66 99.73 77.01 99.96 77.36 100.2 77.71 100.45 78.06 100.68 78.41 100.89 78.76 101.08 79.12 101.25 79.47 101.42 79.82 101.58 80.17 101.73 80.52 101.88 80.87 102.01 81.22 102.13 81.57 102.24 81.92 102.34 82.27 102.43 82.62 102.52 82.97 102.6 83.32 102.67 83.67 102.72 84.02 102.77 84.37 102.83 84.72 102.91 85.07 103.01 85.42 103.13 85.77 103.25 86.12 103.35 86.47 103.44 86.82 103.51 87.17 103.57 87.53 103.62 87.88 103.67 88.23 103.72 88.58 103.77 88.93 103.82 89.28 103.88 89.63 103.94 89.98 104 90.33 104.06 90.68 104.13 91.03 104.19 91.38 104.25 91.73 104.31 92.08 104.36 92.43 104.4 92.78 104.43 93.13 104.45 93.48 104.46 93.83 104.48 94.18 104.49 94.53 104.52 94.88 104.54 95.23 104.57 95.58 104.61 95.93 104.64 96.29 104.69 96.64 104.74 96.99 104.8 97.34 104.85 97.69 104.88 98.04 104.91 98.39 104.92 98.74 104.94 99.09 104.97 99.44 105.02 99.79 105.07 100.14 105.13 100.49 105.18 100.84 105.22 101.19 105.24 101.54 105.25 101.89 105.25 102.24 105.24 102.59 105.23 102.94 105.2 103.29 105.19 103.64 105.18 103.99 105.18 104.34 105.21 104.7 105.24 105.05 105.28 105.4 105.31 105.75 105.33 106.1 105.34 106.45 105.34 106.8 105.33 107.15 105.33 107.5 105.32 107.85 105.33 108.2 105.33 108.55 105.34 108.9 105.35 109.25 105.36 109.6 105.38 109.95 105.4 110.3 105.42 110.65 105.44 111 105.46 111.35 105.48 111.7 105.5 112.05 105.51 112.4 105.52 112.75 105.52 113.1 105.52 113.46 105.52 113.81 105.52 114.16 105.53 114.51 105.54 114.86 105.56 115.21 105.57 115.56 105.58 115.91 105.59 116.26 105.59 116.61 105.59 116.96 105.59 117.31 105.58 117.66 105.57 118.01 105.56 118.36 105.55 118.71 105.55 119.06 105.56 119.41 105.57 119.76 105.58 120.11 105.59 120.46 105.6 120.81 105.61 121.16 105.61 121.51 105.62 121.87 105.62 122.22 105.63 122.57 105.64 122.92 105.65 123.27 105.66 123.62 105.67 123.97 105.67 124.32 105.68 124.67 105.69 125.02 105.69 125.37 105.7 125.72 105.7 126.07 105.7 126.42 105.7 126.77 105.7 127.12 105.69 127.47 105.69 127.82 105.69 128.17 105.7 128.52 105.7 128.87 105.71 129.22 105.71 129.57 105.71 129.92 105.71 130.28 105.71 130.63 105.71 130.98 105.71 131.33 105.71"/>
      </g>
      <g stroke-width="0.3" fill="#000000" fill-opacity="0.000" class="geometry" stroke-dasharray="none" stroke="#00BFFF" id="img-978090df-11">
        <path fill="none" d="M41.65,105.71 L 42 105.7 42.36 105.65 42.71 105.52 43.06 105.17 43.41 104.33 43.77 102.57 44.12 99.29 44.47 93.85 44.83 85.86 45.18 75.47 45.53 63.51 45.89 51.4 46.24 40.67 46.59 32.46 46.94 27.25 47.3 24.84 47.65 24.59 48 25.77 48.36 27.75 48.71 30.12 49.06 32.62 49.41 35.09 49.77 37.45 50.12 39.63 50.47 41.61 50.83 43.42 51.18 45.15 51.53 46.88 51.89 48.68 52.24 50.58 52.59 52.53 52.94 54.47 53.3 56.34 53.65 58.11 54 59.77 54.36 61.31 54.71 62.7 55.06 63.97 55.41 65.13 55.77 66.25 56.12 67.39 56.47 68.57 56.83 69.81 57.18 71.06 57.53 72.28 57.89 73.45 58.24 74.53 58.59 75.53 58.94 76.44 59.3 77.28 59.65 78.05 60 78.79 60.36 79.49 60.71 80.18 61.06 80.86 61.41 81.56 61.77 82.29 62.12 83.06 62.47 83.85 62.83 84.65 63.18 85.42 63.53 86.15 63.89 86.83 64.24 87.46 64.59 88.04 64.94 88.58 65.3 89.1 65.65 89.61 66 90.11 66.36 90.59 66.71 91.06 67.06 91.52 67.41 92 67.77 92.5 68.12 93 68.47 93.48 68.83 93.92 69.18 94.28 69.53 94.57 69.88 94.81 70.24 95.02 70.59 95.26 70.94 95.54 71.3 95.86 71.65 96.23 72 96.61 72.36 97 72.71 97.37 73.06 97.7 73.41 97.99 73.77 98.22 74.12 98.39 74.47 98.5 74.83 98.57 75.18 98.62 75.53 98.67 75.88 98.76 76.24 98.89 76.59 99.07 76.94 99.3 77.3 99.56 77.65 99.84 78 100.1 78.36 100.35 78.71 100.56 79.06 100.76 79.41 100.93 79.77 101.09 80.12 101.25 80.47 101.4 80.83 101.55 81.18 101.7 81.53 101.84 81.88 101.96 82.24 102.07 82.59 102.17 82.94 102.26 83.3 102.32 83.65 102.38 84 102.44 84.36 102.5 84.71 102.59 85.06 102.7 85.41 102.83 85.77 102.95 86.12 103.07 86.47 103.17 86.83 103.25 87.18 103.31 87.53 103.37 87.88 103.42 88.24 103.47 88.59 103.52 88.94 103.57 89.3 103.64 89.65 103.7 90 103.78 90.35 103.85 90.71 103.93 91.06 104 91.41 104.06 91.77 104.12 92.12 104.17 92.47 104.21 92.83 104.24 93.18 104.27 93.53 104.29 93.88 104.3 94.24 104.33 94.59 104.35 94.94 104.38 95.3 104.42 95.65 104.46 96 104.51 96.35 104.57 96.71 104.63 97.06 104.68 97.41 104.73 97.77 104.77 98.12 104.79 98.47 104.82 98.83 104.85 99.18 104.88 99.53 104.94 99.88 105 100.24 105.06 100.59 105.11 100.94 105.15 101.3 105.17 101.65 105.18 102 105.18 102.35 105.16 102.71 105.15 103.06 105.13 103.41 105.11 103.77 105.11 104.12 105.12 104.47 105.15 104.83 105.19 105.18 105.22 105.53 105.25 105.88 105.27 106.24 105.28 106.59 105.28 106.94 105.27 107.3 105.27 107.65 105.27 108 105.28 108.35 105.28 108.71 105.3 109.06 105.31 109.41 105.32 109.77 105.34 110.12 105.36 110.47 105.39 110.83 105.41 111.18 105.44 111.53 105.46 111.88 105.47 112.24 105.48 112.59 105.49 112.94 105.49 113.3 105.49 113.65 105.5 114 105.5 114.35 105.51 114.71 105.53 115.06 105.54 115.41 105.56 115.77 105.56 116.12 105.57 116.47 105.57 116.82 105.57 117.18 105.56 117.53 105.55 117.88 105.54 118.24 105.54 118.59 105.53 118.94 105.54 119.3 105.54 119.65 105.56 120 105.57 120.35 105.58 120.71 105.59 121.06 105.59 121.41 105.6 121.77 105.61 122.12 105.62 122.47 105.63 122.82 105.64 123.18 105.65 123.53 105.66 123.88 105.67 124.24 105.67 124.59 105.68 124.94 105.69 125.3 105.69 125.65 105.7 126 105.7 126.35 105.7 126.71 105.69 127.06 105.69 127.41 105.69 127.77 105.69 128.12 105.7 128.47 105.7 128.82 105.7 129.18 105.71 129.53 105.71 129.88 105.71 130.24 105.71 130.59 105.71 130.94 105.71 131.3 105.71 131.65 105.71"/>
      </g>
      <g stroke-width="0.3" fill="#000000" fill-opacity="0.000" class="geometry" stroke-dasharray="none" stroke="#00BFFF" id="img-978090df-12">
        <path fill="none" d="M41.27,105.71 L 41.63 105.7 41.98 105.67 42.34 105.58 42.69 105.35 43.05 104.82 43.41 103.72 43.76 101.65 44.12 98.14 44.47 92.76 44.83 85.33 45.18 76.08 45.54 65.71 45.9 55.3 46.25 45.97 46.61 38.62 46.96 33.64 47.32 30.96 47.68 30.18 48.03 30.74 48.39 32.13 48.74 33.96 49.1 35.98 49.46 38.04 49.81 40.05 50.17 41.96 50.52 43.76 50.88 45.47 51.24 47.13 51.59 48.81 51.95 50.53 52.3 52.3 52.66 54.09 53.02 55.87 53.37 57.58 53.73 59.2 54.08 60.71 54.44 62.08 54.79 63.33 55.15 64.47 55.51 65.55 55.86 66.62 56.22 67.71 56.57 68.85 56.93 70.02 57.29 71.18 57.64 72.31 58 73.37 58.35 74.34 58.71 75.22 59.07 76.02 59.42 76.78 59.78 77.5 60.13 78.21 60.49 78.9 60.85 79.59 61.2 80.28 61.56 80.98 61.91 81.71 62.27 82.46 62.62 83.24 62.98 84.03 63.34 84.8 63.69 85.54 64.05 86.23 64.4 86.87 64.76 87.46 65.12 88.01 65.47 88.53 65.83 89.03 66.18 89.52 66.54 90 66.9 90.49 67.25 90.97 67.61 91.46 67.96 91.94 68.32 92.4 68.68 92.83 69.03 93.21 69.39 93.54 69.74 93.81 70.1 94.06 70.45 94.31 70.81 94.58 71.17 94.88 71.52 95.22 71.88 95.59 72.23 95.98 72.59 96.36 72.95 96.73 73.3 97.06 73.66 97.33 74.01 97.54 74.37 97.68 74.73 97.77 75.08 97.83 75.44 97.88 75.79 97.96 76.15 98.09 76.51 98.27 76.86 98.5 77.22 98.77 77.57 99.05 77.93 99.34 78.29 99.61 78.64 99.86 79 100.09 79.35 100.29 79.71 100.48 80.06 100.66 80.42 100.84 80.78 101.01 81.13 101.18 81.49 101.34 81.84 101.49 82.2 101.62 82.56 101.73 82.91 101.83 83.27 101.91 83.62 101.97 83.98 102.03 84.34 102.1 84.69 102.18 85.05 102.29 85.4 102.41 85.76 102.53 86.12 102.66 86.47 102.77 86.83 102.87 87.18 102.95 87.54 103.02 87.89 103.09 88.25 103.15 88.61 103.21 88.96 103.28 89.32 103.35 89.67 103.44 90.03 103.52 90.39 103.61 90.74 103.69 91.1 103.77 91.45 103.84 91.81 103.91 92.17 103.96 92.52 104.01 92.88 104.04 93.23 104.07 93.59 104.09 93.95 104.11 94.3 104.14 94.66 104.17 95.01 104.2 95.37 104.25 95.73 104.3 96.08 104.36 96.44 104.42 96.79 104.49 97.15 104.55 97.5 104.6 97.86 104.63 98.22 104.67 98.57 104.69 98.93 104.73 99.28 104.78 99.64 104.84 100 104.9 100.35 104.96 100.71 105.01 101.06 105.05 101.42 105.07 101.78 105.08 102.13 105.08 102.49 105.06 102.84 105.05 103.2 105.03 103.56 105.02 103.91 105.03 104.27 105.05 104.62 105.08 104.98 105.12 105.33 105.15 105.69 105.18 106.05 105.19 106.4 105.2 106.76 105.2 107.11 105.2 107.47 105.2 107.83 105.2 108.18 105.21 108.54 105.22 108.89 105.24 109.25 105.25 109.61 105.27 109.96 105.3 110.32 105.32 110.67 105.35 111.03 105.38 111.39 105.4 111.74 105.42 112.1 105.44 112.45 105.45 112.81 105.45 113.16 105.46 113.52 105.46 113.88 105.47 114.23 105.48 114.59 105.49 114.94 105.51 115.3 105.52 115.66 105.53 116.01 105.54 116.37 105.54 116.72 105.54 117.08 105.54 117.44 105.53 117.79 105.52 118.15 105.51 118.5 105.51 118.86 105.51 119.22 105.52 119.57 105.53 119.93 105.54 120.28 105.55 120.64 105.56 121 105.57 121.35 105.58 121.71 105.59 122.06 105.6 122.42 105.61 122.77 105.62 123.13 105.63 123.49 105.65 123.84 105.66 124.2 105.67 124.55 105.67 124.91 105.68 125.27 105.69 125.62 105.69 125.98 105.69 126.33 105.69 126.69 105.69 127.05 105.69 127.4 105.69 127.76 105.69 128.11 105.69 128.47 105.7 128.83 105.7 129.18 105.71 129.54 105.71 129.89 105.71 130.25 105.71 130.6 105.71 130.96 105.71 131.32 105.71 131.67 105.71 132.03 105.71"/>
      </g>
      <g stroke-width="0.3" fill="#000000" fill-opacity="0.000" class="geometry" stroke-dasharray="none" stroke="#00BFFF" id="img-978090df-13">
        <path fill="none" d="M40.84,105.71 L 41.2 105.7 41.56 105.68 41.92 105.62 42.28 105.47 42.63 105.14 42.99 104.47 43.35 103.21 43.71 101.04 44.07 97.62 44.43 92.67 44.79 86.11 45.15 78.16 45.51 69.35 45.87 60.45 46.23 52.27 46.59 45.49 46.95 40.5 47.31 37.36 47.67 35.87 48.02 35.66 48.38 36.35 48.74 37.63 49.1 39.23 49.46 41.01 49.82 42.83 50.18 44.63 50.54 46.37 50.9 48.03 51.26 49.64 51.62 51.21 51.98 52.78 52.34 54.35 52.7 55.91 53.05 57.43 53.41 58.88 53.77 60.24 54.13 61.51 54.49 62.68 54.85 63.77 55.21 64.81 55.57 65.82 55.93 66.85 56.29 67.91 56.65 69 57.01 70.1 57.37 71.2 57.73 72.25 58.08 73.22 58.44 74.12 58.8 74.93 59.16 75.68 59.52 76.38 59.88 77.05 60.24 77.7 60.6 78.34 60.96 78.98 61.32 79.63 61.68 80.3 62.04 80.99 62.4 81.7 62.76 82.43 63.11 83.18 63.47 83.92 63.83 84.66 64.19 85.37 64.55 86.05 64.91 86.68 65.27 87.28 65.63 87.84 65.99 88.37 66.35 88.88 66.71 89.37 67.07 89.86 67.43 90.33 67.79 90.8 68.15 91.26 68.5 91.7 68.86 92.11 69.22 92.48 69.58 92.8 69.94 93.09 70.3 93.36 70.66 93.63 71.02 93.92 71.38 94.24 71.74 94.6 72.1 94.98 72.46 95.38 72.82 95.76 73.18 96.12 73.53 96.42 73.89 96.66 74.25 96.83 74.61 96.94 74.97 97.02 75.33 97.1 75.69 97.19 76.05 97.31 76.41 97.47 76.77 97.68 77.13 97.92 77.49 98.18 77.85 98.46 78.21 98.74 78.56 99 78.92 99.26 79.28 99.49 79.64 99.72 80 99.92 80.36 100.12 80.72 100.31 81.08 100.48 81.44 100.65 81.8 100.8 82.16 100.94 82.52 101.07 82.88 101.18 83.24 101.28 83.6 101.37 83.95 101.46 84.31 101.56 84.67 101.67 85.03 101.79 85.39 101.93 85.75 102.08 86.11 102.21 86.47 102.33 86.83 102.44 87.19 102.53 87.55 102.6 87.91 102.68 88.27 102.75 88.63 102.83 88.98 102.92 89.34 103 89.7 103.09 90.06 103.17 90.42 103.26 90.78 103.34 91.14 103.42 91.5 103.5 91.86 103.57 92.22 103.64 92.58 103.7 92.94 103.75 93.3 103.79 93.66 103.83 94.01 103.87 94.37 103.9 94.73 103.94 95.09 103.98 95.45 104.02 95.81 104.08 96.17 104.14 96.53 104.21 96.89 104.28 97.25 104.34 97.61 104.4 97.97 104.44 98.33 104.49 98.69 104.53 99.05 104.58 99.4 104.63 99.76 104.7 100.12 104.77 100.48 104.83 100.84 104.88 101.2 104.91 101.56 104.93 101.92 104.94 102.28 104.94 102.64 104.92 103 104.91 103.36 104.91 103.72 104.91 104.08 104.93 104.43 104.96 104.79 104.99 105.15 105.03 105.51 105.06 105.87 105.09 106.23 105.1 106.59 105.11 106.95 105.11 107.31 105.11 107.67 105.11 108.03 105.12 108.39 105.13 108.75 105.14 109.11 105.16 109.46 105.18 109.82 105.2 110.18 105.23 110.54 105.26 110.9 105.3 111.26 105.32 111.62 105.35 111.98 105.37 112.34 105.38 112.7 105.39 113.06 105.4 113.42 105.41 113.78 105.42 114.14 105.43 114.49 105.44 114.85 105.46 115.21 105.48 115.57 105.49 115.93 105.5 116.29 105.5 116.65 105.5 117.01 105.5 117.37 105.49 117.73 105.48 118.09 105.48 118.45 105.47 118.81 105.47 119.17 105.48 119.53 105.49 119.88 105.5 120.24 105.52 120.6 105.53 120.96 105.54 121.32 105.55 121.68 105.56 122.04 105.58 122.4 105.59 122.76 105.6 123.12 105.62 123.48 105.63 123.84 105.64 124.2 105.65 124.56 105.66 124.91 105.67 125.27 105.68 125.63 105.68 125.99 105.69 126.35 105.69 126.71 105.68 127.07 105.68 127.43 105.68 127.79 105.69 128.15 105.69 128.51 105.69 128.87 105.7 129.23 105.7 129.59 105.71 129.94 105.71 130.3 105.71 130.66 105.71 131.02 105.71 131.38 105.71 131.74 105.71 132.1 105.71 132.46 105.71"/>
      </g>
      <g stroke-width="0.3" fill="#000000" fill-opacity="0.000" class="geometry" stroke-dasharray="none" stroke="#00BFFF" id="img-978090df-14">
        <path fill="none" d="M40.25,105.71 L 40.61 105.71 40.97 105.69 41.34 105.65 41.7 105.56 42.06 105.38 42.43 105.01 42.79 104.32 43.16 103.12 43.52 101.21 43.88 98.34 44.25 94.33 44.61 89.13 44.98 82.85 45.34 75.79 45.7 68.42 46.07 61.3 46.43 54.95 46.8 49.75 47.16 45.91 47.52 43.41 47.89 42.12 48.25 41.8 48.62 42.19 48.98 43.05 49.34 44.21 49.71 45.52 50.07 46.9 50.44 48.29 50.8 49.67 51.16 51.04 51.53 52.4 51.89 53.76 52.26 55.12 52.62 56.49 52.98 57.85 53.35 59.17 53.71 60.44 54.08 61.63 54.44 62.76 54.8 63.84 55.17 64.89 55.53 65.94 55.9 67 56.26 68.09 56.62 69.19 56.99 70.28 57.35 71.34 57.71 72.34 58.08 73.26 58.44 74.1 58.81 74.88 59.17 75.61 59.53 76.29 59.9 76.94 60.26 77.56 60.63 78.16 60.99 78.74 61.35 79.31 61.72 79.9 62.08 80.51 62.45 81.15 62.81 81.83 63.17 82.53 63.54 83.25 63.9 83.96 64.27 84.65 64.63 85.3 64.99 85.92 65.36 86.5 65.72 87.04 66.09 87.56 66.45 88.06 66.81 88.55 67.18 89.02 67.54 89.49 67.91 89.93 68.27 90.36 68.63 90.76 69 91.12 69.36 91.46 69.73 91.76 70.09 92.05 70.45 92.35 70.82 92.66 71.18 92.99 71.55 93.36 71.91 93.75 72.27 94.16 72.64 94.57 73 94.96 73.36 95.31 73.73 95.61 74.09 95.84 74.46 96.02 74.82 96.14 75.18 96.24 75.55 96.34 75.91 96.44 76.28 96.58 76.64 96.76 77 96.96 77.37 97.2 77.73 97.46 78.1 97.73 78.46 98.01 78.82 98.28 79.19 98.54 79.55 98.79 79.92 99.03 80.28 99.26 80.64 99.47 81.01 99.68 81.37 99.86 81.74 100.03 82.1 100.19 82.46 100.33 82.83 100.45 83.19 100.56 83.56 100.66 83.92 100.77 84.28 100.88 84.65 101 85.01 101.15 85.38 101.3 85.74 101.47 86.1 101.63 86.47 101.77 86.83 101.9 87.2 102.01 87.56 102.11 87.92 102.19 88.29 102.27 88.65 102.35 89.01 102.43 89.38 102.52 89.74 102.62 90.11 102.72 90.47 102.82 90.83 102.92 91.2 103.02 91.56 103.1 91.93 103.19 92.29 103.26 92.65 103.33 93.02 103.38 93.38 103.43 93.75 103.48 94.11 103.51 94.47 103.55 94.84 103.59 95.2 103.63 95.57 103.69 95.93 103.75 96.29 103.82 96.66 103.89 97.02 103.97 97.39 104.04 97.75 104.1 98.11 104.16 98.48 104.22 98.84 104.29 99.21 104.36 99.57 104.43 99.93 104.5 100.3 104.58 100.66 104.64 101.03 104.69 101.39 104.73 101.75 104.74 102.12 104.75 102.48 104.75 102.85 104.74 103.21 104.74 103.57 104.74 103.94 104.76 104.3 104.78 104.66 104.81 105.03 104.85 105.39 104.88 105.76 104.91 106.12 104.94 106.48 104.95 106.85 104.96 107.21 104.96 107.58 104.97 107.94 104.97 108.3 104.98 108.67 105 109.03 105.02 109.4 105.04 109.76 105.07 110.12 105.11 110.49 105.14 110.85 105.18 111.22 105.21 111.58 105.25 111.94 105.27 112.31 105.29 112.67 105.31 113.04 105.32 113.4 105.33 113.76 105.35 114.13 105.36 114.49 105.38 114.86 105.4 115.22 105.41 115.58 105.43 115.95 105.44 116.31 105.44 116.68 105.44 117.04 105.44 117.4 105.43 117.77 105.43 118.13 105.42 118.5 105.42 118.86 105.42 119.22 105.43 119.59 105.44 119.95 105.45 120.31 105.47 120.68 105.49 121.04 105.5 121.41 105.52 121.77 105.53 122.13 105.55 122.5 105.56 122.86 105.58 123.23 105.6 123.59 105.61 123.95 105.63 124.32 105.64 124.68 105.65 125.05 105.66 125.41 105.67 125.77 105.67 126.14 105.68 126.5 105.68 126.87 105.68 127.23 105.68 127.59 105.68 127.96 105.68 128.32 105.69 128.69 105.69 129.05 105.7 129.41 105.7 129.78 105.71 130.14 105.71 130.51 105.71 130.87 105.71 131.23 105.71 131.6 105.71 131.96 105.71 132.33 105.71 132.69 105.71 133.05 105.71"/>
      </g>
      <g stroke-width="0.3" fill="#000000" fill-opacity="0.000" class="geometry" stroke-dasharray="none" stroke="#00BFFF" id="img-978090df-15">
        <path fill="none" d="M39.5,105.71 L 39.87 105.71 40.24 105.7 40.6 105.67 40.97 105.62 41.34 105.52 41.71 105.31 42.08 104.95 42.45 104.33 42.82 103.32 43.19 101.77 43.56 99.55 43.93 96.52 44.3 92.62 44.67 87.88 45.04 82.45 45.41 76.58 45.78 70.61 46.15 64.91 46.52 59.8 46.89 55.53 47.26 52.24 47.63 49.95 48 48.56 48.37 47.95 48.74 47.93 49.11 48.35 49.48 49.07 49.85 49.96 50.22 50.96 50.59 52.01 50.96 53.08 51.33 54.16 51.7 55.25 52.07 56.36 52.44 57.47 52.81 58.61 53.18 59.74 53.55 60.87 53.92 61.98 54.29 63.06 54.66 64.12 55.03 65.14 55.4 66.15 55.77 67.15 56.14 68.14 56.51 69.13 56.88 70.11 57.25 71.07 57.62 71.99 57.99 72.86 58.36 73.69 58.73 74.46 59.1 75.18 59.47 75.87 59.84 76.52 60.21 77.16 60.58 77.78 60.95 78.39 61.32 79 61.69 79.63 62.06 80.27 62.43 80.93 62.79 81.6 63.16 82.27 63.53 82.93 63.9 83.56 64.27 84.15 64.64 84.69 65.01 85.2 65.38 85.67 65.75 86.12 66.12 86.56 66.49 87 66.86 87.44 67.23 87.9 67.6 88.35 67.97 88.8 68.34 89.24 68.71 89.66 69.08 90.06 69.45 90.43 69.82 90.78 70.19 91.11 70.56 91.44 70.93 91.78 71.3 92.13 71.67 92.51 72.04 92.91 72.41 93.33 72.78 93.74 73.15 94.13 73.52 94.49 73.89 94.79 74.26 95.03 74.63 95.22 75 95.36 75.37 95.46 75.74 95.56 76.11 95.66 76.48 95.77 76.85 95.92 77.22 96.1 77.59 96.32 77.96 96.57 78.33 96.84 78.7 97.12 79.07 97.41 79.44 97.69 79.81 97.96 80.18 98.23 80.55 98.47 80.92 98.71 81.29 98.92 81.66 99.13 82.03 99.32 82.4 99.5 82.77 99.67 83.14 99.82 83.51 99.98 83.88 100.12 84.25 100.27 84.62 100.41 84.98 100.56 85.35 100.7 85.72 100.85 86.09 100.98 86.46 101.11 86.83 101.23 87.2 101.33 87.57 101.43 87.94 101.53 88.31 101.62 88.68 101.72 89.05 101.82 89.42 101.93 89.79 102.04 90.16 102.15 90.53 102.25 90.9 102.35 91.27 102.44 91.64 102.53 92.01 102.6 92.38 102.67 92.75 102.73 93.12 102.79 93.49 102.85 93.86 102.9 94.23 102.96 94.6 103.02 94.97 103.08 95.34 103.15 95.71 103.22 96.08 103.3 96.45 103.38 96.82 103.47 97.19 103.56 97.56 103.64 97.93 103.73 98.3 103.82 98.67 103.9 99.04 103.99 99.41 104.08 99.78 104.17 100.15 104.25 100.52 104.33 100.89 104.39 101.26 104.44 101.63 104.48 102 104.5 102.37 104.51 102.74 104.51 103.11 104.51 103.48 104.51 103.85 104.53 104.22 104.55 104.59 104.57 104.96 104.6 105.33 104.63 105.7 104.66 106.07 104.69 106.44 104.7 106.81 104.72 107.17 104.73 107.54 104.74 107.91 104.75 108.28 104.76 108.65 104.78 109.02 104.81 109.39 104.85 109.76 104.89 110.13 104.93 110.5 104.97 110.87 105.02 111.24 105.06 111.61 105.1 111.98 105.14 112.35 105.17 112.72 105.19 113.09 105.21 113.46 105.23 113.83 105.25 114.2 105.27 114.57 105.3 114.94 105.32 115.31 105.34 115.68 105.36 116.05 105.37 116.42 105.38 116.79 105.39 117.16 105.39 117.53 105.39 117.9 105.39 118.27 105.38 118.64 105.38 119.01 105.38 119.38 105.38 119.75 105.39 120.12 105.4 120.49 105.41 120.86 105.43 121.23 105.44 121.6 105.46 121.97 105.48 122.34 105.5 122.71 105.52 123.08 105.55 123.45 105.57 123.82 105.59 124.19 105.6 124.56 105.62 124.93 105.63 125.3 105.64 125.67 105.65 126.04 105.66 126.41 105.66 126.78 105.66 127.15 105.67 127.52 105.67 127.89 105.67 128.26 105.68 128.63 105.69 129 105.69 129.36 105.7 129.73 105.7 130.1 105.71 130.47 105.71 130.84 105.71 131.21 105.71 131.58 105.71 131.95 105.71 132.32 105.71 132.69 105.71 133.06 105.71 133.43 105.71 133.8 105.71"/>
      </g>
      <g stroke-width="0.3" fill="#000000" fill-opacity="0.000" class="geometry" stroke-dasharray="none" stroke="#00BFFF" id="img-978090df-16">
        <path fill="none" d="M38.44,105.71 L 38.81 105.71 39.19 105.7 39.57 105.69 39.95 105.66 40.33 105.61 40.7 105.52 41.08 105.35 41.46 105.08 41.84 104.63 42.22 103.94 42.6 102.93 42.97 101.5 43.35 99.56 43.73 97.04 44.11 93.93 44.49 90.23 44.86 86.03 45.24 81.48 45.62 76.75 46 72.08 46.38 67.67 46.76 63.71 47.13 60.34 47.51 57.65 47.89 55.65 48.27 54.31 48.65 53.55 49.02 53.29 49.4 53.42 49.78 53.84 50.16 54.48 50.54 55.27 50.91 56.15 51.29 57.09 51.67 58.05 52.05 59.02 52.43 59.99 52.81 60.94 53.18 61.87 53.56 62.78 53.94 63.67 54.32 64.55 54.7 65.42 55.07 66.29 55.45 67.16 55.83 68.04 56.21 68.92 56.59 69.8 56.96 70.67 57.34 71.52 57.72 72.34 58.1 73.12 58.48 73.86 58.86 74.55 59.23 75.2 59.61 75.81 59.99 76.4 60.37 76.98 60.75 77.56 61.12 78.15 61.5 78.76 61.88 79.4 62.26 80.07 62.64 80.75 63.02 81.43 63.39 82.1 63.77 82.75 64.15 83.36 64.53 83.93 64.91 84.46 65.28 84.94 65.66 85.4 66.04 85.83 66.42 86.25 66.8 86.66 67.17 87.07 67.55 87.48 67.93 87.88 68.31 88.28 68.69 88.68 69.07 89.07 69.44 89.45 69.82 89.82 70.2 90.2 70.58 90.57 70.96 90.96 71.33 91.36 71.71 91.76 72.09 92.17 72.47 92.56 72.85 92.94 73.23 93.29 73.6 93.61 73.98 93.87 74.36 94.09 74.74 94.27 75.12 94.4 75.49 94.51 75.87 94.61 76.25 94.7 76.63 94.8 77.01 94.92 77.38 95.07 77.76 95.25 78.14 95.46 78.52 95.69 78.9 95.95 79.28 96.22 79.65 96.5 80.03 96.79 80.41 97.08 80.79 97.36 81.17 97.64 81.54 97.91 81.92 98.16 82.3 98.41 82.68 98.64 83.06 98.85 83.43 99.06 83.81 99.25 84.19 99.44 84.57 99.61 84.95 99.78 85.33 99.94 85.7 100.09 86.08 100.23 86.46 100.35 86.84 100.47 87.22 100.57 87.59 100.67 87.97 100.76 88.35 100.85 88.73 100.94 89.11 101.04 89.49 101.14 89.86 101.25 90.24 101.36 90.62 101.48 91 101.59 91.38 101.7 91.75 101.81 92.13 101.92 92.51 102.01 92.89 102.11 93.27 102.19 93.64 102.27 94.02 102.35 94.4 102.43 94.78 102.5 95.16 102.58 95.54 102.66 95.91 102.74 96.29 102.83 96.67 102.93 97.05 103.03 97.43 103.14 97.8 103.25 98.18 103.36 98.56 103.48 98.94 103.59 99.32 103.69 99.7 103.79 100.07 103.88 100.45 103.96 100.83 104.02 101.21 104.07 101.59 104.1 101.96 104.12 102.34 104.13 102.72 104.13 103.1 104.13 103.48 104.13 103.85 104.13 104.23 104.14 104.61 104.16 104.99 104.18 105.37 104.21 105.75 104.24 106.12 104.27 106.5 104.3 106.88 104.32 107.26 104.35 107.64 104.38 108.01 104.41 108.39 104.45 108.77 104.49 109.15 104.54 109.53 104.6 109.9 104.66 110.28 104.73 110.66 104.8 111.04 104.86 111.42 104.93 111.8 104.98 112.17 105.04 112.55 105.08 112.93 105.12 113.31 105.15 113.69 105.17 114.06 105.2 114.44 105.22 114.82 105.23 115.2 105.25 115.58 105.26 115.96 105.27 116.33 105.28 116.71 105.29 117.09 105.3 117.47 105.3 117.85 105.3 118.22 105.3 118.6 105.3 118.98 105.3 119.36 105.31 119.74 105.31 120.11 105.32 120.49 105.33 120.87 105.35 121.25 105.36 121.63 105.38 122.01 105.41 122.38 105.43 122.76 105.46 123.14 105.48 123.52 105.51 123.9 105.53 124.27 105.55 124.65 105.57 125.03 105.59 125.41 105.6 125.79 105.62 126.17 105.62 126.54 105.63 126.92 105.64 127.3 105.65 127.68 105.65 128.06 105.66 128.43 105.67 128.81 105.67 129.19 105.68 129.57 105.69 129.95 105.69 130.32 105.7 130.7 105.7 131.08 105.71 131.46 105.71 131.84 105.71 132.22 105.71 132.59 105.71 132.97 105.71 133.35 105.71 133.73 105.71 134.11 105.71 134.48 105.71 134.86 105.71"/>
      </g>
      <g stroke-width="0.3" fill="#000000" fill-opacity="0.000" class="geometry" stroke-dasharray="none" stroke="#00BFFF" id="img-978090df-17">
        <path fill="none" d="M36.42,105.71 L 36.81 105.71 37.21 105.71 37.6 105.7 38 105.69 38.39 105.67 38.78 105.63 39.18 105.57 39.57 105.47 39.97 105.32 40.36 105.1 40.75 104.76 41.15 104.29 41.54 103.63 41.94 102.74 42.33 101.58 42.72 100.1 43.12 98.28 43.51 96.1 43.91 93.55 44.3 90.68 44.69 87.52 45.09 84.16 45.48 80.68 45.88 77.21 46.27 73.83 46.66 70.67 47.06 67.82 47.45 65.34 47.85 63.29 48.24 61.69 48.63 60.53 49.03 59.8 49.42 59.45 49.82 59.43 50.21 59.69 50.6 60.17 51 60.81 51.39 61.57 51.78 62.4 52.18 63.27 52.57 64.15 52.97 65.02 53.36 65.87 53.75 66.7 54.15 67.5 54.54 68.27 54.94 69.02 55.33 69.75 55.72 70.45 56.12 71.13 56.51 71.78 56.91 72.41 57.3 73 57.69 73.56 58.09 74.09 58.48 74.58 58.88 75.06 59.27 75.51 59.66 75.96 60.06 76.41 60.45 76.87 60.85 77.36 61.24 77.87 61.63 78.42 62.03 78.99 62.42 79.59 62.82 80.2 63.21 80.82 63.6 81.44 64 82.05 64.39 82.64 64.79 83.2 65.18 83.74 65.57 84.26 65.97 84.75 66.36 85.23 66.75 85.68 67.15 86.11 67.54 86.53 67.94 86.93 68.33 87.31 68.72 87.69 69.12 88.04 69.51 88.39 69.91 88.74 70.3 89.08 70.69 89.43 71.09 89.78 71.48 90.13 71.88 90.49 72.27 90.85 72.66 91.2 73.06 91.55 73.45 91.87 73.85 92.17 74.24 92.43 74.63 92.67 75.03 92.89 75.42 93.07 75.82 93.25 76.21 93.42 76.6 93.6 77 93.78 77.39 93.98 77.79 94.2 78.18 94.45 78.57 94.71 78.97 94.98 79.36 95.26 79.76 95.55 80.15 95.84 80.54 96.12 80.94 96.39 81.33 96.65 81.72 96.9 82.12 97.14 82.51 97.37 82.91 97.59 83.3 97.8 83.69 98.01 84.09 98.21 84.48 98.41 84.88 98.61 85.27 98.8 85.66 98.98 86.06 99.16 86.45 99.33 86.85 99.49 87.24 99.63 87.63 99.77 88.03 99.91 88.42 100.04 88.82 100.17 89.21 100.3 89.6 100.44 90 100.57 90.39 100.71 90.79 100.85 91.18 100.99 91.57 101.12 91.97 101.25 92.36 101.36 92.76 101.46 93.15 101.55 93.54 101.63 93.94 101.69 94.33 101.75 94.73 101.8 95.12 101.85 95.51 101.9 95.91 101.96 96.3 102.03 96.69 102.11 97.09 102.2 97.48 102.3 97.88 102.41 98.27 102.52 98.66 102.63 99.06 102.74 99.45 102.86 99.85 102.96 100.24 103.06 100.63 103.15 101.03 103.23 101.42 103.31 101.82 103.37 102.21 103.43 102.6 103.48 103 103.52 103.39 103.57 103.79 103.61 104.18 103.65 104.57 103.7 104.97 103.74 105.36 103.79 105.76 103.84 106.15 103.88 106.54 103.93 106.94 103.98 107.33 104.02 107.73 104.07 108.12 104.12 108.51 104.17 108.91 104.23 109.3 104.29 109.7 104.35 110.09 104.42 110.48 104.49 110.88 104.55 111.27 104.62 111.66 104.69 112.06 104.76 112.45 104.82 112.85 104.88 113.24 104.93 113.63 104.98 114.03 105.02 114.42 105.05 114.82 105.08 115.21 105.1 115.6 105.12 116 105.13 116.39 105.14 116.79 105.14 117.18 105.14 117.57 105.14 117.97 105.14 118.36 105.14 118.76 105.14 119.15 105.14 119.54 105.15 119.94 105.16 120.33 105.18 120.73 105.19 121.12 105.22 121.51 105.24 121.91 105.27 122.3 105.3 122.7 105.33 123.09 105.36 123.48 105.4 123.88 105.43 124.27 105.46 124.66 105.48 125.06 105.51 125.45 105.53 125.85 105.56 126.24 105.58 126.63 105.59 127.03 105.61 127.42 105.62 127.82 105.64 128.21 105.65 128.6 105.66 129 105.67 129.39 105.68 129.79 105.68 130.18 105.69 130.57 105.7 130.97 105.7 131.36 105.7 131.76 105.71 132.15 105.71 132.54 105.71 132.94 105.71 133.33 105.71 133.73 105.71 134.12 105.71 134.51 105.71 134.91 105.71 135.3 105.71 135.7 105.71 136.09 105.71 136.48 105.71 136.88 105.71"/>
      </g>
      <g stroke-width="0.3" fill="#000000" fill-opacity="0.000" class="geometry" stroke-dasharray="none" stroke="#00BFFF" id="img-978090df-18">
        <path fill="none" d="M34.52,105.71 L 34.93 105.71 35.34 105.71 35.75 105.71 36.17 105.7 36.58 105.69 36.99 105.67 37.41 105.65 37.82 105.61 38.23 105.55 38.65 105.46 39.06 105.34 39.47 105.16 39.89 104.91 40.3 104.58 40.71 104.14 41.13 103.56 41.54 102.83 41.95 101.93 42.36 100.83 42.78 99.52 43.19 98 43.6 96.28 44.02 94.36 44.43 92.27 44.84 90.06 45.26 87.75 45.67 85.41 46.08 83.09 46.5 80.84 46.91 78.71 47.32 76.76 47.74 75.01 48.15 73.48 48.56 72.2 48.97 71.16 49.39 70.35 49.8 69.77 50.21 69.39 50.63 69.18 51.04 69.12 51.45 69.19 51.87 69.36 52.28 69.6 52.69 69.92 53.11 70.28 53.52 70.68 53.93 71.11 54.35 71.57 54.76 72.05 55.17 72.55 55.58 73.06 56 73.59 56.41 74.12 56.82 74.65 57.24 75.19 57.65 75.73 58.06 76.26 58.48 76.79 58.89 77.31 59.3 77.81 59.72 78.31 60.13 78.79 60.54 79.25 60.96 79.7 61.37 80.13 61.78 80.55 62.19 80.95 62.61 81.34 63.02 81.72 63.43 82.09 63.85 82.45 64.26 82.81 64.67 83.16 65.09 83.52 65.5 83.87 65.91 84.22 66.33 84.57 66.74 84.91 67.15 85.26 67.57 85.59 67.98 85.92 68.39 86.24 68.8 86.55 69.22 86.84 69.63 87.12 70.04 87.39 70.46 87.64 70.87 87.88 71.28 88.11 71.7 88.34 72.11 88.55 72.52 88.76 72.94 88.97 73.35 89.18 73.76 89.4 74.18 89.61 74.59 89.84 75 90.07 75.41 90.31 75.83 90.56 76.24 90.82 76.65 91.1 77.07 91.38 77.48 91.67 77.89 91.97 78.31 92.28 78.72 92.6 79.13 92.92 79.55 93.24 79.96 93.55 80.37 93.86 80.79 94.17 81.2 94.47 81.61 94.75 82.03 95.03 82.44 95.29 82.85 95.54 83.26 95.78 83.68 96 84.09 96.21 84.5 96.4 84.92 96.58 85.33 96.74 85.74 96.89 86.16 97.03 86.57 97.15 86.98 97.27 87.4 97.38 87.81 97.5 88.22 97.62 88.64 97.74 89.05 97.88 89.46 98.03 89.87 98.19 90.29 98.36 90.7 98.54 91.11 98.73 91.53 98.93 91.94 99.13 92.35 99.33 92.77 99.52 93.18 99.7 93.59 99.88 94.01 100.04 94.42 100.19 94.83 100.33 95.25 100.47 95.66 100.59 96.07 100.71 96.48 100.82 96.9 100.93 97.31 101.03 97.72 101.14 98.14 101.24 98.55 101.33 98.96 101.43 99.38 101.53 99.79 101.62 100.2 101.71 100.62 101.8 101.03 101.88 101.44 101.96 101.86 102.04 102.27 102.11 102.68 102.17 103.09 102.23 103.51 102.29 103.92 102.34 104.33 102.39 104.75 102.43 105.16 102.47 105.57 102.52 105.99 102.56 106.4 102.6 106.81 102.65 107.23 102.71 107.64 102.76 108.05 102.83 108.47 102.9 108.88 102.98 109.29 103.05 109.7 103.14 110.12 103.22 110.53 103.3 110.94 103.38 111.36 103.45 111.77 103.52 112.18 103.59 112.6 103.65 113.01 103.7 113.42 103.74 113.84 103.78 114.25 103.81 114.66 103.84 115.08 103.87 115.49 103.89 115.9 103.91 116.31 103.93 116.73 103.95 117.14 103.96 117.55 103.97 117.97 103.98 118.38 104 118.79 104.01 119.21 104.02 119.62 104.04 120.03 104.06 120.45 104.08 120.86 104.11 121.27 104.15 121.69 104.19 122.1 104.25 122.51 104.3 122.92 104.37 123.34 104.44 123.75 104.52 124.16 104.59 124.58 104.67 124.99 104.75 125.4 104.83 125.82 104.91 126.23 104.98 126.64 105.04 127.06 105.11 127.47 105.16 127.88 105.22 128.3 105.27 128.71 105.32 129.12 105.37 129.54 105.41 129.95 105.45 130.36 105.49 130.77 105.52 131.19 105.55 131.6 105.58 132.01 105.61 132.43 105.63 132.84 105.65 133.25 105.66 133.67 105.68 134.08 105.69 134.49 105.69 134.91 105.7 135.32 105.7 135.73 105.71 136.15 105.71 136.56 105.71 136.97 105.71 137.38 105.71 137.8 105.71 138.21 105.71 138.62 105.71 139.04 105.71 139.45 105.71 139.86 105.71"/>
      </g>
    </g>
  </g>
</g>
  <g class="guide ylabels" font-size="2.82" font-family="'PT Sans Caption','Helvetica Neue','Helvetica',sans-serif" fill="#6C606B" id="img-978090df-19">
    <text x="9.35" y="105.71" text-anchor="end" dy="0.35em">0</text>
    <text x="9.35" y="72.81" text-anchor="end" dy="0.35em">5</text>
    <text x="9.35" y="39.9" text-anchor="end" dy="0.35em">10</text>
    <text x="9.35" y="7" text-anchor="end" dy="0.35em">15</text>
  </g>
</g>
<defs>
  <clipPath id="img-978090df-4">
  <path d="M10.35,5 L 147.4 5 147.4 107.72 10.35 107.72" />
</clipPath>
</defs>
</svg>
