<?xml version="1.0" encoding="UTF-8"?>
<svg xmlns="http://www.w3.org/2000/svg"
     xmlns:xlink="http://www.w3.org/1999/xlink"
     xmlns:gadfly="http://www.gadflyjl.org/ns"
     version="1.2"
     width="152.4mm" height="127mm" viewBox="0 0 152.4 127"
     stroke="none"
     fill="#000000"
     stroke-width="0.3"
     font-size="3.88"
>
<g class="plotroot xscalable yscalable" id="img-02e8c329-1">
  <g font-size="3.88" font-family="'PT Sans','Helvetica Neue','Helvetica',sans-serif" fill="#564A55" stroke="#000000" stroke-opacity="0.000" id="img-02e8c329-2">
    <text x="78.87" y="115.39" text-anchor="middle" dy="0.6em">x</text>
  </g>
  <g class="guide xlabels" font-size="2.82" font-family="'PT Sans Caption','Helvetica Neue','Helvetica',sans-serif" fill="#6C606B" id="img-02e8c329-3">
    <text x="12.35" y="108.72" text-anchor="middle" dy="0.6em">-0.2</text>
    <text x="45.61" y="108.72" text-anchor="middle" dy="0.6em">0.0</text>
    <text x="78.87" y="108.72" text-anchor="middle" dy="0.6em">0.2</text>
    <text x="112.14" y="108.72" text-anchor="middle" dy="0.6em">0.4</text>
    <text x="145.4" y="108.72" text-anchor="middle" dy="0.6em">0.6</text>
  </g>
<g clip-path="url(#img-02e8c329-4)">
  <g id="img-02e8c329-5">
    <g pointer-events="visible" opacity="1" fill="#000000" fill-opacity="0.000" stroke="#000000" stroke-opacity="0.000" class="guide background" id="img-02e8c329-6">
      <rect x="10.35" y="5" width="137.05" height="102.72"/>
    </g>
    <g class="guide ygridlines xfixed" stroke-dasharray="0.5,0.5" stroke-width="0.2" stroke="#D0D0E0" id="img-02e8c329-7">
      <path fill="none" d="M10.35,105.71 L 147.4 105.71"/>
      <path fill="none" d="M10.35,72.81 L 147.4 72.81"/>
      <path fill="none" d="M10.35,39.9 L 147.4 39.9"/>
      <path fill="none" d="M10.35,7 L 147.4 7"/>
    </g>
    <g class="guide xgridlines yfixed" stroke-dasharray="0.5,0.5" stroke-width="0.2" stroke="#D0D0E0" id="img-02e8c329-8">
      <path fill="none" d="M12.35,5 L 12.35 107.72"/>
      <path fill="none" d="M45.61,5 L 45.61 107.72"/>
      <path fill="none" d="M78.87,5 L 78.87 107.72"/>
      <path fill="none" d="M112.14,5 L 112.14 107.72"/>
      <path fill="none" d="M145.4,5 L 145.4 107.72"/>
    </g>
    <g class="plotpanel" id="img-02e8c329-9">
      <g stroke-width="0.3" fill="#000000" fill-opacity="0.000" class="geometry" stroke-dasharray="none" stroke="#00BFFF" id="img-02e8c329-10">
        <path fill="none" d="M43.47,105.71 L 43.81 105.64 44.15 105.24 44.49 103.41 44.83 97.62 45.18 84.63 45.52 64.22 45.86 42.21 46.2 26.83 46.54 21.6 46.89 23.86 47.23 29.17 47.57 34.73 47.91 39.69 48.25 44.19 48.59 48.49 48.94 52.62 49.28 56.54 49.62 60.13 49.96 63.3 50.3 66.12 50.65 68.77 50.99 71.34 51.33 73.79 51.67 76.06 52.01 78.17 52.36 80.14 52.7 81.92 53.04 83.42 53.38 84.72 53.72 86 54.07 87.28 54.41 88.43 54.75 89.49 55.09 90.51 55.43 91.42 55.78 92.12 56.12 92.7 56.46 93.24 56.8 93.76 57.14 94.26 57.49 94.82 57.83 95.5 58.17 96.24 58.51 96.93 58.85 97.46 59.2 97.83 59.54 98.14 59.88 98.44 60.22 98.74 60.56 99.08 60.91 99.5 61.25 99.96 61.59 100.38 61.93 100.73 62.27 101.04 62.61 101.29 62.96 101.47 63.3 101.61 63.64 101.74 63.98 101.88 64.32 102.05 64.67 102.24 65.01 102.43 65.35 102.61 65.69 102.78 66.03 102.94 66.38 103.07 66.72 103.17 67.06 103.27 67.4 103.37 67.74 103.42 68.09 103.41 68.43 103.4 68.77 103.42 69.11 103.49 69.45 103.58 69.8 103.69 70.14 103.79 70.48 103.86 70.82 103.89 71.16 103.91 71.51 103.95 71.85 104.01 72.19 104.1 72.53 104.18 72.87 104.27 73.22 104.35 73.56 104.42 73.9 104.49 74.24 104.57 74.58 104.66 74.93 104.73 75.27 104.75 75.61 104.72 75.95 104.7 76.29 104.73 76.63 104.8 76.98 104.88 77.32 104.94 77.66 104.96 78 104.97 78.34 104.98 78.69 104.97 79.03 104.93 79.37 104.88 79.71 104.87 80.05 104.91 80.4 104.96 80.74 104.97 81.08 104.96 81.42 104.96 81.76 105 82.11 105.06 82.45 105.14 82.79 105.2 83.13 105.25 83.47 105.29 83.82 105.31 84.16 105.31 84.5 105.3 84.84 105.3 85.18 105.33 85.53 105.38 85.87 105.41 86.21 105.43 86.55 105.43 86.89 105.42 87.24 105.4 87.58 105.39 87.92 105.37 88.26 105.35 88.6 105.32 88.95 105.32 89.29 105.33 89.63 105.35 89.97 105.36 90.31 105.37 90.66 105.37 91 105.36 91.34 105.35 91.68 105.35 92.02 105.38 92.36 105.4 92.71 105.42 93.05 105.43 93.39 105.44 93.73 105.45 94.07 105.46 94.42 105.47 94.76 105.49 95.1 105.5 95.44 105.5 95.78 105.49 96.13 105.49 96.47 105.5 96.81 105.51 97.15 105.53 97.49 105.54 97.84 105.56 98.18 105.56 98.52 105.53 98.86 105.5 99.2 105.49 99.55 105.51 99.89 105.55 100.23 105.58 100.57 105.6 100.91 105.6 101.26 105.59 101.6 105.57 101.94 105.55 102.28 105.54 102.62 105.54 102.97 105.55 103.31 105.57 103.65 105.6 103.99 105.62 104.33 105.62 104.68 105.61 105.02 105.59 105.36 105.57 105.7 105.56 106.04 105.56 106.38 105.58 106.73 105.61 107.07 105.63 107.41 105.65 107.75 105.64 108.09 105.63 108.44 105.63 108.78 105.63 109.12 105.64 109.46 105.65 109.8 105.65 110.15 105.63 110.49 105.62 110.83 105.6 111.17 105.59 111.51 105.58 111.86 105.58 112.2 105.57 112.54 105.58 112.88 105.59 113.22 105.61 113.57 105.63 113.91 105.63 114.25 105.63 114.59 105.63 114.93 105.63 115.28 105.64 115.62 105.65 115.96 105.65 116.3 105.64 116.64 105.62 116.99 105.6 117.33 105.62 117.67 105.64 118.01 105.67 118.35 105.67 118.7 105.66 119.04 105.64 119.38 105.63 119.72 105.63 120.06 105.63 120.41 105.63 120.75 105.64 121.09 105.64 121.43 105.65 121.77 105.65 122.11 105.65 122.46 105.65 122.8 105.66 123.14 105.67 123.48 105.69 123.82 105.69 124.17 105.68 124.51 105.67 124.85 105.65 125.19 105.65 125.53 105.64 125.88 105.64 126.22 105.64 126.56 105.66 126.9 105.67 127.24 105.67 127.59 105.66 127.93 105.65 128.27 105.65 128.61 105.67 128.95 105.69 129.3 105.7 129.64 105.71 129.98 105.71 130.32 105.71 130.66 105.71"/>
      </g>
      <g stroke-width="0.3" fill="#000000" fill-opacity="0.000" class="geometry" stroke-dasharray="none" stroke="#00BFFF" id="img-02e8c329-11">
        <path fill="none" d="M43.2,105.71 L 43.54 105.67 43.89 105.42 44.23 104.39 44.58 101.11 44.92 93.31 45.26 79.44 45.61 61.13 45.95 43.59 46.3 32.14 46.64 28.43 46.99 30.3 47.33 34.51 47.67 38.99 48.02 43.1 48.36 46.99 48.71 50.87 49.05 54.71 49.39 58.33 49.74 61.6 50.08 64.52 50.43 67.2 50.77 69.76 51.11 72.18 51.46 74.42 51.8 76.49 52.15 78.44 52.49 80.27 52.83 81.93 53.18 83.38 53.52 84.69 53.87 85.94 54.21 87.12 54.55 88.21 54.9 89.22 55.24 90.12 55.59 90.89 55.93 91.55 56.27 92.18 56.62 92.8 56.96 93.41 57.31 94 57.65 94.64 57.99 95.31 58.34 95.99 58.68 96.56 59.03 97 59.37 97.34 59.71 97.68 60.06 98.05 60.4 98.44 60.75 98.86 61.09 99.28 61.43 99.69 61.78 100.06 62.12 100.39 62.47 100.69 62.81 100.93 63.15 101.12 63.5 101.27 63.84 101.39 64.19 101.53 64.53 101.69 64.87 101.86 65.22 102.04 65.56 102.22 65.91 102.4 66.25 102.59 66.59 102.76 66.94 102.92 67.28 103.06 67.63 103.14 67.97 103.15 68.31 103.13 68.66 103.12 69 103.17 69.35 103.27 69.69 103.4 70.04 103.53 70.38 103.64 70.72 103.7 71.07 103.74 71.41 103.77 71.76 103.81 72.1 103.88 72.44 103.97 72.79 104.05 73.13 104.12 73.48 104.19 73.82 104.26 74.16 104.36 74.51 104.47 74.85 104.56 75.2 104.6 75.54 104.6 75.88 104.58 76.23 104.59 76.57 104.64 76.92 104.71 77.26 104.78 77.6 104.82 77.95 104.85 78.29 104.87 78.64 104.86 78.98 104.82 79.32 104.77 79.67 104.75 80.01 104.77 80.36 104.82 80.7 104.85 81.04 104.85 81.39 104.86 81.73 104.89 82.08 104.95 82.42 105.03 82.76 105.1 83.11 105.16 83.45 105.21 83.8 105.23 84.14 105.23 84.48 105.23 84.83 105.23 85.17 105.26 85.52 105.3 85.86 105.34 86.2 105.36 86.55 105.37 86.89 105.36 87.24 105.35 87.58 105.33 87.92 105.3 88.27 105.27 88.61 105.25 88.96 105.24 89.3 105.25 89.64 105.27 89.99 105.29 90.33 105.3 90.68 105.3 91.02 105.29 91.36 105.28 91.71 105.29 92.05 105.31 92.4 105.34 92.74 105.36 93.09 105.38 93.43 105.39 93.77 105.41 94.12 105.42 94.46 105.43 94.81 105.44 95.15 105.45 95.49 105.45 95.84 105.44 96.18 105.45 96.53 105.46 96.87 105.47 97.21 105.49 97.56 105.51 97.9 105.52 98.25 105.51 98.59 105.49 98.93 105.46 99.28 105.46 99.62 105.48 99.97 105.52 100.31 105.56 100.65 105.57 101 105.57 101.34 105.55 101.69 105.53 102.03 105.51 102.37 105.51 102.72 105.51 103.06 105.53 103.41 105.56 103.75 105.59 104.09 105.61 104.44 105.61 104.78 105.59 105.13 105.57 105.47 105.54 105.81 105.53 106.16 105.54 106.5 105.56 106.85 105.59 107.19 105.62 107.53 105.63 107.88 105.62 108.22 105.61 108.57 105.61 108.91 105.62 109.25 105.63 109.6 105.64 109.94 105.63 110.29 105.62 110.63 105.6 110.97 105.58 111.32 105.57 111.66 105.55 112.01 105.55 112.35 105.55 112.69 105.56 113.04 105.58 113.38 105.6 113.73 105.61 114.07 105.61 114.41 105.62 114.76 105.61 115.1 105.62 115.45 105.63 115.79 105.63 116.14 105.63 116.48 105.61 116.82 105.59 117.17 105.59 117.51 105.61 117.86 105.64 118.2 105.65 118.54 105.65 118.89 105.64 119.23 105.62 119.58 105.61 119.92 105.61 120.26 105.61 120.61 105.62 120.95 105.63 121.3 105.63 121.64 105.63 121.98 105.64 122.33 105.64 122.67 105.65 123.02 105.66 123.36 105.67 123.7 105.68 124.05 105.67 124.39 105.66 124.74 105.65 125.08 105.63 125.42 105.63 125.77 105.62 126.11 105.63 126.46 105.64 126.8 105.65 127.14 105.66 127.49 105.65 127.83 105.65 128.18 105.65 128.52 105.66 128.86 105.67 129.21 105.69 129.55 105.71 129.9 105.71 130.24 105.71 130.58 105.71 130.93 105.71"/>
      </g>
      <g stroke-width="0.3" fill="#000000" fill-opacity="0.000" class="geometry" stroke-dasharray="none" stroke="#00BFFF" id="img-02e8c329-12">
        <path fill="none" d="M42.86,105.71 L 43.21 105.68 43.56 105.54 43.9 105 44.25 103.31 44.6 99.15 44.94 91.01 45.29 78.44 45.64 63.23 45.98 49.07 46.33 39.46 46.68 35.63 47.02 36.34 47.37 39.34 47.72 42.9 48.06 46.31 48.41 49.53 48.76 52.76 49.1 56.05 49.45 59.32 49.8 62.45 50.14 65.34 50.49 67.97 50.84 70.4 51.18 72.68 51.53 74.84 51.88 76.87 52.22 78.74 52.57 80.43 52.92 81.92 53.26 83.25 53.61 84.46 53.96 85.62 54.3 86.73 54.65 87.79 55 88.8 55.34 89.7 55.69 90.47 56.04 91.1 56.38 91.65 56.73 92.2 57.08 92.77 57.42 93.4 57.77 94.08 58.12 94.8 58.46 95.47 58.81 96.02 59.16 96.44 59.5 96.78 59.85 97.12 60.2 97.49 60.54 97.91 60.89 98.34 61.24 98.77 61.58 99.18 61.93 99.55 62.28 99.88 62.62 100.16 62.97 100.38 63.32 100.56 63.66 100.72 64.01 100.88 64.36 101.06 64.7 101.27 65.05 101.48 65.4 101.68 65.74 101.86 66.09 102.05 66.44 102.24 66.78 102.42 67.13 102.59 67.48 102.72 67.82 102.78 68.17 102.81 68.52 102.83 68.86 102.87 69.21 102.95 69.56 103.04 69.9 103.15 70.25 103.26 70.6 103.36 70.94 103.44 71.29 103.51 71.64 103.58 71.98 103.65 72.33 103.71 72.68 103.77 73.02 103.82 73.37 103.89 73.72 103.96 74.06 104.05 74.41 104.15 74.76 104.25 75.1 104.31 75.45 104.34 75.8 104.36 76.14 104.4 76.49 104.46 76.84 104.54 77.18 104.61 77.53 104.66 77.88 104.69 78.22 104.7 78.57 104.68 78.92 104.64 79.26 104.6 79.61 104.58 79.96 104.6 80.3 104.64 80.65 104.68 81 104.71 81.34 104.75 81.69 104.79 82.04 104.86 82.38 104.93 82.73 105.01 83.08 105.07 83.42 105.12 83.77 105.15 84.12 105.15 84.46 105.15 84.81 105.15 85.16 105.18 85.5 105.22 85.85 105.26 86.2 105.29 86.54 105.3 86.89 105.3 87.24 105.28 87.58 105.26 87.93 105.23 88.28 105.19 88.62 105.17 88.97 105.16 89.32 105.17 89.66 105.19 90.01 105.21 90.36 105.21 90.7 105.2 91.05 105.18 91.4 105.18 91.74 105.18 92.09 105.21 92.44 105.24 92.78 105.27 93.13 105.3 93.48 105.32 93.82 105.34 94.17 105.36 94.52 105.37 94.86 105.38 95.21 105.38 95.56 105.38 95.9 105.39 96.25 105.4 96.6 105.41 96.94 105.43 97.29 105.44 97.64 105.46 97.99 105.47 98.33 105.47 98.68 105.45 99.03 105.43 99.37 105.43 99.72 105.46 100.07 105.49 100.41 105.52 100.76 105.53 101.11 105.53 101.45 105.52 101.8 105.5 102.15 105.49 102.49 105.48 102.84 105.49 103.19 105.51 103.53 105.54 103.88 105.56 104.23 105.57 104.57 105.57 104.92 105.54 105.27 105.52 105.61 105.5 105.96 105.49 106.31 105.51 106.65 105.54 107 105.57 107.35 105.59 107.69 105.6 108.04 105.59 108.39 105.59 108.73 105.59 109.08 105.6 109.43 105.61 109.77 105.61 110.12 105.6 110.47 105.58 110.81 105.56 111.16 105.54 111.51 105.52 111.85 105.51 112.2 105.51 112.55 105.51 112.89 105.53 113.24 105.55 113.59 105.57 113.93 105.58 114.28 105.59 114.63 105.59 114.97 105.59 115.32 105.6 115.67 105.61 116.01 105.61 116.36 105.6 116.71 105.59 117.05 105.58 117.4 105.59 117.75 105.61 118.09 105.63 118.44 105.63 118.79 105.62 119.13 105.61 119.48 105.6 119.83 105.6 120.17 105.6 120.52 105.61 120.87 105.61 121.21 105.61 121.56 105.61 121.91 105.62 122.25 105.62 122.6 105.63 122.95 105.64 123.29 105.66 123.64 105.66 123.99 105.66 124.33 105.65 124.68 105.63 125.03 105.62 125.37 105.61 125.72 105.6 126.07 105.61 126.41 105.62 126.76 105.63 127.11 105.64 127.45 105.64 127.8 105.63 128.15 105.63 128.49 105.64 128.84 105.66 129.19 105.68 129.53 105.7 129.88 105.71 130.23 105.71 130.57 105.71 130.92 105.71 131.27 105.71"/>
      </g>
      <g stroke-width="0.3" fill="#000000" fill-opacity="0.000" class="geometry" stroke-dasharray="none" stroke="#00BFFF" id="img-02e8c329-13">
        <path fill="none" d="M42.32,105.71 L 42.67 105.69 43.02 105.63 43.37 105.39 43.72 104.71 44.07 103.02 44.42 99.52 44.77 93.36 45.13 84.25 45.48 72.98 45.83 61.42 46.18 51.79 46.53 45.6 46.88 43.06 47.23 43.33 47.58 45.21 47.93 47.76 48.28 50.55 48.63 53.45 48.99 56.41 49.34 59.38 49.69 62.24 50.04 64.95 50.39 67.5 50.74 69.96 51.09 72.35 51.44 74.66 51.79 76.81 52.14 78.74 52.5 80.41 52.85 81.84 53.2 83.08 53.55 84.2 53.9 85.24 54.25 86.27 54.6 87.29 54.95 88.27 55.3 89.15 55.65 89.89 56 90.47 56.36 90.95 56.71 91.4 57.06 91.91 57.41 92.49 57.76 93.15 58.11 93.82 58.46 94.45 58.81 95 59.16 95.46 59.51 95.86 59.87 96.23 60.22 96.62 60.57 97.03 60.92 97.46 61.27 97.89 61.62 98.32 61.97 98.74 62.32 99.14 62.67 99.51 63.02 99.84 63.37 100.09 63.73 100.29 64.08 100.45 64.43 100.59 64.78 100.74 65.13 100.91 65.48 101.09 65.83 101.3 66.18 101.52 66.53 101.74 66.88 101.95 67.24 102.12 67.59 102.25 67.94 102.34 68.29 102.4 68.64 102.44 68.99 102.48 69.34 102.53 69.69 102.6 70.04 102.69 70.39 102.8 70.75 102.91 71.1 103.03 71.45 103.14 71.8 103.24 72.15 103.33 72.5 103.4 72.85 103.45 73.2 103.51 73.55 103.57 73.9 103.65 74.25 103.76 74.61 103.88 74.96 103.98 75.31 104.05 75.66 104.1 76.01 104.14 76.36 104.2 76.71 104.27 77.06 104.35 77.41 104.41 77.76 104.45 78.12 104.47 78.47 104.45 78.82 104.42 79.17 104.37 79.52 104.34 79.87 104.34 80.22 104.37 80.57 104.41 80.92 104.45 81.27 104.5 81.62 104.56 81.98 104.64 82.33 104.72 82.68 104.81 83.03 104.89 83.38 104.94 83.73 104.97 84.08 104.98 84.43 104.98 84.78 104.99 85.13 105.02 85.49 105.07 85.84 105.12 86.19 105.16 86.54 105.19 86.89 105.19 87.24 105.17 87.59 105.14 87.94 105.1 88.29 105.07 88.64 105.04 88.99 105.03 89.35 105.03 89.7 105.04 90.05 105.04 90.4 105.05 90.75 105.05 91.1 105.06 91.45 105.07 91.8 105.09 92.15 105.12 92.5 105.14 92.86 105.17 93.21 105.19 93.56 105.21 93.91 105.23 94.26 105.25 94.61 105.26 94.96 105.27 95.31 105.28 95.66 105.29 96.01 105.29 96.36 105.31 96.72 105.33 97.07 105.36 97.42 105.38 97.77 105.4 98.12 105.41 98.47 105.41 98.82 105.4 99.17 105.4 99.52 105.4 99.87 105.42 100.23 105.45 100.58 105.47 100.93 105.48 101.28 105.47 101.63 105.45 101.98 105.44 102.33 105.44 102.68 105.45 103.03 105.47 103.38 105.5 103.74 105.53 104.09 105.55 104.44 105.55 104.79 105.54 105.14 105.52 105.49 105.5 105.84 105.49 106.19 105.49 106.54 105.51 106.89 105.53 107.24 105.54 107.6 105.55 107.95 105.55 108.3 105.55 108.65 105.55 109 105.56 109.35 105.56 109.7 105.56 110.05 105.55 110.4 105.53 110.75 105.51 111.11 105.48 111.46 105.46 111.81 105.45 112.16 105.45 112.51 105.46 112.86 105.49 113.21 105.51 113.56 105.53 113.91 105.54 114.26 105.55 114.61 105.55 114.97 105.55 115.32 105.56 115.67 105.57 116.02 105.57 116.37 105.57 116.72 105.56 117.07 105.57 117.42 105.57 117.77 105.59 118.12 105.6 118.48 105.6 118.83 105.6 119.18 105.59 119.53 105.58 119.88 105.58 120.23 105.58 120.58 105.58 120.93 105.58 121.28 105.58 121.63 105.58 121.98 105.58 122.34 105.59 122.69 105.6 123.04 105.62 123.39 105.63 123.74 105.63 124.09 105.63 124.44 105.62 124.79 105.6 125.14 105.59 125.49 105.59 125.85 105.6 126.2 105.61 126.55 105.62 126.9 105.63 127.25 105.63 127.6 105.62 127.95 105.62 128.3 105.62 128.65 105.64 129 105.66 129.35 105.68 129.71 105.7 130.06 105.71 130.41 105.71 130.76 105.71 131.11 105.71 131.46 105.71 131.81 105.71"/>
      </g>
      <g stroke-width="0.3" fill="#000000" fill-opacity="0.000" class="geometry" stroke-dasharray="none" stroke="#00BFFF" id="img-02e8c329-14">
        <path fill="none" d="M41.61,105.71 L 41.97 105.7 42.33 105.67 42.68 105.56 43.04 105.29 43.4 104.65 43.75 103.31 44.11 100.81 44.47 96.72 44.82 90.78 45.18 83.16 45.54 74.59 45.89 66.19 46.25 59.11 46.61 54.16 46.96 51.55 47.32 50.96 47.67 51.79 48.03 53.44 48.39 55.51 48.74 57.76 49.1 60.09 49.46 62.43 49.81 64.73 50.17 66.97 50.53 69.13 50.88 71.24 51.24 73.28 51.6 75.24 51.95 77.08 52.31 78.77 52.67 80.3 53.02 81.65 53.38 82.86 53.73 83.96 54.09 84.99 54.45 85.99 54.8 86.95 55.16 87.85 55.52 88.68 55.87 89.4 56.23 90 56.59 90.52 56.94 91.01 57.3 91.51 57.66 92.06 58.01 92.67 58.37 93.31 58.73 93.94 59.08 94.51 59.44 95 59.79 95.4 60.15 95.74 60.51 96.06 60.86 96.39 61.22 96.76 61.58 97.16 61.93 97.57 62.29 97.97 62.65 98.34 63 98.66 63.36 98.93 63.72 99.15 64.07 99.35 64.43 99.55 64.79 99.77 65.14 100.03 65.5 100.33 65.85 100.64 66.21 100.94 66.57 101.2 66.92 101.4 67.28 101.53 67.64 101.6 67.99 101.64 68.35 101.66 68.71 101.69 69.06 101.74 69.42 101.82 69.78 101.94 70.13 102.09 70.49 102.27 70.85 102.44 71.2 102.61 71.56 102.75 71.91 102.87 72.27 102.96 72.63 103.03 72.98 103.09 73.34 103.17 73.7 103.26 74.05 103.38 74.41 103.51 74.77 103.64 75.12 103.76 75.48 103.86 75.84 103.95 76.19 104.02 76.55 104.09 76.91 104.14 77.26 104.18 77.62 104.2 77.97 104.19 78.33 104.16 78.69 104.13 79.04 104.09 79.4 104.07 79.76 104.08 80.11 104.1 80.47 104.14 80.83 104.18 81.18 104.23 81.54 104.29 81.9 104.36 82.25 104.45 82.61 104.53 82.97 104.62 83.32 104.7 83.68 104.76 84.03 104.8 84.39 104.83 84.75 104.85 85.1 104.89 85.46 104.95 85.82 105.01 86.17 105.07 86.53 105.12 86.89 105.15 87.24 105.14 87.6 105.1 87.96 105.03 88.31 104.96 88.67 104.9 89.03 104.87 89.38 104.85 89.74 104.85 90.09 104.87 90.45 104.88 90.81 104.89 91.16 104.9 91.52 104.91 91.88 104.93 92.23 104.95 92.59 104.99 92.95 105.04 93.3 105.08 93.66 105.13 94.02 105.16 94.37 105.19 94.73 105.2 95.09 105.21 95.44 105.22 95.8 105.23 96.15 105.26 96.51 105.29 96.87 105.33 97.22 105.35 97.58 105.37 97.94 105.37 98.29 105.37 98.65 105.35 99.01 105.35 99.36 105.35 99.72 105.37 100.08 105.39 100.43 105.41 100.79 105.43 101.15 105.43 101.5 105.41 101.86 105.39 102.21 105.37 102.57 105.37 102.93 105.38 103.28 105.41 103.64 105.45 104 105.47 104.35 105.49 104.71 105.49 105.07 105.49 105.42 105.48 105.78 105.47 106.14 105.48 106.49 105.48 106.85 105.49 107.21 105.5 107.56 105.5 107.92 105.5 108.27 105.5 108.63 105.51 108.99 105.51 109.34 105.51 109.7 105.51 110.06 105.49 110.41 105.47 110.77 105.45 111.13 105.42 111.48 105.41 111.84 105.4 112.2 105.41 112.55 105.43 112.91 105.45 113.27 105.48 113.62 105.5 113.98 105.51 114.33 105.52 114.69 105.52 115.05 105.52 115.4 105.52 115.76 105.52 116.12 105.52 116.47 105.52 116.83 105.52 117.19 105.53 117.54 105.53 117.9 105.54 118.26 105.55 118.61 105.55 118.97 105.56 119.33 105.56 119.68 105.56 120.04 105.56 120.39 105.56 120.75 105.57 121.11 105.57 121.46 105.57 121.82 105.57 122.18 105.58 122.53 105.59 122.89 105.6 123.25 105.61 123.6 105.62 123.96 105.62 124.32 105.61 124.67 105.6 125.03 105.59 125.39 105.58 125.74 105.58 126.1 105.57 126.45 105.58 126.81 105.58 127.17 105.58 127.52 105.57 127.88 105.58 128.24 105.58 128.59 105.6 128.95 105.62 129.31 105.65 129.66 105.67 130.02 105.69 130.38 105.7 130.73 105.71 131.09 105.71 131.44 105.71 131.8 105.71 132.16 105.71 132.51 105.71"/>
      </g>
      <g stroke-width="0.3" fill="#000000" fill-opacity="0.000" class="geometry" stroke-dasharray="none" stroke="#00BFFF" id="img-02e8c329-15">
        <path fill="none" d="M40.44,105.71 L 40.8 105.71 41.17 105.69 41.54 105.66 41.9 105.57 42.27 105.38 42.63 105 43 104.3 43.36 103.08 43.73 101.13 44.1 98.26 44.46 94.34 44.83 89.39 45.19 83.66 45.56 77.55 45.92 71.59 46.29 66.31 46.66 62.15 47.02 59.31 47.39 57.81 47.75 57.51 48.12 58.16 48.48 59.49 48.85 61.27 49.22 63.3 49.58 65.44 49.95 67.57 50.31 69.64 50.68 71.59 51.04 73.42 51.41 75.14 51.78 76.76 52.14 78.27 52.51 79.68 52.87 80.98 53.24 82.18 53.6 83.28 53.97 84.3 54.34 85.25 54.7 86.14 55.07 86.97 55.43 87.74 55.8 88.45 56.16 89.09 56.53 89.68 56.9 90.23 57.26 90.75 57.63 91.27 57.99 91.8 58.36 92.34 58.72 92.87 59.09 93.38 59.46 93.86 59.82 94.28 60.19 94.68 60.55 95.05 60.92 95.43 61.28 95.84 61.65 96.29 62.01 96.76 62.38 97.22 62.75 97.66 63.11 98.03 63.48 98.34 63.84 98.6 64.21 98.83 64.57 99.05 64.94 99.3 65.31 99.58 65.67 99.89 66.04 100.2 66.4 100.5 66.77 100.74 67.13 100.92 67.5 101.02 67.87 101.07 68.23 101.08 68.6 101.09 68.96 101.11 69.33 101.17 69.69 101.27 70.06 101.41 70.43 101.57 70.79 101.74 71.16 101.9 71.52 102.03 71.89 102.14 72.25 102.24 72.62 102.32 72.99 102.42 73.35 102.54 73.72 102.68 74.08 102.86 74.45 103.05 74.81 103.25 75.18 103.44 75.55 103.6 75.91 103.73 76.28 103.82 76.64 103.88 77.01 103.91 77.37 103.91 77.74 103.89 78.11 103.86 78.47 103.82 78.84 103.79 79.2 103.77 79.57 103.77 79.93 103.8 80.3 103.85 80.66 103.92 81.03 103.99 81.4 104.07 81.76 104.15 82.13 104.23 82.49 104.3 82.86 104.37 83.22 104.43 83.59 104.5 83.96 104.58 84.32 104.67 84.69 104.76 85.05 104.86 85.42 104.96 85.78 105.04 86.15 105.11 86.52 105.15 86.88 105.17 87.25 105.17 87.61 105.15 87.98 105.11 88.34 105.07 88.71 105.02 89.08 104.97 89.44 104.93 89.81 104.89 90.17 104.85 90.54 104.81 90.9 104.78 91.27 104.76 91.64 104.74 92 104.74 92.37 104.75 92.73 104.79 93.1 104.84 93.46 104.9 93.83 104.97 94.2 105.04 94.56 105.11 94.93 105.17 95.29 105.21 95.66 105.24 96.02 105.26 96.39 105.26 96.76 105.25 97.12 105.24 97.49 105.22 97.85 105.19 98.22 105.17 98.58 105.16 98.95 105.15 99.32 105.15 99.68 105.17 100.05 105.19 100.41 105.21 100.78 105.23 101.14 105.24 101.51 105.24 101.87 105.24 102.24 105.25 102.61 105.26 102.97 105.28 103.34 105.31 103.7 105.35 104.07 105.39 104.43 105.42 104.8 105.45 105.17 105.47 105.53 105.49 105.9 105.5 106.26 105.51 106.63 105.5 106.99 105.49 107.36 105.48 107.73 105.47 108.09 105.46 108.46 105.46 108.82 105.45 109.19 105.43 109.55 105.41 109.92 105.39 110.29 105.35 110.65 105.32 111.02 105.29 111.38 105.27 111.75 105.27 112.11 105.28 112.48 105.29 112.85 105.31 113.21 105.33 113.58 105.35 113.94 105.36 114.31 105.37 114.67 105.38 115.04 105.39 115.41 105.4 115.77 105.41 116.14 105.42 116.5 105.43 116.87 105.44 117.23 105.45 117.6 105.46 117.97 105.48 118.33 105.49 118.7 105.5 119.06 105.51 119.43 105.51 119.79 105.51 120.16 105.51 120.53 105.5 120.89 105.5 121.26 105.5 121.62 105.5 121.99 105.51 122.35 105.52 122.72 105.53 123.08 105.54 123.45 105.55 123.82 105.56 124.18 105.55 124.55 105.55 124.91 105.54 125.28 105.54 125.64 105.53 126.01 105.53 126.38 105.53 126.74 105.53 127.11 105.53 127.47 105.54 127.84 105.54 128.2 105.56 128.57 105.58 128.94 105.6 129.3 105.62 129.67 105.65 130.03 105.67 130.4 105.68 130.76 105.7 131.13 105.7 131.5 105.71 131.86 105.71 132.23 105.71 132.59 105.71 132.96 105.71 133.32 105.71 133.69 105.71"/>
      </g>
      <g stroke-width="0.3" fill="#000000" fill-opacity="0.000" class="geometry" stroke-dasharray="none" stroke="#00BFFF" id="img-02e8c329-16">
        <path fill="none" d="M38.2,105.71 L 38.59 105.71 38.97 105.71 39.35 105.69 39.74 105.67 40.12 105.63 40.51 105.56 40.89 105.43 41.28 105.22 41.66 104.88 42.04 104.36 42.43 103.58 42.81 102.49 43.2 101.02 43.58 99.1 43.96 96.72 44.35 93.9 44.73 90.7 45.12 87.22 45.5 83.62 45.89 80.09 46.27 76.8 46.65 73.91 47.04 71.55 47.42 69.8 47.81 68.69 48.19 68.17 48.58 68.2 48.96 68.69 49.34 69.53 49.73 70.65 50.11 71.95 50.5 73.35 50.88 74.81 51.26 76.27 51.65 77.69 52.03 79.05 52.42 80.34 52.8 81.55 53.19 82.68 53.57 83.72 53.95 84.7 54.34 85.61 54.72 86.47 55.11 87.27 55.49 88.04 55.88 88.76 56.26 89.45 56.64 90.1 57.03 90.72 57.41 91.31 57.8 91.87 58.18 92.4 58.57 92.92 58.95 93.41 59.33 93.88 59.72 94.32 60.1 94.72 60.49 95.08 60.87 95.39 61.25 95.65 61.64 95.87 62.02 96.05 62.41 96.21 62.79 96.34 63.18 96.47 63.56 96.6 63.94 96.75 64.33 96.93 64.71 97.13 65.1 97.35 65.48 97.6 65.87 97.85 66.25 98.12 66.63 98.38 67.02 98.63 67.4 98.88 67.79 99.11 68.17 99.32 68.55 99.53 68.94 99.73 69.32 99.92 69.71 100.11 70.09 100.3 70.48 100.48 70.86 100.67 71.24 100.85 71.63 101.03 72.01 101.21 72.4 101.37 72.78 101.53 73.17 101.68 73.55 101.81 73.93 101.92 74.32 102.02 74.7 102.1 75.09 102.18 75.47 102.26 75.85 102.34 76.24 102.43 76.62 102.52 77.01 102.63 77.39 102.75 77.78 102.88 78.16 103.01 78.54 103.14 78.93 103.26 79.31 103.38 79.7 103.48 80.08 103.57 80.47 103.64 80.85 103.69 81.23 103.71 81.62 103.72 82 103.71 82.39 103.69 82.77 103.67 83.15 103.65 83.54 103.64 83.92 103.65 84.31 103.67 84.69 103.7 85.08 103.75 85.46 103.81 85.84 103.88 86.23 103.94 86.61 104 87 104.04 87.38 104.08 87.77 104.11 88.15 104.12 88.53 104.13 88.92 104.13 89.3 104.13 89.69 104.14 90.07 104.14 90.46 104.15 90.84 104.16 91.22 104.18 91.61 104.2 91.99 104.23 92.38 104.27 92.76 104.31 93.14 104.35 93.53 104.4 93.91 104.46 94.3 104.51 94.68 104.56 95.07 104.61 95.45 104.66 95.83 104.7 96.22 104.73 96.6 104.76 96.99 104.79 97.37 104.81 97.76 104.84 98.14 104.86 98.52 104.88 98.91 104.9 99.29 104.92 99.68 104.93 100.06 104.95 100.44 104.96 100.83 104.97 101.21 104.98 101.6 104.98 101.98 104.99 102.37 104.99 102.75 104.99 103.13 104.99 103.52 105 103.9 105 104.29 105.01 104.67 105.02 105.06 105.03 105.44 105.05 105.82 105.06 106.21 105.06 106.59 105.07 106.98 105.06 107.36 105.06 107.74 105.05 108.13 105.03 108.51 105.03 108.9 105.02 109.28 105.02 109.67 105.02 110.05 105.02 110.43 105.03 110.82 105.04 111.2 105.06 111.59 105.07 111.97 105.09 112.36 105.11 112.74 105.13 113.12 105.16 113.51 105.19 113.89 105.22 114.28 105.26 114.66 105.28 115.04 105.31 115.43 105.33 115.81 105.34 116.2 105.35 116.58 105.36 116.97 105.36 117.35 105.35 117.73 105.35 118.12 105.35 118.5 105.35 118.89 105.35 119.27 105.35 119.66 105.36 120.04 105.37 120.42 105.39 120.81 105.41 121.19 105.43 121.58 105.45 121.96 105.47 122.34 105.49 122.73 105.51 123.11 105.53 123.5 105.55 123.88 105.57 124.27 105.58 124.65 105.58 125.03 105.58 125.42 105.57 125.8 105.57 126.19 105.55 126.57 105.54 126.96 105.53 127.34 105.52 127.72 105.52 128.11 105.52 128.49 105.53 128.88 105.55 129.26 105.56 129.65 105.58 130.03 105.61 130.41 105.63 130.8 105.65 131.18 105.67 131.57 105.68 131.95 105.69 132.33 105.7 132.72 105.7 133.1 105.71 133.49 105.71 133.87 105.71 134.26 105.71 134.64 105.71 135.02 105.71 135.41 105.71 135.79 105.71 136.18 105.71"/>
      </g>
    </g>
  </g>
</g>
  <g class="guide ylabels" font-size="2.82" font-family="'PT Sans Caption','Helvetica Neue','Helvetica',sans-serif" fill="#6C606B" id="img-02e8c329-17">
    <text x="9.35" y="105.71" text-anchor="end" dy="0.35em">0</text>
    <text x="9.35" y="72.81" text-anchor="end" dy="0.35em">10</text>
    <text x="9.35" y="39.9" text-anchor="end" dy="0.35em">20</text>
    <text x="9.35" y="7" text-anchor="end" dy="0.35em">30</text>
  </g>
</g>
<defs>
  <clipPath id="img-02e8c329-4">
  <path d="M10.35,5 L 147.4 5 147.4 107.72 10.35 107.72" />
</clipPath>
</defs>
</svg>
